<svg version="1.2" xmlns="http://www.w3.org/2000/svg" viewBox="0 0 373 113" width="373" height="113"><style>.s0{fill:#ffca07}.s1{fill:#414142}</style><path class="s0" d="" /><path fill-rule="evenodd" class="s0" d="m77.7 4.3c6.7 2.9 12.9 7 18.1 12.2c5.1 5.2 9.2 11.3 12 18.1c2.8 6.8 4.3 14.1 4.3 21.4c0 22.7-13.7 43.1-34.7 51.8c-20.9 8.6-45 3.8-61-12.3c-16-16.1-20.7-40.2-12-61.1c8.8-20.9 29.2-34.5 51.9-34.4c7.4 0 14.6 1.5 21.4 4.3zm26.6 37.3c-6.3-21-25.4-35.5-47.3-35.9c-21.9-0.5-41.5 13.2-48.7 33.9c-7.1 20.7-0.1 43.6 17.4 56.8q1.4-0.7 2.7-1.4q1.3-0.8 2.6-1.6q1.3-0.7 2.5-1.6q1.3-0.8 2.5-1.7q1.1-0.7 2.2-1.5q1-0.9 2-1.8q0.9-1 1.7-2.1q0.9-1.1 1.5-2.2c7.1-14.2-17.7-23.9-24.9-31.4q-0.6-0.7-1.3-1.4q-0.6-0.8-1.1-1.6q-0.5-0.8-0.9-1.7q-0.4-0.9-0.8-1.8q-0.2-0.8-0.3-1.6q-0.1-0.8 0-1.6q0-0.8 0.2-1.6q0.2-0.8 0.6-1.6q0.7-1.1 1.5-2.1q0.8-1.1 1.8-2q1-0.9 2.1-1.6q1.1-0.8 2.3-1.3q1.7-0.9 3.4-1.7q1.7-0.7 3.4-1.4q1.7-0.7 3.5-1.3q1.7-0.6 3.5-1q4.5-1.4 9-2.4h0.2h0.1c0.5-0.1 1-0.2 1.5-0.3l0.5-0.1c1-0.2 2.1-0.4 3.1-0.6c7.4-1.4 20.8-3.8 30.6-4.6l1.3-0.2l0.1 0.1c0.7-0.1 1.3-0.1 1.9-0.1l-1.6 0.2l0.2 0.1c-21.5 2.5-33.2 8.5-33.9 8.9q-1 0.5-2 1.1q-1 0.6-1.9 1.2q-0.9 0.6-1.8 1.2q-1 0.6-1.8 1.3c-6.5 5.1 5.8 11.8 9.3 13.7c7.2 4 15.2 6.1 22.4 9.9q1.4 0.8 2.7 1.5q1.3 0.8 2.6 1.6q1.3 0.9 2.5 1.7q1.3 0.9 2.5 1.9q1.1 0.9 2.2 1.9q1 1 2 2.1q0.9 1.2 1.7 2.4q0.8 1.2 1.5 2.5c3.1 6.5 1.6 14.2-1.9 20.1q-0.4 0.7-0.9 1.3q-0.4 0.7-0.8 1.4q-0.5 0.6-1 1.2q-0.5 0.7-1 1.3c-0.1 0.2-0.7 1-1.1 1.5c18-12.4 25.9-35 19.7-56z" /><path class="s1" d="m136 50.6q1.7 1.8 3.7 3.2q2 1.3 4.3 2.3q2.2 0.9 4.6 1.4q2.4 0.5 4.8 0.5c6.5 0 9.6-3 9.6-6.2c0-4.1-4.8-5.5-11.1-7c-9-2-20.6-4.5-20.6-16.7c0-9.1 8-16.5 20.9-16.5c8.7 0 16 2.6 21.4 7.6l-6.5 8.6q-1.6-1.5-3.4-2.6q-1.9-1.1-3.9-1.9q-2-0.7-4.1-1.1q-2.2-0.4-4.3-0.4c-5.3 0-8.1 2.3-8.1 5.6c0 3.6 4.6 4.8 11 6.3c9.1 2 20.6 4.7 20.6 16.9c0 10-7.2 17.5-22 17.5c-10.6 0-18.1-3.5-23.3-8.7z" /><path class="s1" d="m194.8 22.9l-16.1 0.1v-10.2l43.9-0.2v10.2l-16 0.1l0.2 44.5h-11.8z" /><path class="s1" d="m231.6 12.6l38.9-0.2v10l-27.1 0.1v11.9l26.6-0.1v10l-26.6 0.1v12.7l27.2-0.1v10.1l-38.9 0.2z" /><path class="s1" d="m279.7 12.4l38.9-0.2v10l-27.2 0.1v11.9l26.7-0.1v10l-26.7 0.1l0.1 12.7l27.2-0.1v10.1l-38.9 0.2z" /><path fill-rule="evenodd" class="s1" d="m348.1 47.2h-8.5v19.6h-11.7l-0.2-54.7l25.7-0.1c11.5-0.1 18.5 7.4 18.6 17.6c0 9.6-6 14.8-12 16.2l12.4 20.9h-13.4zm3.6-25.1h-12.3l0.1 15.1h12.3c4.7 0 8.2-3 8.2-7.6c0-4.6-3.6-7.5-8.3-7.5z" /><path class="s0" d="m129.6 76.4l16.5-0.1v3.7h-12.3v6.2h12v3.7h-12v6.6h12.3v3.7l-16.5 0.1z" /><path fill-rule="evenodd" class="s0" d="m156.1 76.2h9c7.5 0 12.6 4.9 12.6 12c0 7-5 12-12.5 12h-9zm9 20.2q1.6 0 3.1-0.5q1.4-0.6 2.6-1.6q1.2-1.1 1.8-2.5q0.7-1.4 0.8-3q0-0.3 0-0.7q0.1-1.6-0.4-3q-0.5-1.5-1.6-2.7q-1-1.1-2.4-1.8q-1.3-0.7-2.9-0.8q-0.1 0-0.2 0q-0.2 0-0.3 0q-0.1 0-0.2 0q-0.2 0-0.3 0h-4.7v16.6z" /><path class="s0" d="m187.4 76.1h4.3v14.4c0 3.8 2.2 6.3 6.2 6.2c4.1 0 6.2-2.5 6.1-6.3v-14.3h4.2l0.1 14.4c0 5.9-3.4 9.9-10.4 9.9c-6.9 0-10.4-3.9-10.4-9.8z" /><path class="s0" d="m218 88c0-1.6 0.2-3.2 0.8-4.7c0.6-1.5 1.4-2.8 2.5-4c1.1-1.1 2.4-2 3.8-2.7c1.5-0.6 3-1 4.6-1q0.4 0 0.7 0q1.5-0.1 2.9 0.2q1.5 0.4 2.8 1.1q1.3 0.7 2.3 1.7q1.1 1 1.9 2.3l-3.6 1.8q-0.5-0.8-1.2-1.4q-0.7-0.7-1.5-1.1q-0.8-0.5-1.7-0.7q-0.9-0.2-1.9-0.2c-2.2 0.1-4.3 1.1-5.8 2.7c-1.5 1.6-2.4 3.7-2.4 6c0 2.2 0.9 4.3 2.5 5.9c1.5 1.6 3.6 2.6 5.8 2.7q1 0 1.9-0.3q0.9-0.2 1.7-0.7q0.8-0.4 1.5-1.1q0.7-0.6 1.1-1.4l3.6 1.8q-0.7 1.3-1.8 2.3q-1 1-2.3 1.7q-1.3 0.7-2.8 1.1q-1.4 0.3-2.9 0.3c-1.6 0-3.1-0.2-4.6-0.8c-1.5-0.5-2.9-1.4-4-2.4c-1.2-1.1-2.1-2.4-2.8-3.9c-0.6-1.4-1-2.9-1-4.5c-0.1-0.2-0.1-0.5-0.1-0.7z" /><path fill-rule="evenodd" class="s0" d="m264.5 95.1h-11.4l-1.7 4.6h-4.6l9.3-23.9h5.3l9.5 23.9h-4.6zm-10.2-3.7h9l-4.6-12.1z" /><path class="s0" d="m282.6 79.5h-7.3v-3.7l18.8-0.1v3.7h-7.3l0.1 20.2h-4.2z" /><path class="s0" d="m303.3 75.7h4.2l0.1 23.9h-4.2z" /><path fill-rule="evenodd" class="s0" d="m329.6 75.2c5-0.1 9.5 2.9 11.5 7.5c2 4.6 1 9.9-2.5 13.5c-3.5 3.6-8.9 4.7-13.5 2.8c-4.6-1.9-7.7-6.3-7.8-11.3v-0.1c0-1.6 0.2-3.1 0.8-4.6c0.5-1.5 1.3-2.8 2.4-4c1-1.1 2.3-2.1 3.7-2.7c1.4-0.7 2.9-1.1 4.5-1.1zm0 3.7c-4.9 0-7.9 3.7-7.9 8.7c0 4.9 3.1 8.6 8 8.6c4.8 0 7.9-3.8 7.9-8.7c0-4.9-3.2-8.6-8-8.6z" /><path class="s0" d="m355.9 82l0.1 17.4h-4.2l-0.1-23.9h4.3l12.4 16.9l-0.1-17h4.2l0.1 23.9h-4.1z" /></svg>