<svg id="svg" version="1.1" xmlns="http://www.w3.org/2000/svg" xmlns:xlink="http://www.w3.org/1999/xlink" width="400" height="400" viewBox="0, 0, 400,400"><g id="svgg"><path id="path0" d="M281.724 65.410 C 241.155 68.080,216.271 93.282,213.405 134.600 C 213.288 136.292,213.203 147.438,213.202 161.350 L 213.200 185.200 188.000 185.200 L 162.800 185.200 162.800 214.300 L 162.800 243.400 188.000 243.400 L 213.200 243.400 213.200 318.200 L 213.200 393.000 243.200 393.000 L 273.200 393.000 273.200 318.200 L 273.200 243.400 298.300 243.400 C 312.105 243.400,323.403 243.378,323.407 243.350 C 323.411 243.322,325.102 230.228,327.164 214.250 L 330.915 185.200 302.047 185.200 L 273.179 185.200 273.251 163.650 C 273.321 142.795,273.337 142.016,273.749 139.500 C 275.551 128.500,280.748 122.865,291.188 120.591 C 295.328 119.689,297.438 119.604,315.750 119.602 L 333.000 119.600 333.000 93.613 C 333.000 69.038,332.981 67.621,332.650 67.521 C 331.792 67.260,321.007 66.369,314.300 66.005 C 302.521 65.367,286.761 65.079,281.724 65.410 " stroke="none" fill="#fbfbfb" fill-rule="evenodd"></path><path id="path1" d="M24.490 7.092 C 16.164 8.607,9.708 14.542,7.432 22.776 L 6.900 24.700 6.900 199.900 L 6.900 375.100 7.436 377.041 C 9.681 385.167,16.110 391.154,24.250 392.698 C 25.658 392.965,36.748 393.000,119.422 393.000 L 213.000 393.000 213.000 318.300 L 213.000 243.600 187.900 243.600 L 162.800 243.600 162.800 214.400 L 162.800 185.200 187.900 185.200 L 213.000 185.200 213.000 162.550 C 213.000 140.168,213.108 135.179,213.706 129.900 C 218.040 91.607,242.243 68.335,280.800 65.384 C 284.311 65.115,302.222 65.245,308.800 65.586 C 317.982 66.063,327.390 66.745,331.095 67.203 C 331.972 67.311,332.759 67.400,332.845 67.400 C 332.930 67.400,333.000 79.138,333.000 93.483 L 333.000 119.567 315.150 119.657 C 296.581 119.752,295.338 119.805,291.300 120.673 C 280.164 123.068,274.826 129.432,273.605 141.771 C 273.480 143.037,273.400 151.880,273.400 164.521 L 273.400 185.200 302.200 185.200 C 318.040 185.200,331.000 185.259,331.000 185.330 C 331.000 185.677,323.570 243.133,323.497 243.350 C 323.430 243.548,318.233 243.600,298.406 243.600 L 273.400 243.600 273.400 318.300 L 273.400 393.000 323.678 393.000 C 367.710 393.000,374.154 392.962,375.550 392.698 C 384.351 391.028,391.028 384.351,392.698 375.550 C 393.150 373.163,393.159 26.961,392.706 24.376 C 391.281 16.238,385.235 9.700,377.041 7.436 L 375.100 6.900 200.500 6.868 C 59.197 6.841,25.631 6.884,24.490 7.092 " stroke="none" fill="#3c5c9c" fill-rule="evenodd"></path><path id="path2" d="M298.850 65.343 C 299.153 65.389,299.647 65.389,299.950 65.343 C 300.252 65.297,300.005 65.260,299.400 65.260 C 298.795 65.260,298.548 65.297,298.850 65.343 M305.250 65.538 C 305.443 65.588,305.757 65.588,305.950 65.538 C 306.143 65.488,305.985 65.446,305.600 65.446 C 305.215 65.446,305.058 65.488,305.250 65.538 M299.350 119.741 C 299.598 119.789,300.002 119.789,300.250 119.741 C 300.498 119.693,300.295 119.654,299.800 119.654 C 299.305 119.654,299.103 119.693,299.350 119.741 M213.062 139.500 C 213.063 140.160,213.100 140.406,213.145 140.046 C 213.189 139.687,213.189 139.147,213.143 138.846 C 213.097 138.546,213.061 138.840,213.062 139.500 M273.296 165.700 C 273.296 176.370,273.320 180.706,273.350 175.335 C 273.380 169.964,273.380 161.234,273.350 155.935 C 273.320 150.636,273.296 155.030,273.296 165.700 M298.400 243.399 L 273.300 243.500 273.300 318.200 L 273.299 392.900 273.350 318.250 L 273.401 243.600 298.388 243.600 C 314.831 243.600,323.419 243.532,323.500 243.400 C 323.568 243.290,323.596 243.222,323.562 243.249 C 323.528 243.276,312.205 243.343,298.400 243.399 M175.366 243.550 C 182.332 243.579,193.672 243.579,200.566 243.550 C 207.459 243.521,201.760 243.497,187.900 243.497 C 174.040 243.497,168.399 243.521,175.366 243.550 " stroke="none" fill="#8496bf" fill-rule="evenodd"></path><path id="path3" d="M283.450 65.338 C 283.643 65.388,283.957 65.388,284.150 65.338 C 284.343 65.288,284.185 65.246,283.800 65.246 C 283.415 65.246,283.257 65.288,283.450 65.338 M295.650 65.346 C 296.063 65.389,296.738 65.389,297.150 65.346 C 297.563 65.303,297.225 65.267,296.400 65.267 C 295.575 65.267,295.238 65.303,295.650 65.346 M303.650 65.538 C 303.843 65.588,304.157 65.588,304.350 65.538 C 304.543 65.488,304.385 65.446,304.000 65.446 C 303.615 65.446,303.457 65.488,303.650 65.538 M308.552 65.741 C 308.801 65.789,309.161 65.787,309.352 65.737 C 309.544 65.687,309.340 65.648,308.900 65.650 C 308.460 65.653,308.304 65.694,308.552 65.741 M279.589 126.350 L 278.900 127.100 279.650 126.411 C 280.348 125.769,280.492 125.600,280.339 125.600 C 280.306 125.600,279.968 125.938,279.589 126.350 M273.250 145.100 C 273.253 145.540,273.294 145.696,273.341 145.448 C 273.389 145.199,273.387 144.839,273.337 144.648 C 273.287 144.456,273.248 144.660,273.250 145.100 " stroke="none" fill="#a4b4cd" fill-rule="evenodd"></path><path id="path4" d="M213.097 162.800 C 213.097 175.065,213.121 180.083,213.150 173.950 C 213.179 167.817,213.179 157.783,213.150 151.650 C 213.121 145.518,213.097 150.535,213.097 162.800 M213.099 318.300 C 213.099 359.440,213.122 376.240,213.150 355.634 C 213.178 335.027,213.178 301.367,213.150 280.834 C 213.122 260.300,213.099 277.160,213.099 318.300 " stroke="none" fill="#9caccc" fill-rule="evenodd"></path></g></svg>