<svg id="svg" version="1.1" xmlns="http://www.w3.org/2000/svg" xmlns:xlink="http://www.w3.org/1999/xlink" width="400"
     height="400" viewBox="0, 0, 400,400">
    <g id="svgg">
        <path id="path0"
              d="M277.800 44.498 C 252.826 49.343,240.730 75.671,253.495 97.400 C 257.498 104.213,265.899 110.672,273.400 112.703 C 274.280 112.942,275.741 113.331,276.646 113.568 C 280.179 114.495,289.939 113.947,293.800 112.605 C 296.324 111.728,301.746 109.126,301.933 108.702 C 302.007 108.536,302.322 108.400,302.633 108.400 C 302.945 108.400,303.200 108.259,303.200 108.086 C 303.200 107.914,303.708 107.472,304.329 107.106 C 304.949 106.739,306.682 105.215,308.180 103.720 C 325.604 86.313,319.661 56.227,296.948 46.861 C 294.380 45.802,293.405 45.525,288.323 44.411 C 286.066 43.917,280.563 43.962,277.800 44.498 M168.000 49.603 C 161.461 50.058,157.617 50.558,148.000 52.203 C 144.497 52.802,135.027 55.567,132.000 56.875 C 131.450 57.113,130.640 57.439,130.200 57.600 C 115.954 62.817,99.388 75.734,94.333 85.567 C 94.040 86.135,93.707 86.690,93.591 86.800 C 93.379 87.001,90.191 93.507,89.573 95.000 C 88.725 97.046,87.084 102.918,86.443 106.200 C 85.334 111.876,85.200 113.919,85.200 125.075 C 85.200 134.629,85.090 137.193,84.665 137.546 C 84.299 137.850,79.398 138.023,69.165 138.095 L 54.200 138.200 54.249 140.400 C 54.276 141.610,54.476 153.270,54.694 166.311 C 54.911 179.352,55.218 190.152,55.377 190.311 C 55.535 190.470,62.085 190.690,69.932 190.800 C 77.780 190.910,84.446 191.158,84.746 191.352 C 85.281 191.697,85.083 302.419,84.546 303.287 C 84.440 303.459,78.243 303.600,70.776 303.600 L 57.200 303.600 57.200 329.799 L 57.200 355.997 123.300 355.747 C 159.655 355.610,189.501 355.386,189.624 355.249 C 189.906 354.935,189.392 318.357,188.985 309.876 L 188.683 303.552 174.041 303.676 C 165.989 303.744,159.204 303.672,158.964 303.516 C 157.939 302.848,157.341 218.971,158.222 199.400 L 158.600 191.000 202.600 191.000 L 246.600 191.000 246.600 247.200 L 246.600 303.400 233.200 303.600 L 219.800 303.800 219.697 329.700 L 219.594 355.600 264.197 355.698 C 288.729 355.752,317.035 355.797,327.100 355.798 L 345.400 355.800 345.711 336.074 C 345.882 325.224,345.882 313.524,345.711 310.074 L 345.400 303.800 332.200 303.600 L 319.000 303.400 318.800 220.800 L 318.600 138.200 238.600 137.998 C 194.600 137.886,158.555 137.751,158.500 137.698 C 158.195 137.400,158.467 126.672,158.832 124.624 C 161.497 109.672,168.224 106.560,198.160 106.434 L 206.120 106.400 205.863 85.100 C 205.721 73.385,205.489 60.720,205.346 56.955 L 205.086 50.111 200.643 49.859 C 192.565 49.401,173.084 49.248,168.000 49.603 "
              stroke="none" fill="#fbfbfb" fill-rule="evenodd"></path>
        <path id="path1"
              d="M38.900 0.291 C 37.965 0.376,37.200 0.616,37.200 0.823 C 37.200 1.030,36.480 1.200,35.600 1.200 C 34.720 1.200,34.000 1.380,34.000 1.600 C 34.000 1.820,33.561 2.000,33.024 2.000 C 32.487 2.000,31.936 2.180,31.800 2.400 C 31.664 2.620,31.203 2.800,30.776 2.800 C 30.349 2.800,30.000 2.980,30.000 3.200 C 30.000 3.420,29.728 3.600,29.395 3.600 C 28.808 3.600,27.206 4.360,26.800 4.832 C 26.690 4.960,26.015 5.319,25.300 5.630 C 24.585 5.941,24.000 6.331,24.000 6.498 C 24.000 6.664,23.680 6.800,23.288 6.800 C 22.897 6.800,22.317 7.160,22.000 7.600 C 21.683 8.040,21.146 8.400,20.808 8.400 C 20.469 8.400,19.744 8.814,19.196 9.320 C 18.648 9.826,17.526 10.697,16.702 11.256 C 15.878 11.814,15.323 12.390,15.469 12.535 C 15.614 12.681,15.515 12.800,15.248 12.800 C 14.620 12.800,12.800 14.620,12.800 15.248 C 12.800 15.515,12.681 15.614,12.535 15.469 C 12.390 15.323,11.814 15.878,11.256 16.702 C 10.697 17.526,9.826 18.648,9.320 19.196 C 8.814 19.744,8.400 20.469,8.400 20.808 C 8.400 21.146,8.040 21.683,7.600 22.000 C 7.160 22.317,6.800 22.897,6.800 23.288 C 6.800 23.680,6.664 24.000,6.498 24.000 C 6.331 24.000,5.941 24.585,5.630 25.300 C 5.319 26.015,4.960 26.690,4.832 26.800 C 4.360 27.206,3.600 28.808,3.600 29.395 C 3.600 29.728,3.420 30.000,3.200 30.000 C 2.980 30.000,2.800 30.349,2.800 30.776 C 2.800 31.203,2.620 31.664,2.400 31.800 C 2.180 31.936,2.000 32.487,2.000 33.024 C 2.000 33.561,1.820 34.000,1.600 34.000 C 1.380 34.000,1.200 34.705,1.200 35.567 C 1.200 36.464,0.987 37.204,0.700 37.300 C -0.036 37.545,-0.036 362.455,0.700 362.700 C 0.987 362.796,1.200 363.536,1.200 364.433 C 1.200 365.295,1.380 366.000,1.600 366.000 C 1.820 366.000,2.000 366.439,2.000 366.976 C 2.000 367.513,2.180 368.064,2.400 368.200 C 2.620 368.336,2.800 368.797,2.800 369.224 C 2.800 369.651,2.980 370.000,3.200 370.000 C 3.420 370.000,3.600 370.272,3.600 370.605 C 3.600 371.192,4.360 372.794,4.832 373.200 C 4.960 373.310,5.319 373.985,5.630 374.700 C 5.941 375.415,6.331 376.000,6.498 376.000 C 6.664 376.000,6.800 376.320,6.800 376.712 C 6.800 377.103,7.160 377.683,7.600 378.000 C 8.040 378.317,8.400 378.854,8.400 379.192 C 8.400 379.531,8.810 380.256,9.311 380.804 C 9.813 381.352,10.662 382.430,11.198 383.200 C 12.443 384.987,12.839 385.384,13.700 385.710 C 14.085 385.856,14.400 386.173,14.400 386.416 C 14.400 386.957,14.980 387.534,16.800 388.802 C 17.570 389.338,18.648 390.187,19.196 390.689 C 19.744 391.190,20.469 391.600,20.808 391.600 C 21.146 391.600,21.683 391.960,22.000 392.400 C 22.317 392.840,22.897 393.200,23.288 393.200 C 23.680 393.200,24.000 393.336,24.000 393.502 C 24.000 393.669,24.585 394.059,25.300 394.370 C 26.015 394.681,26.690 395.040,26.800 395.168 C 27.206 395.640,28.808 396.400,29.395 396.400 C 29.728 396.400,30.000 396.580,30.000 396.800 C 30.000 397.020,30.349 397.200,30.776 397.200 C 31.203 397.200,31.664 397.380,31.800 397.600 C 31.936 397.820,32.487 398.000,33.024 398.000 C 33.561 398.000,34.000 398.180,34.000 398.400 C 34.000 398.620,34.705 398.800,35.567 398.800 C 36.464 398.800,37.204 399.013,37.300 399.300 C 37.545 400.036,362.455 400.036,362.700 399.300 C 362.792 399.025,363.471 398.800,364.210 398.800 C 364.948 398.800,365.664 398.620,365.800 398.400 C 365.936 398.180,366.476 398.000,367.000 398.000 C 367.524 398.000,368.064 397.820,368.200 397.600 C 368.336 397.380,368.797 397.200,369.224 397.200 C 369.651 397.200,370.000 397.020,370.000 396.800 C 370.000 396.580,370.272 396.400,370.605 396.400 C 371.192 396.400,372.794 395.640,373.200 395.168 C 373.310 395.040,373.985 394.681,374.700 394.370 C 375.415 394.059,376.000 393.669,376.000 393.502 C 376.000 393.336,376.320 393.200,376.712 393.200 C 377.103 393.200,377.683 392.840,378.000 392.400 C 378.317 391.960,378.854 391.600,379.192 391.600 C 379.531 391.600,380.256 391.195,380.804 390.700 C 381.352 390.205,382.643 389.170,383.672 388.400 C 384.702 387.630,385.630 386.685,385.735 386.300 C 385.840 385.915,386.167 385.594,386.463 385.588 C 386.758 385.581,387.630 384.726,388.400 383.688 C 389.170 382.649,390.205 381.352,390.700 380.804 C 391.195 380.256,391.600 379.531,391.600 379.192 C 391.600 378.854,391.960 378.317,392.400 378.000 C 392.840 377.683,393.200 377.103,393.200 376.712 C 393.200 376.320,393.336 376.000,393.502 376.000 C 393.669 376.000,394.059 375.415,394.370 374.700 C 394.681 373.985,395.040 373.310,395.168 373.200 C 395.640 372.794,396.400 371.192,396.400 370.605 C 396.400 370.272,396.580 370.000,396.800 370.000 C 397.020 370.000,397.200 369.651,397.200 369.224 C 397.200 368.797,397.380 368.336,397.600 368.200 C 397.820 368.064,398.000 367.524,398.000 367.000 C 398.000 366.476,398.180 365.936,398.400 365.800 C 398.620 365.664,398.800 364.948,398.800 364.210 C 398.800 363.471,399.025 362.792,399.300 362.700 C 399.699 362.567,399.800 329.671,399.800 200.000 C 399.800 70.329,399.699 37.433,399.300 37.300 C 399.013 37.204,398.800 36.464,398.800 35.567 C 398.800 34.705,398.620 34.000,398.400 34.000 C 398.180 34.000,398.000 33.561,398.000 33.024 C 398.000 32.487,397.820 31.936,397.600 31.800 C 397.380 31.664,397.200 31.203,397.200 30.776 C 397.200 30.349,397.020 30.000,396.800 30.000 C 396.580 30.000,396.400 29.728,396.400 29.395 C 396.400 28.808,395.640 27.206,395.168 26.800 C 395.040 26.690,394.681 26.015,394.370 25.300 C 394.059 24.585,393.669 24.000,393.502 24.000 C 393.336 24.000,393.200 23.680,393.200 23.288 C 393.200 22.897,392.840 22.317,392.400 22.000 C 391.960 21.683,391.600 21.146,391.600 20.808 C 391.600 20.469,391.190 19.744,390.689 19.196 C 390.187 18.648,389.338 17.570,388.802 16.800 C 387.534 14.980,386.957 14.400,386.416 14.400 C 386.173 14.400,385.856 14.085,385.710 13.700 C 385.384 12.839,384.987 12.443,383.200 11.198 C 382.430 10.662,381.352 9.813,380.804 9.311 C 380.256 8.810,379.531 8.400,379.192 8.400 C 378.854 8.400,378.317 8.040,378.000 7.600 C 377.683 7.160,377.103 6.800,376.712 6.800 C 376.320 6.800,376.000 6.664,376.000 6.498 C 376.000 6.331,375.415 5.941,374.700 5.630 C 373.985 5.319,373.310 4.960,373.200 4.832 C 372.794 4.360,371.192 3.600,370.605 3.600 C 370.272 3.600,370.000 3.420,370.000 3.200 C 370.000 2.980,369.651 2.800,369.224 2.800 C 368.797 2.800,368.336 2.620,368.200 2.400 C 368.064 2.180,367.513 2.000,366.976 2.000 C 366.439 2.000,366.000 1.820,366.000 1.600 C 366.000 1.380,365.295 1.200,364.433 1.200 C 363.536 1.200,362.796 0.987,362.700 0.700 C 362.543 0.229,43.994 -0.174,38.900 0.291 M290.172 43.973 C 290.847 44.178,292.210 44.559,293.200 44.818 C 311.223 49.551,322.585 69.248,317.996 87.800 C 315.540 97.728,308.067 106.878,298.800 111.301 C 293.546 113.808,289.852 114.600,283.400 114.600 C 276.946 114.600,273.247 113.807,268.000 111.299 C 241.082 98.433,241.206 58.629,268.200 46.810 C 269.300 46.329,270.513 45.769,270.895 45.567 C 271.277 45.365,271.941 45.200,272.371 45.200 C 272.801 45.200,273.264 45.020,273.400 44.800 C 273.536 44.580,274.222 44.397,274.924 44.394 C 275.626 44.391,276.470 44.213,276.800 44.000 C 277.569 43.503,288.550 43.481,290.172 43.973 M197.080 49.054 C 204.309 49.280,205.601 49.414,205.836 49.960 C 206.055 50.469,206.596 76.339,206.950 103.200 L 207.000 107.000 193.800 107.264 C 186.540 107.410,179.430 107.718,178.000 107.949 C 172.988 108.759,172.391 108.891,172.173 109.244 C 172.052 109.440,171.648 109.597,171.276 109.594 C 170.002 109.582,166.269 111.800,164.337 113.717 C 160.530 117.494,159.365 122.016,159.240 133.500 L 159.200 137.200 238.767 137.200 C 282.529 137.200,318.619 137.309,318.967 137.443 C 319.541 137.663,319.600 145.330,319.600 220.243 L 319.600 302.800 332.551 302.800 C 342.988 302.800,345.590 302.906,345.954 303.344 C 346.282 303.740,346.378 311.057,346.303 330.044 L 346.200 356.200 282.600 356.200 L 219.000 356.200 218.897 330.044 C 218.822 311.057,218.918 303.740,219.246 303.344 C 219.611 302.905,222.243 302.800,232.849 302.800 L 246.000 302.800 246.000 247.200 L 246.000 191.600 202.634 191.600 L 159.268 191.600 159.049 194.500 C 158.018 208.116,158.021 269.507,159.053 296.700 L 159.284 302.800 174.219 302.800 C 185.727 302.800,189.227 302.915,189.476 303.300 C 189.741 303.710,190.337 330.360,190.551 351.400 L 190.600 356.200 123.718 356.301 L 56.837 356.402 56.518 354.901 C 55.888 351.930,56.171 303.590,56.821 303.178 C 57.141 302.976,63.395 302.809,70.800 302.805 L 84.200 302.799 84.346 247.199 L 84.493 191.600 69.895 191.600 C 58.695 191.600,55.206 191.484,54.903 191.100 C 54.474 190.557,53.805 164.024,53.802 147.400 L 53.800 137.400 69.056 137.295 L 84.312 137.191 84.513 124.095 C 84.715 110.871,84.940 108.516,86.600 102.200 C 88.156 96.279,90.917 89.631,93.275 86.128 C 93.894 85.208,94.400 84.359,94.400 84.240 C 94.400 82.975,102.919 73.458,107.200 69.941 C 112.322 65.733,121.790 60.141,127.400 58.011 C 129.645 57.158,132.385 56.016,133.295 55.553 C 133.677 55.359,134.341 55.200,134.771 55.200 C 135.201 55.200,135.651 55.041,135.771 54.846 C 135.892 54.651,136.487 54.401,137.095 54.289 C 137.703 54.178,139.460 53.701,141.000 53.230 C 147.256 51.316,159.532 49.428,169.600 48.830 C 175.633 48.472,179.483 48.503,197.080 49.054 "
              stroke="none" fill="#00b22d" fill-rule="evenodd"></path>
        <path id="path2"
              d="M177.500 49.095 C 178.655 49.176,180.545 49.176,181.700 49.095 C 182.855 49.014,181.910 48.948,179.600 48.948 C 177.290 48.948,176.345 49.014,177.500 49.095 M199.907 49.490 C 200.626 49.579,201.706 49.577,202.307 49.486 C 202.908 49.395,202.320 49.322,201.000 49.324 C 199.680 49.326,199.188 49.401,199.907 49.490 M205.734 59.600 C 205.734 61.250,205.805 61.925,205.891 61.100 C 205.978 60.275,205.978 58.925,205.891 58.100 C 205.805 57.275,205.734 57.950,205.734 59.600 M206.151 78.400 C 206.151 80.930,206.216 81.965,206.296 80.700 C 206.375 79.435,206.375 77.365,206.296 76.100 C 206.216 74.835,206.151 75.870,206.151 78.400 M308.400 103.800 C 307.428 104.790,306.723 105.600,306.833 105.600 C 306.943 105.600,307.828 104.790,308.800 103.800 C 309.772 102.810,310.477 102.000,310.367 102.000 C 310.257 102.000,309.372 102.810,308.400 103.800 M206.520 104.400 C 206.520 105.610,206.595 106.105,206.687 105.500 C 206.778 104.895,206.778 103.905,206.687 103.300 C 206.595 102.695,206.520 103.190,206.520 104.400 M184.300 107.082 C 184.795 107.178,185.605 107.178,186.100 107.082 C 186.595 106.987,186.190 106.909,185.200 106.909 C 184.210 106.909,183.805 106.987,184.300 107.082 M84.573 127.600 C 84.573 132.990,84.630 135.195,84.699 132.500 C 84.768 129.805,84.768 125.395,84.699 122.700 C 84.630 120.005,84.573 122.210,84.573 127.600 M54.131 155.800 C 54.133 157.340,54.205 157.921,54.292 157.091 C 54.379 156.261,54.377 155.001,54.289 154.291 C 54.200 153.581,54.129 154.260,54.131 155.800 M54.546 172.200 C 54.547 174.400,54.614 175.249,54.695 174.087 C 54.776 172.924,54.776 171.124,54.693 170.087 C 54.611 169.049,54.545 170.000,54.546 172.200 M84.400 220.720 L 84.600 250.200 84.703 221.023 C 84.759 204.975,84.669 191.709,84.503 191.543 C 84.336 191.376,84.290 204.506,84.400 220.720 M158.528 198.800 C 158.528 200.230,158.601 200.815,158.689 200.100 C 158.778 199.385,158.778 198.215,158.689 197.500 C 158.601 196.785,158.528 197.370,158.528 198.800 M158.109 211.200 C 158.109 212.190,158.187 212.595,158.282 212.100 C 158.378 211.605,158.378 210.795,158.282 210.300 C 158.187 209.805,158.109 210.210,158.109 211.200 M157.765 238.000 C 157.765 241.850,157.825 243.425,157.898 241.500 C 157.971 239.575,157.971 236.425,157.898 234.500 C 157.825 232.575,157.765 234.150,157.765 238.000 M158.124 269.400 C 158.126 270.720,158.201 271.212,158.290 270.493 C 158.379 269.774,158.377 268.694,158.286 268.093 C 158.195 267.492,158.122 268.080,158.124 269.400 M158.550 289.000 C 158.551 291.420,158.616 292.358,158.696 291.085 C 158.776 289.812,158.775 287.832,158.694 286.685 C 158.614 285.538,158.549 286.580,158.550 289.000 M164.700 303.489 C 165.415 303.578,166.585 303.578,167.300 303.489 C 168.015 303.401,167.430 303.328,166.000 303.328 C 164.570 303.328,163.985 303.401,164.700 303.489 M189.328 309.600 C 189.328 311.030,189.401 311.615,189.489 310.900 C 189.578 310.185,189.578 309.015,189.489 308.300 C 189.401 307.585,189.328 308.170,189.328 309.600 M56.573 332.800 C 56.573 338.190,56.630 340.395,56.699 337.700 C 56.768 335.005,56.768 330.595,56.699 327.900 C 56.630 325.205,56.573 327.410,56.573 332.800 M189.750 327.400 C 189.751 329.820,189.816 330.758,189.896 329.485 C 189.976 328.212,189.975 326.232,189.894 325.085 C 189.814 323.938,189.749 324.980,189.750 327.400 M190.124 351.400 C 190.126 352.720,190.201 353.212,190.290 352.493 C 190.379 351.774,190.377 350.694,190.286 350.093 C 190.195 349.492,190.122 350.080,190.124 351.400 M56.903 355.600 C 57.046 356.124,59.761 356.201,78.233 356.205 L 99.400 356.211 78.421 356.102 C 62.278 356.018,57.362 355.878,57.091 355.496 C 56.833 355.132,56.783 355.160,56.903 355.600 M315.300 356.299 C 318.325 356.367,323.275 356.367,326.300 356.299 C 329.325 356.231,326.850 356.175,320.800 356.175 C 314.750 356.175,312.275 356.231,315.300 356.299 M343.105 356.283 C 343.602 356.379,344.322 356.375,344.705 356.275 C 345.087 356.175,344.680 356.096,343.800 356.101 C 342.920 356.105,342.607 356.187,343.105 356.283 "
              stroke="none" fill="#949494" fill-rule="evenodd"></path>
        <path id="path3"
              d="M282.505 43.887 C 283.114 43.979,284.014 43.977,284.505 43.882 C 284.997 43.787,284.500 43.711,283.400 43.714 C 282.300 43.717,281.897 43.795,282.505 43.887 M276.800 44.400 C 275.443 44.686,275.437 44.695,276.600 44.707 C 277.260 44.715,278.250 44.576,278.800 44.400 C 280.112 43.980,278.796 43.980,276.800 44.400 M288.000 44.380 C 288.999 44.720,291.482 44.932,291.167 44.651 C 291.075 44.569,290.100 44.399,289.000 44.272 C 287.651 44.116,287.326 44.151,288.000 44.380 M294.400 45.717 C 294.707 46.049,298.800 47.614,298.800 47.400 C 298.800 47.194,296.713 46.275,295.165 45.798 C 294.634 45.634,294.290 45.598,294.400 45.717 M299.600 48.020 C 300.987 48.961,301.778 49.235,300.800 48.436 C 300.250 47.986,299.620 47.617,299.400 47.615 C 299.180 47.613,299.270 47.796,299.600 48.020 M263.869 49.637 C 262.842 50.318,261.889 51.056,261.752 51.277 C 261.550 51.604,265.388 49.134,265.967 48.564 C 266.486 48.053,265.497 48.559,263.869 49.637 M167.900 49.493 C 168.835 49.577,170.365 49.577,171.300 49.493 C 172.235 49.409,171.470 49.340,169.600 49.340 C 167.730 49.340,166.965 49.409,167.900 49.493 M190.118 49.498 C 191.833 49.573,194.533 49.572,196.118 49.497 C 197.703 49.421,196.300 49.359,193.000 49.360 C 189.700 49.361,188.403 49.422,190.118 49.498 M163.905 49.883 C 164.402 49.979,165.122 49.975,165.505 49.875 C 165.887 49.775,165.480 49.696,164.600 49.701 C 163.720 49.705,163.407 49.787,163.905 49.883 M202.289 49.887 L 205.177 50.035 205.307 55.317 L 205.438 60.600 205.419 55.200 L 205.400 49.800 202.400 49.770 L 199.400 49.739 202.289 49.887 M157.400 50.400 C 155.737 50.823,157.374 50.842,159.400 50.423 C 160.745 50.145,160.809 50.092,159.800 50.093 C 159.140 50.094,158.060 50.232,157.400 50.400 M304.600 51.057 C 308.204 54.542,310.795 56.763,308.800 54.659 C 307.590 53.382,306.060 51.963,305.400 51.504 C 304.740 51.046,304.380 50.845,304.600 51.057 M147.800 52.000 C 146.781 52.438,147.832 52.438,149.200 52.000 C 150.004 51.743,150.043 51.677,149.400 51.668 C 148.960 51.662,148.240 51.811,147.800 52.000 M258.411 54.189 C 257.000 55.613,255.925 56.833,256.022 56.899 C 256.120 56.966,257.356 55.801,258.769 54.310 C 262.036 50.862,261.791 50.779,258.411 54.189 M117.700 63.212 C 116.545 63.874,115.600 64.510,115.600 64.625 C 115.600 64.843,119.121 62.914,119.780 62.334 C 120.481 61.718,119.815 61.999,117.700 63.212 M205.759 68.000 C 205.759 71.190,205.821 72.495,205.897 70.900 C 205.973 69.305,205.973 66.695,205.897 65.100 C 205.821 63.505,205.759 64.810,205.759 68.000 M108.785 69.229 L 107.400 70.458 108.900 69.381 C 110.226 68.430,110.657 68.000,110.285 68.000 C 110.222 68.000,109.547 68.553,108.785 69.229 M317.458 71.200 C 317.775 72.925,318.002 73.251,317.994 71.967 C 317.991 71.435,317.811 70.730,317.594 70.400 C 317.318 69.978,317.277 70.215,317.458 71.200 M102.780 74.615 C 98.226 79.215,98.192 79.411,102.712 75.008 C 104.741 73.033,106.400 71.368,106.400 71.308 C 106.400 71.007,105.899 71.465,102.780 74.615 M248.493 74.000 C 248.493 74.770,248.575 75.085,248.676 74.700 C 248.776 74.315,248.776 73.685,248.676 73.300 C 248.575 72.915,248.493 73.230,248.493 74.000 M318.540 79.200 C 318.540 81.070,318.609 81.835,318.693 80.900 C 318.777 79.965,318.777 78.435,318.693 77.500 C 318.609 76.565,318.540 77.330,318.540 79.200 M248.128 79.200 C 248.128 80.630,248.201 81.215,248.289 80.500 C 248.378 79.785,248.378 78.615,248.289 77.900 C 248.201 77.185,248.128 77.770,248.128 79.200 M97.600 80.400 C 96.903 81.280,96.423 82.000,96.533 82.000 C 96.643 82.000,97.303 81.280,98.000 80.400 C 98.697 79.520,99.177 78.800,99.067 78.800 C 98.957 78.800,98.297 79.520,97.600 80.400 M206.000 94.592 L 206.000 106.385 197.100 106.500 L 188.200 106.616 197.300 106.708 L 206.400 106.800 206.400 94.800 C 206.400 88.200,206.310 82.800,206.200 82.800 C 206.090 82.800,206.000 88.107,206.000 94.592 M248.428 84.233 C 248.444 84.875,248.616 85.760,248.810 86.200 C 249.047 86.734,249.086 86.402,248.927 85.200 C 248.646 83.080,248.388 82.580,248.428 84.233 M317.450 86.850 C 317.117 88.517,317.440 88.840,317.800 87.200 C 317.952 86.509,317.993 85.859,317.891 85.758 C 317.789 85.656,317.591 86.147,317.450 86.850 M252.986 97.100 C 253.335 97.815,253.706 98.400,253.810 98.400 C 254.208 98.400,253.952 97.763,253.167 96.800 L 252.352 95.800 252.986 97.100 M254.975 100.132 C 255.591 100.939,256.176 101.600,256.275 101.600 C 256.553 101.600,254.821 99.260,254.309 98.944 C 254.059 98.789,254.359 99.324,254.975 100.132 M310.175 101.700 L 309.000 103.000 310.300 101.825 C 311.015 101.179,311.600 100.594,311.600 100.525 C 311.600 100.216,311.270 100.488,310.175 101.700 M87.000 102.000 C 86.850 102.473,86.817 102.950,86.927 103.060 C 87.037 103.170,87.250 102.873,87.400 102.400 C 87.550 101.927,87.583 101.450,87.473 101.340 C 87.363 101.230,87.150 101.527,87.000 102.000 M258.487 104.205 C 259.304 105.060,260.038 105.679,260.117 105.580 C 260.197 105.481,259.528 104.781,258.631 104.025 L 257.000 102.650 258.487 104.205 M86.229 105.429 C 86.081 106.015,86.038 106.572,86.132 106.666 C 86.227 106.760,86.424 106.358,86.571 105.771 C 86.719 105.185,86.762 104.628,86.668 104.534 C 86.573 104.440,86.376 104.842,86.229 105.429 M306.584 105.226 C 306.439 105.461,305.591 106.181,304.700 106.826 C 303.809 107.472,303.264 108.000,303.489 108.000 C 303.949 108.000,307.554 104.842,307.124 104.816 C 306.972 104.807,306.729 104.992,306.584 105.226 M260.800 106.125 C 260.800 106.224,261.461 106.809,262.268 107.425 C 263.076 108.041,263.611 108.341,263.456 108.091 C 263.140 107.579,260.800 105.847,260.800 106.125 M178.200 107.180 C 177.735 107.368,178.573 107.426,180.200 107.319 C 183.858 107.078,184.416 106.864,181.400 106.860 C 180.080 106.858,178.640 107.002,178.200 107.180 M174.000 108.006 C 173.578 108.282,173.815 108.323,174.800 108.142 C 176.525 107.825,176.851 107.598,175.567 107.606 C 175.035 107.609,174.330 107.789,174.000 108.006 M85.440 110.040 C 85.293 110.957,85.252 111.785,85.347 111.880 C 85.442 111.976,85.646 111.310,85.800 110.400 C 85.954 109.490,85.996 108.662,85.893 108.560 C 85.790 108.457,85.587 109.123,85.440 110.040 M163.781 113.300 L 162.200 115.000 163.900 113.419 C 165.481 111.948,165.784 111.600,165.481 111.600 C 165.416 111.600,164.651 112.365,163.781 113.300 M275.800 113.600 C 276.240 113.789,276.870 113.944,277.200 113.944 C 277.578 113.944,277.504 113.817,277.000 113.600 C 276.560 113.411,275.930 113.256,275.600 113.256 C 275.222 113.256,275.296 113.383,275.800 113.600 M289.600 113.600 C 288.796 113.857,288.757 113.923,289.400 113.932 C 289.840 113.938,290.560 113.789,291.000 113.600 C 292.019 113.162,290.968 113.162,289.600 113.600 M281.500 114.293 C 282.435 114.377,283.965 114.377,284.900 114.293 C 285.835 114.209,285.070 114.140,283.200 114.140 C 281.330 114.140,280.565 114.209,281.500 114.293 M84.797 126.200 L 84.600 137.400 69.300 137.505 C 60.885 137.562,54.000 137.742,54.000 137.905 C 54.000 138.490,84.273 138.035,84.765 137.442 C 85.078 137.065,85.180 133.593,85.103 125.951 L 84.993 115.000 84.797 126.200 M159.449 121.015 C 159.312 121.373,159.215 121.966,159.234 122.333 C 159.253 122.700,159.427 122.469,159.621 121.820 C 159.998 120.558,159.865 119.933,159.449 121.015 M158.653 125.636 C 158.514 126.331,158.431 129.353,158.470 132.350 L 158.539 137.800 158.797 131.200 C 159.070 124.207,159.055 123.625,158.653 125.636 M238.800 137.999 L 318.600 138.200 318.800 220.800 L 319.000 303.400 332.200 303.600 L 345.400 303.800 345.629 308.000 L 345.858 312.200 345.829 307.800 L 345.800 303.400 332.500 303.295 L 319.200 303.189 319.200 221.027 C 319.200 175.838,319.091 138.581,318.957 138.233 C 318.737 137.658,311.365 137.609,238.857 137.699 L 159.000 137.797 238.800 137.999 M54.306 155.000 C 54.415 162.260,54.570 168.275,54.652 168.367 C 54.894 168.639,54.720 154.277,54.403 147.800 C 54.222 144.127,54.185 146.919,54.306 155.000 M54.880 187.220 C 54.766 191.503,53.717 191.214,68.980 191.111 L 82.200 191.021 68.800 190.797 C 61.430 190.674,55.363 190.534,55.317 190.486 C 55.271 190.439,55.172 189.005,55.097 187.300 L 54.961 184.200 54.880 187.220 M158.566 191.345 C 158.451 191.644,158.422 192.949,158.503 194.245 L 158.649 196.600 158.724 193.904 L 158.800 191.208 177.900 191.100 L 197.000 190.992 177.887 190.896 C 162.063 190.817,158.739 190.894,158.566 191.345 M233.800 191.106 L 246.400 191.211 246.400 247.206 L 246.400 303.200 233.043 303.200 C 221.232 303.200,219.657 303.273,219.443 303.833 C 219.309 304.181,219.243 315.926,219.296 329.933 L 219.391 355.400 219.596 329.600 L 219.800 303.800 233.200 303.600 L 246.600 303.400 246.600 247.200 L 246.600 191.000 233.900 191.000 L 221.200 191.000 233.800 191.106 M84.800 220.520 L 85.000 249.800 85.103 220.823 C 85.159 204.885,85.069 191.709,84.903 191.543 C 84.736 191.376,84.690 204.416,84.800 220.520 M157.862 208.058 C 157.718 210.735,157.630 217.082,157.667 222.163 C 157.730 230.986,157.746 230.773,158.023 217.400 C 158.183 209.700,158.270 203.353,158.218 203.295 C 158.166 203.237,158.006 205.381,157.862 208.058 M157.647 257.633 C 157.673 264.765,157.816 273.030,157.965 276.000 C 158.113 278.970,158.157 273.210,158.063 263.200 C 157.969 253.190,157.826 244.925,157.746 244.833 C 157.666 244.742,157.621 250.502,157.647 257.633 M84.588 275.400 C 84.588 289.480,84.639 295.182,84.700 288.071 C 84.761 280.960,84.761 269.440,84.700 262.471 C 84.638 255.502,84.588 261.320,84.588 275.400 M158.487 298.076 C 158.424 301.779,158.535 303.240,158.900 303.476 C 159.175 303.654,166.008 303.744,174.085 303.675 L 188.769 303.551 188.907 307.075 L 189.045 310.600 189.022 307.000 L 189.000 303.400 176.400 303.358 C 169.470 303.336,162.680 303.291,161.312 303.258 L 158.824 303.200 158.699 298.100 L 158.574 293.000 158.487 298.076 M84.767 302.000 L 84.600 303.000 70.800 303.200 L 57.000 303.400 56.996 329.200 L 56.991 355.000 57.099 329.300 L 57.206 303.600 70.754 303.600 C 85.136 303.600,85.522 303.549,85.100 301.719 C 84.974 301.172,84.895 301.239,84.767 302.000 M189.358 317.400 C 189.358 320.480,189.421 321.687,189.497 320.082 C 189.573 318.478,189.573 315.958,189.496 314.482 C 189.419 313.007,189.357 314.320,189.358 317.400 M345.511 343.200 C 345.450 350.240,345.535 356.000,345.700 356.000 C 345.865 356.000,346.000 350.240,346.000 343.200 C 346.000 336.160,345.915 330.400,345.811 330.400 C 345.707 330.400,345.572 336.160,345.511 343.200 M189.775 342.200 C 189.775 348.140,189.831 350.626,189.899 347.724 C 189.967 344.822,189.967 339.962,189.899 336.924 C 189.831 333.886,189.775 336.260,189.775 342.200 M189.932 354.466 L 189.800 355.400 145.200 355.603 L 100.600 355.805 145.292 355.903 L 189.985 356.000 190.240 354.981 C 190.381 354.421,190.399 353.866,190.280 353.747 C 190.162 353.628,190.005 353.952,189.932 354.466 M241.931 355.900 C 254.323 355.959,274.483 355.959,286.731 355.900 C 298.979 355.841,288.840 355.793,264.200 355.793 C 239.560 355.793,229.539 355.841,241.931 355.900 M334.082 356.296 C 335.558 356.373,338.078 356.373,339.682 356.297 C 341.287 356.221,340.080 356.158,337.000 356.158 C 333.920 356.157,332.607 356.219,334.082 356.296 "
              stroke="none" fill="#a4a4a4" fill-rule="evenodd"></path>
        <path id="path4"
              d="M276.800 44.021 C 276.370 44.314,276.654 44.354,277.800 44.162 C 279.784 43.830,280.104 43.598,278.567 43.606 C 277.925 43.609,277.130 43.796,276.800 44.021 M287.233 43.747 C 287.325 43.828,288.120 44.014,289.000 44.162 C 290.146 44.354,290.430 44.314,290.000 44.021 C 289.460 43.653,286.832 43.393,287.233 43.747 M266.700 47.429 C 265.149 48.270,265.325 48.561,266.900 47.759 C 268.408 46.993,268.675 46.794,268.167 46.816 C 267.965 46.825,267.305 47.101,266.700 47.429 M171.600 48.768 C 169.218 48.899,173.517 49.029,181.533 49.066 C 189.306 49.103,195.606 49.082,195.533 49.020 C 195.230 48.762,175.473 48.554,171.600 48.768 M263.493 49.414 C 262.672 49.972,262.000 50.515,262.000 50.620 C 262.000 50.725,262.720 50.335,263.600 49.753 C 264.997 48.828,265.470 48.400,265.093 48.400 C 265.034 48.400,264.314 48.856,263.493 49.414 M301.600 48.533 C 301.600 48.621,302.365 49.197,303.300 49.813 C 307.512 52.587,312.182 57.895,314.880 62.977 C 316.640 66.292,316.928 66.222,315.243 62.889 C 313.987 60.403,311.291 56.637,309.150 54.374 C 306.914 52.013,301.600 47.901,301.600 48.533 M160.400 49.600 C 158.763 49.854,158.727 49.883,160.000 49.910 C 160.770 49.927,162.210 49.797,163.200 49.620 C 165.597 49.194,163.128 49.176,160.400 49.600 M203.700 49.476 C 204.085 49.576,204.715 49.576,205.100 49.476 C 205.485 49.375,205.170 49.293,204.400 49.293 C 203.630 49.293,203.315 49.375,203.700 49.476 M205.927 61.800 C 206.027 68.400,206.175 73.875,206.255 73.967 C 206.514 74.264,206.309 55.487,206.022 52.600 C 205.869 51.060,205.826 55.200,205.927 61.800 M153.700 50.676 C 154.085 50.776,154.715 50.776,155.100 50.676 C 155.485 50.575,155.170 50.493,154.400 50.493 C 153.630 50.493,153.315 50.575,153.700 50.676 M149.600 51.200 C 148.243 51.486,148.237 51.495,149.400 51.507 C 150.060 51.515,151.050 51.376,151.600 51.200 C 152.912 50.780,151.596 50.780,149.600 51.200 M260.254 51.833 C 259.623 52.387,259.187 52.920,259.283 53.016 C 259.379 53.113,259.974 52.654,260.604 51.996 C 261.996 50.543,261.816 50.459,260.254 51.833 M143.000 52.611 C 140.870 53.313,142.070 53.312,144.600 52.609 C 145.703 52.303,146.152 52.061,145.600 52.069 C 145.050 52.077,143.880 52.321,143.000 52.611 M256.026 56.122 L 255.051 57.400 256.326 56.225 C 257.651 55.003,257.803 54.785,257.300 54.822 C 257.135 54.834,256.562 55.419,256.026 56.122 M252.200 61.600 C 251.859 62.260,251.669 62.800,251.779 62.800 C 251.889 62.800,252.259 62.260,252.600 61.600 C 252.941 60.940,253.131 60.400,253.021 60.400 C 252.911 60.400,252.541 60.940,252.200 61.600 M108.967 68.629 L 107.400 70.058 109.100 68.762 C 110.653 67.578,111.032 67.200,110.667 67.200 C 110.593 67.200,109.828 67.843,108.967 68.629 M248.629 70.629 C 248.481 71.215,248.438 71.772,248.532 71.866 C 248.627 71.960,248.824 71.558,248.971 70.971 C 249.119 70.385,249.162 69.828,249.068 69.734 C 248.973 69.640,248.776 70.042,248.629 70.629 M105.854 71.033 C 105.223 71.587,104.787 72.120,104.883 72.216 C 104.979 72.313,105.574 71.854,106.204 71.196 C 107.596 69.743,107.416 69.659,105.854 71.033 M318.262 73.000 C 318.396 73.880,318.572 74.675,318.653 74.767 C 318.956 75.110,318.729 72.968,318.381 72.200 C 318.129 71.642,318.093 71.885,318.262 73.000 M102.400 74.200 C 101.428 75.190,100.723 76.000,100.833 76.000 C 100.943 76.000,101.828 75.190,102.800 74.200 C 103.772 73.210,104.477 72.400,104.367 72.400 C 104.257 72.400,103.372 73.210,102.400 74.200 M247.857 74.700 C 247.550 76.556,247.606 82.189,247.947 83.774 C 248.086 84.419,248.200 82.304,248.200 79.074 C 248.200 72.550,248.204 72.600,247.857 74.700 M99.798 76.965 C 99.579 77.276,98.800 78.266,98.066 79.165 C 96.113 81.560,96.737 81.160,98.947 78.600 C 99.991 77.390,100.700 76.400,100.521 76.400 C 100.342 76.400,100.017 76.654,99.798 76.965 M94.998 83.202 C 94.598 83.644,94.366 84.099,94.482 84.215 C 94.597 84.330,94.990 83.969,95.355 83.412 C 96.152 82.196,95.993 82.102,94.998 83.202 M318.222 85.022 C 318.072 85.825,318.028 86.562,318.126 86.660 C 318.224 86.757,318.427 86.181,318.578 85.378 C 318.728 84.575,318.772 83.838,318.674 83.740 C 318.576 83.643,318.373 84.219,318.222 85.022 M92.614 87.035 C 92.241 87.604,92.027 88.161,92.139 88.272 C 92.250 88.383,92.629 87.918,92.981 87.237 C 93.759 85.733,93.544 85.615,92.614 87.035 M248.434 86.800 C 248.446 87.130,248.611 87.760,248.800 88.200 L 249.144 89.000 249.166 88.200 C 249.178 87.760,249.013 87.130,248.800 86.800 C 248.455 86.267,248.415 86.267,248.434 86.800 M317.429 88.629 C 317.281 89.215,317.238 89.772,317.332 89.866 C 317.427 89.960,317.624 89.558,317.771 88.971 C 317.919 88.385,317.962 87.828,317.868 87.734 C 317.773 87.640,317.576 88.042,317.429 88.629 M316.267 92.067 C 315.905 92.988,315.674 93.807,315.754 93.888 C 315.834 93.968,316.200 93.283,316.567 92.367 C 316.933 91.450,317.164 90.631,317.079 90.546 C 316.994 90.461,316.629 91.145,316.267 92.067 M206.533 98.800 L 206.600 106.600 196.600 106.811 L 186.600 107.021 196.713 107.111 C 205.128 107.185,206.862 107.105,207.043 106.633 C 207.162 106.321,207.082 102.676,206.863 98.533 L 206.467 91.000 206.533 98.800 M252.059 96.235 C 252.329 97.068,255.402 101.593,255.699 101.597 C 255.864 101.598,255.398 100.745,254.663 99.700 C 253.929 98.655,253.010 97.350,252.622 96.800 C 252.234 96.250,251.981 95.996,252.059 96.235 M87.240 99.840 C 87.010 100.673,86.894 101.427,86.982 101.515 C 87.070 101.603,87.330 100.993,87.560 100.160 C 87.790 99.327,87.906 98.573,87.818 98.485 C 87.730 98.397,87.470 99.007,87.240 99.840 M257.583 103.700 C 259.241 105.466,259.600 105.784,259.600 105.483 C 259.600 105.419,258.745 104.564,257.700 103.583 L 255.800 101.800 257.583 103.700 M308.277 104.253 C 307.219 105.262,306.420 106.154,306.501 106.234 C 306.582 106.315,307.531 105.486,308.609 104.391 C 311.068 101.895,310.846 101.803,308.277 104.253 M85.856 104.884 C 85.721 105.388,85.628 106.250,85.649 106.800 C 85.672 107.389,85.831 107.071,86.036 106.025 C 86.403 104.152,86.273 103.327,85.856 104.884 M178.400 107.600 L 177.000 107.895 178.400 107.907 C 179.170 107.915,180.250 107.776,180.800 107.600 L 181.800 107.280 180.800 107.293 C 180.250 107.300,179.170 107.438,178.400 107.600 M174.000 108.400 C 173.176 108.664,173.141 108.726,173.800 108.754 C 174.240 108.773,174.870 108.613,175.200 108.400 C 175.901 107.947,175.414 107.947,174.000 108.400 M301.400 109.600 C 300.740 110.037,300.380 110.392,300.600 110.388 C 301.001 110.382,303.176 108.823,302.800 108.812 C 302.690 108.808,302.060 109.163,301.400 109.600 M84.920 112.000 C 84.920 113.210,84.995 113.705,85.087 113.100 C 85.178 112.495,85.178 111.505,85.087 110.900 C 84.995 110.295,84.920 110.790,84.920 112.000 M166.276 111.632 C 165.253 112.310,163.837 113.615,163.130 114.532 C 161.953 116.060,162.014 116.027,163.858 114.144 C 164.965 113.012,166.440 111.793,167.136 111.433 C 167.831 111.074,168.400 110.694,168.400 110.590 C 168.400 110.263,168.186 110.367,166.276 111.632 M296.400 112.000 C 295.410 112.415,294.803 112.765,295.051 112.778 C 295.618 112.806,298.400 111.657,298.400 111.395 C 298.400 111.148,298.512 111.114,296.400 112.000 M292.800 113.200 C 291.976 113.464,291.941 113.526,292.600 113.554 C 293.040 113.573,293.670 113.413,294.000 113.200 C 294.701 112.747,294.214 112.747,292.800 113.200 M277.105 114.283 C 277.602 114.379,278.322 114.375,278.705 114.275 C 279.087 114.175,278.680 114.096,277.800 114.101 C 276.920 114.105,276.607 114.187,277.105 114.283 M288.305 114.283 C 288.802 114.379,289.522 114.375,289.905 114.275 C 290.287 114.175,289.880 114.096,289.000 114.101 C 288.120 114.105,287.807 114.187,288.305 114.283 M84.514 116.200 C 84.517 117.300,84.595 117.703,84.687 117.095 C 84.779 116.486,84.777 115.586,84.682 115.095 C 84.587 114.603,84.511 115.100,84.514 116.200 M281.513 114.695 C 282.676 114.776,284.476 114.776,285.513 114.693 C 286.551 114.611,285.600 114.545,283.400 114.546 C 281.200 114.547,280.351 114.614,281.513 114.695 M160.046 120.467 C 160.021 120.834,159.896 121.464,159.770 121.867 C 159.552 122.562,159.563 122.563,159.997 121.887 C 160.248 121.496,160.373 120.866,160.273 120.487 C 160.111 119.868,160.088 119.866,160.046 120.467 M159.007 128.100 C 158.858 130.575,158.795 133.680,158.868 135.000 L 159.000 137.400 239.000 137.600 L 319.000 137.800 319.200 220.400 L 319.400 303.000 332.600 303.200 L 345.800 303.400 345.903 329.575 C 345.984 350.234,345.900 355.824,345.503 356.105 C 345.128 356.370,345.153 356.419,345.600 356.297 C 346.380 356.084,346.726 304.275,345.954 303.344 C 345.590 302.906,342.988 302.800,332.551 302.800 L 319.600 302.800 319.600 220.243 C 319.600 145.330,319.541 137.663,318.967 137.443 C 318.619 137.309,282.502 137.200,238.706 137.200 L 159.078 137.200 159.354 130.400 C 159.664 122.766,159.425 121.182,159.007 128.100 M53.780 137.708 C 53.673 137.987,53.637 142.532,53.700 147.808 L 53.815 157.400 53.908 147.505 L 54.000 137.610 69.300 137.500 L 84.600 137.390 69.287 137.295 C 57.209 137.220,53.934 137.307,53.780 137.708 M54.160 164.200 C 54.161 167.500,54.222 168.797,54.298 167.082 C 54.373 165.367,54.372 162.667,54.297 161.082 C 54.221 159.497,54.159 160.900,54.160 164.200 M54.487 183.220 C 54.424 188.559,54.535 190.775,54.880 191.120 C 55.239 191.479,58.992 191.577,69.780 191.508 L 84.200 191.415 69.600 191.208 L 55.000 191.000 54.787 183.400 L 54.573 175.800 54.487 183.220 M158.958 191.764 C 158.838 192.077,158.817 192.843,158.910 193.466 C 159.053 194.420,159.090 194.361,159.140 193.100 L 159.200 191.600 202.600 191.600 L 246.000 191.600 246.000 247.200 L 246.000 302.800 232.849 302.800 C 222.243 302.800,219.611 302.905,219.246 303.344 C 218.918 303.740,218.822 311.057,218.897 330.044 L 219.000 356.200 264.600 356.203 L 310.200 356.207 264.800 356.003 L 219.400 355.800 219.400 329.600 L 219.400 303.400 232.800 303.200 L 246.200 303.000 246.200 247.200 L 246.200 191.400 202.688 191.298 C 165.403 191.211,159.145 191.278,158.958 191.764 M158.265 211.532 C 158.081 217.324,158.016 222.149,158.120 222.254 C 158.382 222.515,158.898 206.809,158.733 203.600 C 158.660 202.170,158.449 205.739,158.265 211.532 M84.189 275.200 C 84.189 289.830,84.239 295.815,84.300 288.500 C 84.361 281.185,84.361 269.215,84.300 261.900 C 84.239 254.585,84.189 260.570,84.189 275.200 M158.309 269.800 C 158.418 277.940,158.572 284.675,158.653 284.767 C 158.903 285.050,158.716 266.928,158.406 260.800 C 158.237 257.462,158.196 261.282,158.309 269.800 M158.973 299.899 L 159.000 303.000 174.100 303.105 L 189.200 303.210 189.253 304.105 C 189.281 304.597,189.435 309.140,189.595 314.200 L 189.885 323.400 189.842 313.600 C 189.819 308.210,189.654 303.575,189.476 303.300 C 189.227 302.915,185.722 302.800,174.193 302.800 L 159.234 302.800 159.090 299.799 L 158.946 296.797 158.973 299.899 M63.900 303.099 C 67.695 303.165,73.905 303.165,77.700 303.099 C 81.495 303.034,78.390 302.980,70.800 302.980 C 63.210 302.980,60.105 303.034,63.900 303.099 M56.265 313.700 C 55.960 325.868,55.996 340.809,56.352 349.400 C 56.488 352.700,56.625 343.655,56.656 329.300 C 56.687 314.945,56.671 303.200,56.621 303.200 C 56.570 303.200,56.410 307.925,56.265 313.700 M190.131 347.200 L 190.200 355.800 144.600 356.003 L 99.000 356.207 144.800 356.203 L 190.600 356.200 190.703 353.200 C 190.759 351.550,190.638 347.590,190.433 344.400 L 190.061 338.600 190.131 347.200 "
              stroke="none" fill="#757575" fill-rule="evenodd"></path>
    </g>
</svg>