<svg id="svg" version="1.1" xmlns="http://www.w3.org/2000/svg" xmlns:xlink="http://www.w3.org/1999/xlink" width="400" height="400" viewBox="0, 0, 400,400"><g id="svgg"><path id="path0" d="M252.000 83.447 C 233.354 87.047,225.920 109.902,239.000 123.418 C 250.748 135.557,270.719 132.157,277.869 116.800 C 285.779 99.812,270.339 79.906,252.000 83.447 M168.600 87.411 C 162.964 87.944,161.066 88.218,158.600 88.854 C 157.720 89.080,156.280 89.452,155.400 89.679 C 154.520 89.906,153.440 90.233,153.000 90.405 C 152.560 90.578,151.570 90.940,150.800 91.209 C 136.995 96.035,124.788 107.758,120.611 120.200 C 119.250 124.255,119.066 126.038,118.835 137.400 L 118.600 149.000 108.200 149.200 L 97.800 149.400 97.800 166.800 L 97.800 184.200 108.200 184.400 L 118.600 184.600 118.702 224.575 C 118.783 256.291,118.700 264.616,118.302 264.869 C 118.026 265.044,113.255 265.191,107.700 265.194 L 97.600 265.200 97.600 283.200 L 97.600 301.200 143.000 301.200 L 188.400 301.200 188.400 283.207 L 188.400 265.213 177.900 265.107 L 167.400 265.000 167.400 224.800 L 167.400 184.600 199.600 184.600 L 231.800 184.600 231.800 224.800 L 231.800 265.000 221.500 265.107 L 211.200 265.214 211.200 283.207 L 211.200 301.200 256.800 301.200 L 302.400 301.200 302.394 283.700 C 302.391 274.075,302.247 265.978,302.074 265.707 C 301.842 265.341,299.033 265.186,291.181 265.107 L 280.600 265.000 280.400 207.200 L 280.200 149.400 223.667 149.299 L 167.134 149.197 167.267 142.299 C 167.546 127.807,172.492 124.044,191.300 124.014 L 200.400 124.000 200.400 105.400 L 200.400 86.800 187.100 86.859 C 179.785 86.892,171.460 87.140,168.600 87.411 " stroke="none" fill="#fbfbfb" fill-rule="evenodd"></path><path id="path1" d="M178.700 0.273 C 176.555 0.359,174.800 0.602,174.800 0.814 C 174.800 1.027,173.551 1.200,172.024 1.200 C 170.497 1.200,169.136 1.380,169.000 1.600 C 168.864 1.820,167.773 2.000,166.576 2.000 C 165.379 2.000,164.400 2.180,164.400 2.400 C 164.400 2.620,163.410 2.800,162.200 2.800 C 160.990 2.800,160.000 2.980,160.000 3.200 C 160.000 3.420,159.291 3.600,158.424 3.600 C 157.557 3.600,156.736 3.780,156.600 4.000 C 156.464 4.220,155.553 4.400,154.576 4.400 C 153.599 4.400,152.800 4.580,152.800 4.800 C 152.800 5.020,152.080 5.200,151.200 5.200 C 150.320 5.200,149.600 5.380,149.600 5.600 C 149.600 5.820,148.959 6.000,148.176 6.000 C 147.329 6.000,146.853 6.162,147.000 6.400 C 147.149 6.641,146.615 6.800,145.657 6.800 C 144.782 6.800,144.007 6.974,143.933 7.187 C 143.860 7.400,143.215 7.619,142.500 7.672 C 141.785 7.726,141.200 7.912,141.200 8.085 C 141.200 8.258,140.753 8.400,140.206 8.400 C 139.350 8.400,132.162 10.584,129.800 11.562 C 127.245 12.620,126.531 12.928,125.905 13.247 C 125.523 13.441,124.938 13.600,124.605 13.600 C 124.272 13.600,124.000 13.780,124.000 14.000 C 124.000 14.220,123.561 14.400,123.024 14.400 C 122.487 14.400,121.936 14.580,121.800 14.800 C 121.664 15.020,121.203 15.200,120.776 15.200 C 120.349 15.200,120.000 15.380,120.000 15.600 C 120.000 15.820,119.640 16.000,119.200 16.000 C 118.760 16.000,118.400 16.180,118.400 16.400 C 118.400 16.620,118.051 16.800,117.624 16.800 C 117.197 16.800,116.736 16.980,116.600 17.200 C 116.464 17.420,115.993 17.600,115.553 17.600 C 115.113 17.600,114.864 17.780,115.000 18.000 C 115.144 18.233,114.737 18.400,114.024 18.400 C 113.351 18.400,112.800 18.546,112.800 18.725 C 112.800 18.904,112.170 19.298,111.400 19.600 C 110.630 19.902,110.000 20.296,110.000 20.475 C 110.000 20.654,109.640 20.800,109.200 20.800 C 108.760 20.800,108.400 20.980,108.400 21.200 C 108.400 21.420,108.040 21.600,107.600 21.600 C 107.160 21.600,106.800 21.780,106.800 22.000 C 106.800 22.220,106.440 22.400,106.000 22.400 C 105.560 22.400,105.200 22.580,105.200 22.800 C 105.200 23.020,104.880 23.200,104.488 23.200 C 104.097 23.200,103.517 23.560,103.200 24.000 C 102.883 24.440,102.372 24.800,102.066 24.800 C 101.415 24.800,97.463 26.859,97.267 27.300 C 97.193 27.465,96.956 27.600,96.739 27.600 C 96.522 27.600,95.559 28.140,94.600 28.800 C 93.641 29.460,92.703 30.000,92.516 30.000 C 92.329 30.000,91.917 30.360,91.600 30.800 C 91.283 31.240,90.703 31.600,90.312 31.600 C 89.920 31.600,89.600 31.750,89.600 31.932 C 89.600 32.115,89.105 32.519,88.500 32.830 C 87.895 33.140,87.109 33.711,86.753 34.097 C 86.397 34.484,85.852 34.800,85.541 34.800 C 85.231 34.800,84.717 35.160,84.400 35.600 C 84.083 36.040,83.620 36.400,83.371 36.400 C 83.122 36.400,82.354 36.940,81.663 37.600 C 80.972 38.260,80.208 38.800,79.964 38.800 C 79.720 38.800,79.017 39.340,78.400 40.000 C 77.783 40.660,77.164 41.200,77.023 41.200 C 76.740 41.200,76.063 41.731,74.599 43.100 C 74.070 43.595,73.466 44.000,73.259 44.000 C 73.051 44.000,72.005 44.857,70.935 45.905 C 69.865 46.953,68.371 48.251,67.616 48.788 C 65.830 50.060,50.060 65.830,48.788 67.616 C 48.251 68.371,46.953 69.865,45.905 70.935 C 44.857 72.005,44.000 73.051,44.000 73.259 C 44.000 73.466,43.595 74.070,43.100 74.599 C 41.731 76.063,41.200 76.740,41.200 77.023 C 41.200 77.164,40.660 77.783,40.000 78.400 C 39.340 79.017,38.800 79.720,38.800 79.964 C 38.800 80.208,38.260 80.972,37.600 81.663 C 36.940 82.354,36.400 83.122,36.400 83.371 C 36.400 83.620,36.040 84.083,35.600 84.400 C 35.160 84.717,34.800 85.231,34.800 85.541 C 34.800 85.852,34.484 86.397,34.097 86.753 C 33.711 87.109,33.140 87.895,32.830 88.500 C 32.519 89.105,32.115 89.600,31.932 89.600 C 31.750 89.600,31.600 89.920,31.600 90.312 C 31.600 90.703,31.240 91.283,30.800 91.600 C 30.360 91.917,30.000 92.329,30.000 92.516 C 30.000 92.703,29.460 93.641,28.800 94.600 C 28.140 95.559,27.600 96.522,27.600 96.739 C 27.600 96.956,27.465 97.193,27.300 97.267 C 26.859 97.463,24.800 101.415,24.800 102.066 C 24.800 102.372,24.440 102.883,24.000 103.200 C 23.560 103.517,23.200 104.097,23.200 104.488 C 23.200 104.880,23.020 105.200,22.800 105.200 C 22.580 105.200,22.400 105.560,22.400 106.000 C 22.400 106.440,22.220 106.800,22.000 106.800 C 21.780 106.800,21.600 107.160,21.600 107.600 C 21.600 108.040,21.420 108.400,21.200 108.400 C 20.980 108.400,20.800 108.745,20.800 109.167 C 20.800 109.588,20.665 109.993,20.500 110.067 C 19.994 110.292,18.400 113.627,18.400 114.461 C 18.400 114.894,18.220 115.136,18.000 115.000 C 17.780 114.864,17.600 115.113,17.600 115.553 C 17.600 115.993,17.420 116.464,17.200 116.600 C 16.980 116.736,16.800 117.197,16.800 117.624 C 16.800 118.051,16.620 118.400,16.400 118.400 C 16.180 118.400,16.000 118.760,16.000 119.200 C 16.000 119.640,15.820 120.000,15.600 120.000 C 15.380 120.000,15.200 120.349,15.200 120.776 C 15.200 121.203,15.020 121.664,14.800 121.800 C 14.580 121.936,14.400 122.487,14.400 123.024 C 14.400 123.561,14.220 124.000,14.000 124.000 C 13.780 124.000,13.600 124.272,13.600 124.605 C 13.600 124.938,13.441 125.523,13.247 125.905 C 13.052 126.287,12.716 127.050,12.500 127.600 C 12.284 128.150,11.910 129.050,11.669 129.600 C 10.701 131.808,8.400 139.274,8.400 140.206 C 8.400 140.753,8.258 141.200,8.085 141.200 C 7.912 141.200,7.726 141.785,7.672 142.500 C 7.619 143.215,7.400 143.860,7.187 143.933 C 6.974 144.007,6.800 144.581,6.800 145.210 C 6.800 145.838,6.620 146.464,6.400 146.600 C 6.180 146.736,6.000 147.467,6.000 148.224 C 6.000 148.981,5.820 149.600,5.600 149.600 C 5.380 149.600,5.200 150.320,5.200 151.200 C 5.200 152.080,5.020 152.800,4.800 152.800 C 4.580 152.800,4.400 153.599,4.400 154.576 C 4.400 155.553,4.220 156.464,4.000 156.600 C 3.780 156.736,3.600 157.557,3.600 158.424 C 3.600 159.291,3.420 160.000,3.200 160.000 C 2.980 160.000,2.800 160.990,2.800 162.200 C 2.800 163.410,2.620 164.400,2.400 164.400 C 2.180 164.400,2.000 165.379,2.000 166.576 C 2.000 167.773,1.820 168.864,1.600 169.000 C 1.380 169.136,1.200 170.482,1.200 171.990 C 1.200 173.829,1.035 174.788,0.700 174.900 C -0.032 175.144,-0.032 224.856,0.700 225.100 C 1.035 225.212,1.200 226.171,1.200 228.010 C 1.200 229.518,1.380 230.864,1.600 231.000 C 1.820 231.136,2.000 232.227,2.000 233.424 C 2.000 234.621,2.180 235.600,2.400 235.600 C 2.620 235.600,2.800 236.590,2.800 237.800 C 2.800 239.010,2.980 240.000,3.200 240.000 C 3.420 240.000,3.600 240.709,3.600 241.576 C 3.600 242.443,3.780 243.264,4.000 243.400 C 4.220 243.536,4.400 244.447,4.400 245.424 C 4.400 246.401,4.580 247.200,4.800 247.200 C 5.020 247.200,5.200 247.920,5.200 248.800 C 5.200 249.680,5.380 250.400,5.600 250.400 C 5.820 250.400,6.000 251.041,6.000 251.824 C 6.000 252.671,6.162 253.147,6.400 253.000 C 6.641 252.851,6.800 253.385,6.800 254.343 C 6.800 255.218,6.974 255.993,7.187 256.067 C 7.400 256.140,7.619 256.785,7.672 257.500 C 7.726 258.215,7.912 258.800,8.085 258.800 C 8.258 258.800,8.400 259.247,8.400 259.794 C 8.400 260.650,10.584 267.838,11.562 270.200 C 12.620 272.755,12.928 273.469,13.247 274.095 C 13.441 274.477,13.600 275.062,13.600 275.395 C 13.600 275.728,13.780 276.000,14.000 276.000 C 14.220 276.000,14.400 276.439,14.400 276.976 C 14.400 277.513,14.580 278.064,14.800 278.200 C 15.020 278.336,15.200 278.797,15.200 279.224 C 15.200 279.651,15.380 280.000,15.600 280.000 C 15.820 280.000,16.000 280.360,16.000 280.800 C 16.000 281.240,16.180 281.600,16.400 281.600 C 16.620 281.600,16.800 281.949,16.800 282.376 C 16.800 282.803,16.980 283.264,17.200 283.400 C 17.420 283.536,17.600 284.007,17.600 284.447 C 17.600 284.887,17.780 285.136,18.000 285.000 C 18.220 284.864,18.400 285.106,18.400 285.539 C 18.400 286.373,19.994 289.708,20.500 289.933 C 20.665 290.007,20.800 290.412,20.800 290.833 C 20.800 291.255,20.980 291.600,21.200 291.600 C 21.420 291.600,21.600 291.960,21.600 292.400 C 21.600 292.840,21.780 293.200,22.000 293.200 C 22.220 293.200,22.400 293.560,22.400 294.000 C 22.400 294.440,22.580 294.800,22.800 294.800 C 23.020 294.800,23.200 295.120,23.200 295.512 C 23.200 295.903,23.560 296.483,24.000 296.800 C 24.440 297.117,24.800 297.628,24.800 297.934 C 24.800 298.585,26.859 302.537,27.300 302.733 C 27.465 302.807,27.600 303.044,27.600 303.261 C 27.600 303.478,28.140 304.441,28.800 305.400 C 29.460 306.359,30.000 307.297,30.000 307.484 C 30.000 307.671,30.360 308.083,30.800 308.400 C 31.240 308.717,31.600 309.297,31.600 309.688 C 31.600 310.080,31.750 310.400,31.932 310.400 C 32.115 310.400,32.519 310.895,32.830 311.500 C 33.140 312.105,33.711 312.891,34.097 313.247 C 34.484 313.603,34.800 314.148,34.800 314.459 C 34.800 314.769,35.160 315.283,35.600 315.600 C 36.040 315.917,36.400 316.380,36.400 316.629 C 36.400 316.878,36.940 317.646,37.600 318.337 C 38.260 319.028,38.800 319.792,38.800 320.036 C 38.800 320.280,39.340 320.983,40.000 321.600 C 40.660 322.217,41.200 322.836,41.200 322.977 C 41.200 323.260,41.731 323.937,43.100 325.401 C 43.595 325.930,44.000 326.534,44.000 326.741 C 44.000 326.949,44.857 327.995,45.905 329.065 C 46.953 330.135,48.251 331.629,48.788 332.384 C 50.060 334.170,65.830 349.940,67.616 351.212 C 68.371 351.749,69.865 353.047,70.935 354.095 C 72.005 355.143,73.051 356.000,73.259 356.000 C 73.466 356.000,74.070 356.405,74.599 356.900 C 76.063 358.269,76.740 358.800,77.023 358.800 C 77.164 358.800,77.783 359.340,78.400 360.000 C 79.017 360.660,79.720 361.200,79.964 361.200 C 80.208 361.200,80.972 361.740,81.663 362.400 C 82.354 363.060,83.122 363.600,83.371 363.600 C 83.620 363.600,84.083 363.960,84.400 364.400 C 84.717 364.840,85.231 365.200,85.541 365.200 C 85.852 365.200,86.397 365.516,86.753 365.903 C 87.109 366.289,87.895 366.860,88.500 367.170 C 89.105 367.481,89.600 367.885,89.600 368.068 C 89.600 368.250,89.920 368.400,90.312 368.400 C 90.703 368.400,91.283 368.760,91.600 369.200 C 91.917 369.640,92.329 370.000,92.516 370.000 C 92.703 370.000,93.641 370.540,94.600 371.200 C 95.559 371.860,96.522 372.400,96.739 372.400 C 96.956 372.400,97.193 372.535,97.267 372.700 C 97.463 373.141,101.415 375.200,102.066 375.200 C 102.372 375.200,102.883 375.560,103.200 376.000 C 103.517 376.440,104.097 376.800,104.488 376.800 C 104.880 376.800,105.200 376.980,105.200 377.200 C 105.200 377.420,105.560 377.600,106.000 377.600 C 106.440 377.600,106.800 377.780,106.800 378.000 C 106.800 378.220,107.160 378.400,107.600 378.400 C 108.040 378.400,108.400 378.580,108.400 378.800 C 108.400 379.020,108.745 379.200,109.167 379.200 C 109.588 379.200,109.993 379.335,110.067 379.500 C 110.292 380.006,113.627 381.600,114.461 381.600 C 114.894 381.600,115.136 381.780,115.000 382.000 C 114.860 382.227,115.196 382.400,115.776 382.400 C 116.339 382.400,116.800 382.580,116.800 382.800 C 116.800 383.020,117.160 383.200,117.600 383.200 C 118.040 383.200,118.400 383.380,118.400 383.600 C 118.400 383.820,118.760 384.000,119.200 384.000 C 119.640 384.000,120.000 384.180,120.000 384.400 C 120.000 384.620,120.349 384.800,120.776 384.800 C 121.203 384.800,121.664 384.980,121.800 385.200 C 121.936 385.420,122.487 385.600,123.024 385.600 C 123.561 385.600,124.000 385.780,124.000 386.000 C 124.000 386.220,124.272 386.400,124.605 386.400 C 124.938 386.400,125.523 386.559,125.905 386.753 C 126.531 387.072,127.245 387.380,129.800 388.438 C 132.162 389.416,139.350 391.600,140.206 391.600 C 140.753 391.600,141.200 391.742,141.200 391.915 C 141.200 392.088,141.785 392.274,142.500 392.328 C 143.215 392.381,143.860 392.600,143.933 392.813 C 144.007 393.026,144.782 393.200,145.657 393.200 C 146.615 393.200,147.149 393.359,147.000 393.600 C 146.853 393.838,147.329 394.000,148.176 394.000 C 148.959 394.000,149.600 394.180,149.600 394.400 C 149.600 394.620,150.320 394.800,151.200 394.800 C 152.080 394.800,152.800 394.980,152.800 395.200 C 152.800 395.420,153.599 395.600,154.576 395.600 C 155.553 395.600,156.464 395.780,156.600 396.000 C 156.736 396.220,157.557 396.400,158.424 396.400 C 159.291 396.400,160.000 396.580,160.000 396.800 C 160.000 397.020,160.990 397.200,162.200 397.200 C 163.410 397.200,164.400 397.380,164.400 397.600 C 164.400 397.820,165.379 398.000,166.576 398.000 C 167.773 398.000,168.864 398.180,169.000 398.400 C 169.136 398.620,170.482 398.800,171.990 398.800 C 173.829 398.800,174.788 398.965,174.900 399.300 C 175.144 400.032,224.856 400.032,225.100 399.300 C 225.212 398.965,226.171 398.800,228.010 398.800 C 229.518 398.800,230.864 398.620,231.000 398.400 C 231.136 398.180,232.227 398.000,233.424 398.000 C 234.621 398.000,235.600 397.820,235.600 397.600 C 235.600 397.380,236.590 397.200,237.800 397.200 C 239.010 397.200,240.000 397.020,240.000 396.800 C 240.000 396.580,240.709 396.400,241.576 396.400 C 242.443 396.400,243.264 396.220,243.400 396.000 C 243.536 395.780,244.447 395.600,245.424 395.600 C 246.401 395.600,247.200 395.420,247.200 395.200 C 247.200 394.980,247.920 394.800,248.800 394.800 C 249.680 394.800,250.400 394.620,250.400 394.400 C 250.400 394.180,251.041 394.000,251.824 394.000 C 252.671 394.000,253.147 393.838,253.000 393.600 C 252.851 393.359,253.385 393.200,254.343 393.200 C 255.218 393.200,255.993 393.026,256.067 392.813 C 256.140 392.600,256.785 392.381,257.500 392.328 C 258.215 392.274,258.800 392.088,258.800 391.915 C 258.800 391.742,259.247 391.600,259.794 391.600 C 260.688 391.600,268.047 389.348,270.300 388.385 C 270.795 388.173,271.695 387.799,272.300 387.553 C 272.905 387.308,273.713 386.948,274.095 386.753 C 274.477 386.559,275.062 386.400,275.395 386.400 C 275.728 386.400,276.000 386.220,276.000 386.000 C 276.000 385.780,276.439 385.600,276.976 385.600 C 277.513 385.600,278.064 385.420,278.200 385.200 C 278.336 384.980,278.797 384.800,279.224 384.800 C 279.651 384.800,280.000 384.620,280.000 384.400 C 280.000 384.180,280.360 384.000,280.800 384.000 C 281.240 384.000,281.600 383.820,281.600 383.600 C 281.600 383.380,281.960 383.200,282.400 383.200 C 282.840 383.200,283.200 383.020,283.200 382.800 C 283.200 382.580,283.661 382.400,284.224 382.400 C 284.804 382.400,285.140 382.227,285.000 382.000 C 284.864 381.780,285.106 381.600,285.539 381.600 C 286.373 381.600,289.708 380.006,289.933 379.500 C 290.007 379.335,290.412 379.200,290.833 379.200 C 291.255 379.200,291.600 379.020,291.600 378.800 C 291.600 378.580,291.960 378.400,292.400 378.400 C 292.840 378.400,293.200 378.220,293.200 378.000 C 293.200 377.780,293.560 377.600,294.000 377.600 C 294.440 377.600,294.800 377.420,294.800 377.200 C 294.800 376.980,295.120 376.800,295.512 376.800 C 295.903 376.800,296.483 376.440,296.800 376.000 C 297.117 375.560,297.628 375.200,297.934 375.200 C 298.585 375.200,302.537 373.141,302.733 372.700 C 302.807 372.535,303.044 372.400,303.261 372.400 C 303.478 372.400,304.441 371.860,305.400 371.200 C 306.359 370.540,307.297 370.000,307.484 370.000 C 307.671 370.000,308.083 369.640,308.400 369.200 C 308.717 368.760,309.257 368.400,309.600 368.400 C 309.943 368.400,310.483 368.040,310.800 367.600 C 311.117 367.160,311.657 366.800,312.000 366.800 C 312.343 366.800,312.883 366.440,313.200 366.000 C 313.517 365.560,314.057 365.200,314.400 365.200 C 314.743 365.200,315.283 364.840,315.600 364.400 C 315.917 363.960,316.407 363.600,316.688 363.600 C 316.970 363.600,317.200 363.420,317.200 363.200 C 317.200 362.980,317.430 362.800,317.712 362.800 C 317.993 362.800,318.483 362.440,318.800 362.000 C 319.117 361.560,319.625 361.200,319.928 361.200 C 320.231 361.200,320.983 360.660,321.600 360.000 C 322.217 359.340,322.929 358.800,323.184 358.800 C 323.439 358.800,323.536 358.620,323.400 358.400 C 323.264 358.180,323.425 358.000,323.758 358.000 C 324.091 358.000,324.814 357.550,325.364 357.000 C 325.914 356.450,326.534 356.000,326.741 356.000 C 326.949 356.000,327.995 355.143,329.065 354.095 C 330.135 353.047,331.629 351.749,332.384 351.212 C 334.181 349.932,349.947 334.161,351.212 332.378 C 351.749 331.620,352.957 330.230,353.895 329.289 C 354.833 328.349,355.600 327.423,355.600 327.232 C 355.600 327.041,356.140 326.307,356.800 325.600 C 357.460 324.893,358.000 324.054,358.000 323.734 C 358.000 323.414,358.180 323.264,358.400 323.400 C 358.620 323.536,358.800 323.439,358.800 323.184 C 358.800 322.929,359.340 322.217,360.000 321.600 C 360.660 320.983,361.200 320.231,361.200 319.928 C 361.200 319.625,361.560 319.117,362.000 318.800 C 362.440 318.483,362.800 317.993,362.800 317.712 C 362.800 317.430,362.980 317.200,363.200 317.200 C 363.420 317.200,363.600 316.970,363.600 316.688 C 363.600 316.407,363.960 315.917,364.400 315.600 C 364.840 315.283,365.200 314.743,365.200 314.400 C 365.200 314.057,365.560 313.517,366.000 313.200 C 366.440 312.883,366.800 312.343,366.800 312.000 C 366.800 311.657,367.160 311.117,367.600 310.800 C 368.040 310.483,368.400 309.943,368.400 309.600 C 368.400 309.257,368.760 308.717,369.200 308.400 C 369.640 308.083,370.000 307.671,370.000 307.484 C 370.000 307.297,370.540 306.359,371.200 305.400 C 371.860 304.441,372.400 303.478,372.400 303.261 C 372.400 303.044,372.535 302.807,372.700 302.733 C 373.141 302.537,375.200 298.585,375.200 297.934 C 375.200 297.628,375.560 297.117,376.000 296.800 C 376.440 296.483,376.800 295.903,376.800 295.512 C 376.800 295.120,376.980 294.800,377.200 294.800 C 377.420 294.800,377.600 294.440,377.600 294.000 C 377.600 293.560,377.780 293.200,378.000 293.200 C 378.220 293.200,378.400 292.840,378.400 292.400 C 378.400 291.960,378.580 291.600,378.800 291.600 C 379.020 291.600,379.200 291.255,379.200 290.833 C 379.200 290.412,379.335 290.007,379.500 289.933 C 380.006 289.708,381.600 286.373,381.600 285.539 C 381.600 285.106,381.780 284.864,382.000 285.000 C 382.227 285.140,382.400 284.804,382.400 284.224 C 382.400 283.661,382.580 283.200,382.800 283.200 C 383.020 283.200,383.200 282.840,383.200 282.400 C 383.200 281.960,383.380 281.600,383.600 281.600 C 383.820 281.600,384.000 281.240,384.000 280.800 C 384.000 280.360,384.180 280.000,384.400 280.000 C 384.620 280.000,384.800 279.651,384.800 279.224 C 384.800 278.797,384.980 278.336,385.200 278.200 C 385.420 278.064,385.600 277.513,385.600 276.976 C 385.600 276.439,385.780 276.000,386.000 276.000 C 386.220 276.000,386.400 275.728,386.400 275.395 C 386.400 275.062,386.559 274.477,386.753 274.095 C 386.948 273.713,387.308 272.905,387.553 272.300 C 387.799 271.695,388.173 270.795,388.385 270.300 C 389.348 268.047,391.600 260.688,391.600 259.794 C 391.600 259.247,391.742 258.800,391.915 258.800 C 392.088 258.800,392.274 258.215,392.328 257.500 C 392.381 256.785,392.600 256.140,392.813 256.067 C 393.026 255.993,393.200 255.218,393.200 254.343 C 393.200 253.385,393.359 252.851,393.600 253.000 C 393.838 253.147,394.000 252.671,394.000 251.824 C 394.000 251.041,394.180 250.400,394.400 250.400 C 394.620 250.400,394.800 249.680,394.800 248.800 C 394.800 247.920,394.980 247.200,395.200 247.200 C 395.420 247.200,395.600 246.401,395.600 245.424 C 395.600 244.447,395.780 243.536,396.000 243.400 C 396.220 243.264,396.400 242.443,396.400 241.576 C 396.400 240.709,396.580 240.000,396.800 240.000 C 397.020 240.000,397.200 239.010,397.200 237.800 C 397.200 236.590,397.380 235.600,397.600 235.600 C 397.820 235.600,398.000 234.621,398.000 233.424 C 398.000 232.227,398.180 231.136,398.400 231.000 C 398.620 230.864,398.800 229.518,398.800 228.010 C 398.800 226.171,398.965 225.212,399.300 225.100 C 399.693 224.969,399.800 219.591,399.800 200.000 C 399.800 180.409,399.693 175.031,399.300 174.900 C 398.965 174.788,398.800 173.829,398.800 171.990 C 398.800 170.482,398.620 169.136,398.400 169.000 C 398.180 168.864,398.000 167.773,398.000 166.576 C 398.000 165.379,397.820 164.400,397.600 164.400 C 397.380 164.400,397.200 163.410,397.200 162.200 C 397.200 160.990,397.020 160.000,396.800 160.000 C 396.580 160.000,396.400 159.291,396.400 158.424 C 396.400 157.557,396.220 156.736,396.000 156.600 C 395.780 156.464,395.600 155.553,395.600 154.576 C 395.600 153.599,395.420 152.800,395.200 152.800 C 394.980 152.800,394.800 152.080,394.800 151.200 C 394.800 150.320,394.620 149.600,394.400 149.600 C 394.180 149.600,394.000 148.959,394.000 148.176 C 394.000 147.329,393.838 146.853,393.600 147.000 C 393.359 147.149,393.200 146.615,393.200 145.657 C 393.200 144.782,393.026 144.007,392.813 143.933 C 392.600 143.860,392.381 143.215,392.328 142.500 C 392.274 141.785,392.088 141.200,391.915 141.200 C 391.742 141.200,391.600 140.753,391.600 140.206 C 391.600 139.350,389.416 132.162,388.438 129.800 C 387.380 127.245,387.072 126.531,386.753 125.905 C 386.559 125.523,386.400 124.938,386.400 124.605 C 386.400 124.272,386.220 124.000,386.000 124.000 C 385.780 124.000,385.600 123.561,385.600 123.024 C 385.600 122.487,385.420 121.936,385.200 121.800 C 384.980 121.664,384.800 121.203,384.800 120.776 C 384.800 120.349,384.620 120.000,384.400 120.000 C 384.180 120.000,384.000 119.640,384.000 119.200 C 384.000 118.760,383.820 118.400,383.600 118.400 C 383.380 118.400,383.200 118.040,383.200 117.600 C 383.200 117.160,383.020 116.800,382.800 116.800 C 382.580 116.800,382.400 116.339,382.400 115.776 C 382.400 115.196,382.227 114.860,382.000 115.000 C 381.780 115.136,381.600 114.894,381.600 114.461 C 381.600 113.627,380.006 110.292,379.500 110.067 C 379.335 109.993,379.200 109.588,379.200 109.167 C 379.200 108.745,379.020 108.400,378.800 108.400 C 378.580 108.400,378.400 108.040,378.400 107.600 C 378.400 107.160,378.220 106.800,378.000 106.800 C 377.780 106.800,377.600 106.440,377.600 106.000 C 377.600 105.560,377.420 105.200,377.200 105.200 C 376.980 105.200,376.800 104.880,376.800 104.488 C 376.800 104.097,376.440 103.517,376.000 103.200 C 375.560 102.883,375.200 102.372,375.200 102.066 C 375.200 101.415,373.141 97.463,372.700 97.267 C 372.535 97.193,372.400 96.956,372.400 96.739 C 372.400 96.522,371.860 95.559,371.200 94.600 C 370.540 93.641,370.000 92.703,370.000 92.516 C 370.000 92.329,369.640 91.917,369.200 91.600 C 368.760 91.283,368.400 90.743,368.400 90.400 C 368.400 90.057,368.040 89.517,367.600 89.200 C 367.160 88.883,366.800 88.343,366.800 88.000 C 366.800 87.657,366.440 87.117,366.000 86.800 C 365.560 86.483,365.200 85.943,365.200 85.600 C 365.200 85.257,364.840 84.717,364.400 84.400 C 363.960 84.083,363.600 83.620,363.600 83.371 C 363.600 83.122,363.060 82.354,362.400 81.663 C 361.740 80.972,361.200 80.208,361.200 79.964 C 361.200 79.720,360.660 79.017,360.000 78.400 C 359.340 77.783,358.800 77.071,358.800 76.816 C 358.800 76.561,358.620 76.464,358.400 76.600 C 358.180 76.736,358.000 76.575,358.000 76.242 C 358.000 75.909,357.550 75.186,357.000 74.636 C 356.450 74.086,356.000 73.466,356.000 73.259 C 356.000 73.051,355.143 72.005,354.095 70.935 C 353.047 69.865,351.749 68.371,351.212 67.616 C 349.940 65.830,334.170 50.060,332.384 48.788 C 331.629 48.251,330.135 46.953,329.065 45.905 C 327.995 44.857,326.949 44.000,326.741 44.000 C 326.534 44.000,325.930 43.595,325.401 43.100 C 323.937 41.731,323.260 41.200,322.977 41.200 C 322.836 41.200,322.217 40.660,321.600 40.000 C 320.983 39.340,320.280 38.800,320.036 38.800 C 319.792 38.800,319.028 38.260,318.337 37.600 C 317.646 36.940,316.878 36.400,316.629 36.400 C 316.380 36.400,315.917 36.040,315.600 35.600 C 315.283 35.160,314.769 34.800,314.459 34.800 C 314.148 34.800,313.603 34.484,313.247 34.097 C 312.891 33.711,312.105 33.140,311.500 32.830 C 310.895 32.519,310.400 32.115,310.400 31.932 C 310.400 31.750,310.080 31.600,309.688 31.600 C 309.297 31.600,308.717 31.240,308.400 30.800 C 308.083 30.360,307.671 30.000,307.484 30.000 C 307.297 30.000,306.359 29.460,305.400 28.800 C 304.441 28.140,303.478 27.600,303.261 27.600 C 303.044 27.600,302.807 27.465,302.733 27.300 C 302.537 26.859,298.585 24.800,297.934 24.800 C 297.628 24.800,297.117 24.440,296.800 24.000 C 296.483 23.560,295.903 23.200,295.512 23.200 C 295.120 23.200,294.800 23.020,294.800 22.800 C 294.800 22.580,294.440 22.400,294.000 22.400 C 293.560 22.400,293.200 22.220,293.200 22.000 C 293.200 21.780,292.840 21.600,292.400 21.600 C 291.960 21.600,291.600 21.420,291.600 21.200 C 291.600 20.980,291.255 20.800,290.833 20.800 C 290.412 20.800,290.007 20.665,289.933 20.500 C 289.708 19.994,286.373 18.400,285.539 18.400 C 285.106 18.400,284.864 18.220,285.000 18.000 C 285.136 17.780,284.887 17.600,284.447 17.600 C 284.007 17.600,283.536 17.420,283.400 17.200 C 283.264 16.980,282.803 16.800,282.376 16.800 C 281.949 16.800,281.600 16.620,281.600 16.400 C 281.600 16.180,281.240 16.000,280.800 16.000 C 280.360 16.000,280.000 15.820,280.000 15.600 C 280.000 15.380,279.651 15.200,279.224 15.200 C 278.797 15.200,278.336 15.020,278.200 14.800 C 278.064 14.580,277.513 14.400,276.976 14.400 C 276.439 14.400,276.000 14.220,276.000 14.000 C 276.000 13.780,275.728 13.600,275.395 13.600 C 275.062 13.600,274.477 13.441,274.095 13.247 C 273.713 13.052,272.905 12.692,272.300 12.447 C 271.695 12.201,270.795 11.827,270.300 11.615 C 268.047 10.652,260.688 8.400,259.794 8.400 C 259.247 8.400,258.800 8.258,258.800 8.085 C 258.800 7.912,258.215 7.726,257.500 7.672 C 256.785 7.619,256.140 7.400,256.067 7.187 C 255.993 6.974,255.218 6.800,254.343 6.800 C 253.385 6.800,252.851 6.641,253.000 6.400 C 253.147 6.162,252.671 6.000,251.824 6.000 C 251.041 6.000,250.400 5.820,250.400 5.600 C 250.400 5.380,249.680 5.200,248.800 5.200 C 247.920 5.200,247.200 5.020,247.200 4.800 C 247.200 4.580,246.401 4.400,245.424 4.400 C 244.447 4.400,243.536 4.220,243.400 4.000 C 243.264 3.780,242.443 3.600,241.576 3.600 C 240.709 3.600,240.000 3.420,240.000 3.200 C 240.000 2.980,239.010 2.800,237.800 2.800 C 236.590 2.800,235.600 2.620,235.600 2.400 C 235.600 2.180,234.621 2.000,233.424 2.000 C 232.227 2.000,231.136 1.820,231.000 1.600 C 230.864 1.380,229.518 1.200,228.010 1.200 C 226.233 1.200,225.210 1.031,225.107 0.720 C 224.948 0.244,188.291 -0.109,178.700 0.273 M263.600 83.417 C 267.528 84.742,270.716 86.722,273.587 89.623 C 275.422 91.477,278.400 95.656,278.400 96.377 C 278.400 96.616,278.559 97.123,278.753 97.505 C 280.258 100.464,280.537 101.946,280.537 107.000 C 280.537 111.186,280.342 112.797,279.619 114.600 C 275.376 125.177,266.528 131.600,256.200 131.600 C 251.999 131.600,249.743 131.038,245.200 128.860 C 239.566 126.158,234.466 120.359,232.835 114.800 C 232.544 113.810,232.148 112.478,231.953 111.840 C 230.746 107.877,231.977 99.968,234.536 95.243 C 237.487 89.795,242.901 85.262,248.400 83.635 C 249.390 83.342,250.650 82.950,251.200 82.762 C 252.956 82.165,261.173 82.598,263.600 83.417 M201.104 105.354 C 201.179 118.869,201.081 124.261,200.755 124.654 C 200.394 125.089,198.210 125.200,189.970 125.200 C 183.238 125.200,179.248 125.357,178.519 125.651 C 170.235 128.987,168.261 132.082,168.224 141.800 L 168.200 148.200 224.515 148.400 C 273.990 148.576,280.875 148.673,281.208 149.200 C 281.443 149.571,281.590 171.689,281.594 207.100 L 281.600 264.400 291.920 264.400 C 299.413 264.400,302.371 264.531,302.720 264.880 C 303.545 265.705,303.397 301.439,302.567 301.757 C 302.219 301.891,281.428 302.000,256.363 302.000 L 210.792 302.000 210.896 283.300 L 211.000 264.600 221.102 264.493 L 231.204 264.386 231.102 224.893 L 231.000 185.400 199.600 185.400 L 168.200 185.400 168.098 224.900 L 167.996 264.400 178.098 264.406 C 183.654 264.409,188.427 264.556,188.704 264.732 C 189.100 264.984,189.186 268.992,189.104 283.426 L 189.000 301.800 143.800 301.910 C 118.940 301.970,98.195 301.922,97.700 301.802 L 96.800 301.585 96.800 283.235 C 96.800 266.872,96.868 264.859,97.433 264.643 C 97.781 264.509,102.461 264.400,107.833 264.400 L 117.600 264.400 117.600 224.607 L 117.600 184.814 107.300 184.707 L 97.000 184.600 96.896 167.046 C 96.821 154.419,96.919 149.339,97.245 148.946 C 97.605 148.511,99.728 148.400,107.649 148.400 L 117.600 148.400 117.597 139.900 C 117.594 129.942,118.074 125.513,119.687 120.600 C 120.342 118.603,120.640 117.908,122.002 115.200 C 122.720 113.770,123.509 112.196,123.754 111.703 C 123.999 111.210,124.335 110.805,124.500 110.803 C 124.665 110.801,124.800 110.530,124.800 110.200 C 124.800 109.870,124.980 109.600,125.200 109.600 C 125.420 109.600,125.600 109.330,125.600 109.000 C 125.600 108.670,125.735 108.389,125.900 108.376 C 126.065 108.363,126.998 107.328,127.973 106.076 C 131.193 101.941,138.692 95.908,142.900 94.067 C 143.725 93.707,144.400 93.274,144.400 93.106 C 144.400 92.938,144.653 92.800,144.962 92.800 C 145.271 92.800,146.306 92.414,147.262 91.943 C 149.611 90.785,152.042 89.812,153.600 89.406 C 154.150 89.263,155.230 88.965,156.000 88.743 C 158.382 88.057,160.887 87.567,163.709 87.235 C 165.198 87.060,166.535 86.798,166.680 86.654 C 166.824 86.510,174.605 86.438,183.971 86.496 L 201.000 86.600 201.104 105.354 " stroke="none" fill="#04b42c" fill-rule="evenodd"></path><path id="path2" d="M251.916 83.128 C 251.541 83.278,253.577 83.400,256.441 83.400 C 259.306 83.400,261.233 83.283,260.725 83.140 C 259.492 82.793,252.781 82.784,251.916 83.128 M266.600 85.518 C 271.906 88.447,276.010 92.511,277.342 96.157 C 277.494 96.574,277.729 96.804,277.864 96.669 C 279.303 95.231,267.834 84.346,264.944 84.407 C 264.755 84.411,265.500 84.911,266.600 85.518 M243.700 86.226 C 241.812 87.358,241.377 87.949,243.100 87.041 C 244.309 86.403,245.916 85.231,245.600 85.217 C 245.490 85.212,244.635 85.666,243.700 86.226 M166.800 87.216 C 166.004 87.392,167.125 87.433,169.400 87.311 C 171.600 87.192,173.475 87.029,173.567 86.947 C 173.873 86.677,168.220 86.901,166.800 87.216 M200.496 105.300 L 200.400 124.000 191.100 124.040 C 185.985 124.062,181.382 124.197,180.872 124.340 C 180.362 124.483,184.592 124.539,190.272 124.465 C 195.952 124.390,200.647 124.283,200.704 124.227 C 200.761 124.171,200.759 115.682,200.700 105.363 L 200.592 86.600 200.496 105.300 M161.200 88.000 L 160.200 88.320 161.200 88.332 C 161.750 88.338,162.560 88.189,163.000 88.000 L 163.800 87.656 163.000 87.668 C 162.560 87.674,161.750 87.824,161.200 88.000 M238.495 90.593 C 236.405 92.874,233.590 97.285,233.605 98.256 C 233.608 98.445,234.351 97.265,235.255 95.634 C 236.160 94.002,237.922 91.617,239.170 90.334 C 240.418 89.050,241.311 88.000,241.155 88.000 C 240.999 88.000,239.802 89.167,238.495 90.593 M157.400 88.800 L 156.600 89.144 157.400 89.166 C 157.840 89.178,158.470 89.013,158.800 88.800 C 159.595 88.286,158.596 88.286,157.400 88.800 M145.300 93.189 C 144.365 93.614,143.600 94.051,143.600 94.161 C 143.600 94.388,146.671 93.062,147.071 92.662 C 147.479 92.254,147.134 92.357,145.300 93.189 M141.600 95.236 C 140.936 95.779,140.869 95.915,141.400 95.640 C 142.705 94.966,143.428 94.412,143.000 94.415 C 142.780 94.417,142.150 94.786,141.600 95.236 M133.780 100.764 C 130.632 103.440,125.895 108.831,124.608 111.200 C 124.098 112.139,124.864 111.271,126.901 108.600 C 129.050 105.781,131.759 102.941,134.809 100.310 C 136.014 99.270,136.901 98.415,136.780 98.410 C 136.658 98.404,135.308 99.464,133.780 100.764 M278.812 99.600 C 278.812 99.930,278.987 100.470,279.200 100.800 C 279.545 101.333,279.588 101.333,279.588 100.800 C 279.588 100.470,279.413 99.930,279.200 99.600 C 278.855 99.067,278.812 99.067,278.812 99.600 M232.250 103.250 C 231.936 104.820,231.994 109.895,232.340 111.124 C 232.483 111.632,232.600 109.787,232.600 107.024 C 232.600 101.461,232.602 101.488,232.250 103.250 M279.800 107.000 C 279.800 109.835,279.914 111.625,280.053 110.977 C 280.192 110.330,280.305 108.540,280.305 107.000 C 280.305 105.460,280.192 103.670,280.053 103.023 C 279.914 102.375,279.800 104.165,279.800 107.000 M123.386 113.300 L 122.752 114.600 123.567 113.600 C 124.352 112.637,124.608 112.000,124.210 112.000 C 124.106 112.000,123.735 112.585,123.386 113.300 M279.000 113.600 C 278.850 114.073,278.817 114.550,278.927 114.660 C 279.037 114.770,279.250 114.473,279.400 114.000 C 279.550 113.527,279.583 113.050,279.473 112.940 C 279.363 112.830,279.150 113.127,279.000 113.600 M234.412 117.422 C 234.396 117.990,236.594 121.426,237.223 121.814 C 237.498 121.984,237.184 121.331,236.525 120.362 C 235.866 119.393,235.124 118.240,234.876 117.800 C 234.627 117.360,234.419 117.190,234.412 117.422 M275.785 120.500 C 275.168 121.435,274.920 121.989,275.232 121.731 C 275.833 121.234,277.364 118.800,277.076 118.800 C 276.983 118.800,276.402 119.565,275.785 120.500 M119.829 121.429 C 119.681 122.015,119.638 122.572,119.732 122.666 C 119.827 122.760,120.024 122.358,120.171 121.771 C 120.319 121.185,120.362 120.628,120.268 120.534 C 120.173 120.440,119.976 120.842,119.829 121.429 M238.974 123.893 C 239.840 124.824,240.635 125.499,240.741 125.393 C 240.847 125.287,240.856 125.155,240.762 125.100 C 240.668 125.045,239.873 124.370,238.996 123.601 L 237.400 122.201 238.974 123.893 M272.883 123.901 C 271.043 125.857,271.508 125.938,273.407 123.993 C 274.263 123.117,274.791 122.423,274.581 122.451 C 274.372 122.479,273.608 123.131,272.883 123.901 M119.000 124.800 C 118.848 125.491,118.814 126.147,118.924 126.257 C 119.034 126.367,119.248 125.891,119.400 125.200 C 119.552 124.509,119.586 123.853,119.476 123.743 C 119.366 123.633,119.152 124.109,119.000 124.800 M177.600 125.218 C 177.162 125.515,177.324 125.552,178.200 125.356 C 179.671 125.027,179.990 124.798,178.967 124.806 C 178.545 124.809,177.930 124.995,177.600 125.218 M241.469 126.032 C 241.966 126.633,244.400 128.164,244.400 127.876 C 244.400 127.783,243.635 127.202,242.700 126.585 C 241.765 125.968,241.211 125.720,241.469 126.032 M269.681 126.572 C 267.823 127.885,267.562 128.261,269.131 127.362 C 269.863 126.943,270.650 126.375,270.880 126.100 C 271.471 125.393,271.193 125.502,269.681 126.572 M173.400 127.288 C 171.907 128.361,169.678 130.700,169.114 131.784 C 168.880 132.233,169.474 131.718,170.432 130.639 C 171.391 129.560,172.883 128.165,173.748 127.539 C 174.612 126.913,175.158 126.406,174.960 126.413 C 174.762 126.420,174.060 126.814,173.400 127.288 M118.493 138.020 C 118.426 145.327,118.263 148.377,117.920 148.720 C 117.547 149.093,117.549 149.200,117.933 149.200 C 118.769 149.200,118.818 148.491,118.700 137.993 L 118.586 127.800 118.493 138.020 M262.400 130.000 C 261.867 130.345,261.867 130.388,262.400 130.388 C 262.730 130.388,263.270 130.213,263.600 130.000 C 264.133 129.655,264.133 129.612,263.600 129.612 C 263.270 129.612,262.730 129.787,262.400 130.000 M252.476 130.860 C 252.984 131.003,254.660 131.120,256.200 131.120 C 257.740 131.120,259.416 131.003,259.924 130.860 C 260.432 130.717,258.756 130.600,256.200 130.600 C 253.644 130.600,251.968 130.717,252.476 130.860 M167.450 136.050 C 167.095 137.823,167.139 149.200,167.500 149.199 C 167.665 149.199,167.800 145.958,167.800 141.999 C 167.800 138.039,167.778 134.800,167.750 134.800 C 167.722 134.800,167.588 135.363,167.450 136.050 M97.467 149.467 C 97.097 149.837,97.129 183.909,97.500 184.138 C 97.665 184.240,97.800 176.421,97.800 166.762 C 97.800 157.103,97.785 149.200,97.767 149.200 C 97.748 149.200,97.613 149.320,97.467 149.467 M280.400 207.100 L 280.600 265.000 291.181 265.107 C 299.009 265.186,301.852 265.342,302.111 265.707 C 302.366 266.066,302.417 266.037,302.297 265.600 C 302.158 265.089,300.548 264.984,291.467 264.893 L 280.800 264.787 280.800 206.993 C 280.800 175.207,280.665 149.200,280.500 149.200 C 280.335 149.200,280.290 175.255,280.400 207.100 M118.200 224.538 L 118.200 264.600 107.800 264.800 L 97.400 265.000 97.400 283.200 L 97.400 301.400 143.104 301.502 L 188.808 301.603 188.704 283.302 L 188.600 265.000 178.200 264.800 L 167.800 264.600 167.800 224.520 C 167.800 202.476,167.664 184.576,167.498 184.742 C 167.332 184.908,167.242 203.034,167.298 225.022 L 167.400 265.000 177.900 265.107 L 188.400 265.213 188.400 283.207 L 188.400 301.200 143.000 301.200 L 97.600 301.200 97.600 283.200 L 97.600 265.200 107.567 265.200 C 113.049 265.200,117.819 265.091,118.167 264.957 C 118.849 264.696,119.179 185.081,118.500 184.662 C 118.335 184.560,118.200 202.504,118.200 224.538 M231.400 224.520 L 231.400 264.600 221.200 264.800 L 211.000 265.000 211.000 283.200 L 211.000 301.400 256.700 301.403 L 302.400 301.405 256.800 301.301 L 211.200 301.197 211.200 283.205 L 211.200 265.214 221.500 265.107 L 231.800 265.000 231.902 225.022 C 231.958 203.034,231.868 184.908,231.702 184.742 C 231.536 184.576,231.400 202.476,231.400 224.520 " stroke="none" fill="#84dc94" fill-rule="evenodd"></path><path id="path3" d="M180.500 86.699 C 184.185 86.765,190.215 86.765,193.900 86.699 C 197.585 86.633,194.570 86.579,187.200 86.579 C 179.830 86.579,176.815 86.633,180.500 86.699 M186.500 124.699 C 189.085 124.768,193.315 124.768,195.900 124.699 C 198.485 124.629,196.370 124.572,191.200 124.572 C 186.030 124.572,183.915 124.629,186.500 124.699 M118.172 139.200 C 118.172 144.370,118.229 146.485,118.299 143.900 C 118.368 141.315,118.368 137.085,118.299 134.500 C 118.229 131.915,118.172 134.030,118.172 139.200 M167.703 148.400 C 167.847 148.930,174.470 149.000,224.233 149.002 L 280.600 149.004 224.423 148.901 C 180.116 148.819,168.171 148.692,167.892 148.299 C 167.632 147.931,167.582 147.957,167.703 148.400 M97.461 149.100 C 97.359 149.265,100.273 149.354,103.937 149.297 C 116.532 149.102,117.781 148.966,107.724 148.883 C 102.182 148.837,97.563 148.935,97.461 149.100 M280.995 207.200 C 280.995 238.990,281.042 251.995,281.100 236.100 C 281.158 220.205,281.158 194.195,281.100 178.300 C 281.042 162.405,280.995 175.410,280.995 207.200 M118.000 224.520 L 118.200 264.600 118.302 224.822 C 118.358 202.944,118.268 184.908,118.102 184.742 C 117.936 184.576,117.890 202.476,118.000 224.520 M183.700 184.700 C 192.445 184.760,206.755 184.760,215.500 184.700 C 224.245 184.640,217.090 184.591,199.600 184.591 C 182.110 184.591,174.955 184.640,183.700 184.700 M167.792 224.800 C 167.792 246.690,167.841 255.645,167.900 244.700 C 167.959 233.755,167.959 215.845,167.900 204.900 C 167.841 193.955,167.792 202.910,167.792 224.800 M231.392 224.800 C 231.392 246.690,231.441 255.645,231.500 244.700 C 231.559 233.755,231.559 215.845,231.500 204.900 C 231.441 193.955,231.392 202.910,231.392 224.800 M188.800 283.120 L 189.000 301.400 189.104 283.424 C 189.161 273.537,189.071 265.311,188.904 265.144 C 188.737 264.977,188.690 273.066,188.800 283.120 M302.400 283.120 L 302.600 301.400 302.704 283.424 C 302.761 273.537,302.671 265.311,302.504 265.144 C 302.337 264.977,302.290 273.066,302.400 283.120 " stroke="none" fill="#66d27f" fill-rule="evenodd"></path><path id="path4" d="M254.115 82.696 C 255.388 82.776,257.368 82.775,258.515 82.694 C 259.662 82.614,258.620 82.549,256.200 82.550 C 253.780 82.551,252.842 82.616,254.115 82.696 M261.400 83.200 C 261.840 83.389,262.560 83.538,263.000 83.532 C 263.643 83.523,263.604 83.457,262.800 83.200 C 261.432 82.762,260.381 82.762,261.400 83.200 M242.900 86.088 C 242.405 86.327,242.000 86.679,242.000 86.870 C 242.000 87.062,242.450 86.924,243.000 86.563 C 244.467 85.602,244.416 85.357,242.900 86.088 M166.200 86.773 C 165.453 87.069,172.927 86.899,173.800 86.600 C 174.020 86.525,172.580 86.462,170.600 86.460 C 168.620 86.458,166.640 86.599,166.200 86.773 M200.600 105.538 L 200.600 124.600 190.600 124.811 L 180.600 125.021 190.420 125.111 C 197.628 125.176,200.368 125.072,200.720 124.720 C 201.264 124.176,201.439 86.995,200.900 86.662 C 200.735 86.560,200.600 95.054,200.600 105.538 M160.800 87.621 C 160.370 87.914,160.654 87.954,161.800 87.762 C 163.784 87.430,164.104 87.198,162.567 87.206 C 161.925 87.209,161.130 87.396,160.800 87.621 M239.946 88.415 C 239.146 89.069,238.008 90.278,237.417 91.102 L 236.342 92.600 237.579 91.200 C 238.258 90.430,239.486 89.222,240.307 88.515 C 242.186 86.898,241.899 86.819,239.946 88.415 M157.200 88.418 C 156.762 88.715,156.924 88.752,157.800 88.556 C 159.271 88.227,159.590 87.998,158.567 88.006 C 158.145 88.009,157.530 88.195,157.200 88.418 M272.800 88.967 C 272.800 89.388,274.005 90.528,274.221 90.312 C 274.322 90.211,274.044 89.802,273.602 89.402 C 273.161 89.003,272.800 88.807,272.800 88.967 M234.898 94.468 C 233.678 96.715,233.967 96.796,235.305 94.581 C 235.896 93.601,236.250 92.801,236.090 92.803 C 235.931 92.805,235.394 93.554,234.898 94.468 M134.800 99.247 C 132.778 100.905,128.734 104.970,127.523 106.562 C 126.837 107.463,127.391 106.993,128.753 105.518 C 130.116 104.043,132.349 101.839,133.715 100.620 C 136.127 98.469,136.823 97.588,134.800 99.247 M280.200 107.000 C 280.200 109.708,280.332 111.716,280.494 111.462 C 280.656 111.208,280.788 109.200,280.788 107.000 C 280.788 104.800,280.656 102.792,280.494 102.538 C 280.332 102.284,280.200 104.292,280.200 107.000 M231.748 107.200 C 231.748 109.510,231.814 110.455,231.895 109.300 C 231.976 108.145,231.976 106.255,231.895 105.100 C 231.814 103.945,231.748 104.890,231.748 107.200 M233.232 115.888 C 233.197 116.426,234.638 119.169,235.287 119.800 C 235.514 120.020,235.256 119.390,234.715 118.400 C 234.173 117.410,233.625 116.330,233.497 116.000 C 233.362 115.654,233.250 115.607,233.232 115.888 M119.449 121.015 C 119.312 121.373,119.215 121.966,119.234 122.333 C 119.253 122.700,119.427 122.469,119.621 121.820 C 119.998 120.558,119.865 119.933,119.449 121.015 M118.649 123.815 C 118.512 124.173,118.423 125.036,118.450 125.733 C 118.492 126.787,118.550 126.698,118.799 125.200 C 119.117 123.286,119.059 122.748,118.649 123.815 M117.856 129.445 C 117.715 130.472,117.600 135.157,117.600 139.856 L 117.600 148.400 107.649 148.400 C 99.728 148.400,97.605 148.511,97.245 148.946 C 96.919 149.339,96.821 154.419,96.896 167.046 L 97.000 184.600 107.300 184.707 L 117.600 184.814 117.600 224.600 L 117.600 264.386 107.500 264.500 L 97.400 264.614 107.702 264.707 L 118.004 264.800 117.902 224.700 L 117.800 184.600 107.496 184.493 L 97.192 184.386 97.296 166.693 L 97.400 149.000 107.665 148.893 L 117.931 148.787 118.073 138.293 C 118.152 132.522,118.193 127.750,118.164 127.689 C 118.135 127.628,117.997 128.418,117.856 129.445 M243.200 127.796 C 243.200 128.070,245.649 129.284,245.832 129.101 C 245.919 129.014,245.362 128.644,244.595 128.278 C 243.828 127.912,243.200 127.695,243.200 127.796 M171.371 129.703 L 170.200 130.997 171.400 129.999 C 172.060 129.449,172.675 128.955,172.767 128.900 C 172.858 128.845,172.845 128.712,172.738 128.604 C 172.630 128.496,172.015 128.991,171.371 129.703 M251.915 131.272 C 252.292 131.421,254.220 131.544,256.200 131.544 C 258.180 131.544,260.108 131.421,260.485 131.272 C 260.862 131.122,258.934 131.000,256.200 131.000 C 253.466 131.000,251.538 131.122,251.915 131.272 M168.605 133.849 C 168.272 134.646,168.021 135.681,168.046 136.149 C 168.090 136.952,168.103 136.955,168.270 136.200 C 168.368 135.760,168.706 134.725,169.021 133.900 C 169.755 131.977,169.405 131.934,168.605 133.849 M167.681 142.867 C 167.636 145.434,167.709 147.819,167.843 148.167 C 168.063 148.740,173.397 148.800,224.163 148.800 C 267.245 148.800,280.351 148.911,280.720 149.280 C 281.089 149.649,281.200 163.074,281.200 207.273 L 281.200 264.787 291.900 264.893 L 302.600 265.000 302.600 283.200 L 302.600 301.400 256.600 301.603 L 210.600 301.805 256.267 301.903 C 281.384 301.956,302.219 301.891,302.567 301.757 C 303.397 301.439,303.545 265.705,302.720 264.880 C 302.371 264.531,299.413 264.400,291.920 264.400 L 281.600 264.400 281.594 207.100 C 281.590 171.689,281.443 149.571,281.208 149.200 C 280.875 148.673,273.990 148.576,224.515 148.400 L 168.200 148.200 167.981 143.200 L 167.762 138.200 167.681 142.867 M168.000 185.100 C 168.000 185.265,182.220 185.400,199.600 185.400 C 216.980 185.400,231.200 185.265,231.200 185.100 C 231.200 184.935,216.980 184.800,199.600 184.800 C 182.220 184.800,168.000 184.935,168.000 185.100 M172.876 264.699 C 175.668 264.767,180.348 264.768,183.276 264.699 C 186.204 264.631,183.920 264.575,178.200 264.574 C 172.480 264.574,170.084 264.630,172.876 264.699 M216.100 264.699 C 218.905 264.768,223.495 264.768,226.300 264.699 C 229.105 264.630,226.810 264.574,221.200 264.574 C 215.590 264.574,213.295 264.630,216.100 264.699 M96.985 283.200 C 96.985 293.430,97.036 297.615,97.100 292.500 C 97.163 287.385,97.163 279.015,97.100 273.900 C 97.036 268.785,96.985 272.970,96.985 283.200 M143.200 301.600 L 97.400 301.805 143.076 301.903 C 173.201 301.967,188.837 301.864,189.000 301.600 C 189.136 301.380,189.192 301.244,189.124 301.297 C 189.056 301.351,168.390 301.487,143.200 301.600 " stroke="none" fill="#34c45c" fill-rule="evenodd"></path></g></svg>