<svg id="svg" version="1.1" xmlns="http://www.w3.org/2000/svg" xmlns:xlink="http://www.w3.org/1999/xlink" width="400" height="302.9585798816568" viewBox="0, 0, 400,302.9585798816568"><g id="svgg"><path id="path0" d="M366.151 0.205 C 365.227 0.301,364.828 0.498,364.692 0.926 C 364.586 1.258,363.775 1.850,362.835 2.280 C 361.352 2.958,357.443 5.429,356.102 6.535 C 355.548 6.992,349.845 11.195,347.273 13.042 C 344.017 15.380,342.360 16.589,333.790 22.879 C 325.337 29.083,323.744 30.245,320.303 32.716 C 319.386 33.374,317.068 35.084,315.152 36.515 C 313.235 37.946,310.861 39.676,309.877 40.359 C 308.893 41.043,307.870 41.780,307.605 41.998 C 306.907 42.569,300.314 47.415,297.121 49.704 C 295.621 50.779,293.576 52.281,292.576 53.042 C 291.576 53.803,290.079 54.890,289.249 55.457 C 288.420 56.024,287.533 56.657,287.280 56.863 C 286.795 57.258,285.757 58.021,279.091 62.880 C 274.016 66.580,272.746 67.509,268.939 70.304 C 263.698 74.154,261.411 75.829,259.848 76.964 C 259.015 77.570,257.515 78.663,256.515 79.394 C 255.515 80.125,254.015 81.219,253.182 81.825 C 252.348 82.431,250.098 84.081,248.182 85.492 C 246.265 86.903,243.471 88.937,241.974 90.013 C 240.476 91.089,239.044 92.135,238.792 92.336 C 238.540 92.538,237.379 93.397,236.212 94.246 C 235.045 95.095,232.523 96.937,230.606 98.340 C 228.689 99.742,226.167 101.584,225.000 102.434 C 223.833 103.283,222.538 104.232,222.121 104.543 C 219.968 106.151,214.887 109.879,211.667 112.214 C 209.667 113.664,206.803 115.742,205.303 116.830 C 203.803 117.918,202.357 118.990,202.090 119.211 C 201.016 120.103,199.231 121.212,198.870 121.212 C 198.532 121.212,195.552 119.258,195.152 118.774 C 195.068 118.673,194.182 118.026,193.182 117.336 C 192.182 116.646,188.841 114.229,185.758 111.966 C 182.674 109.702,179.346 107.292,178.362 106.609 C 177.378 105.927,176.355 105.191,176.089 104.974 C 175.824 104.757,174.720 103.934,173.636 103.146 C 172.553 102.358,170.985 101.216,170.152 100.608 C 169.318 100.001,167.341 98.566,165.758 97.420 C 160.552 93.652,159.248 92.698,158.759 92.299 C 158.493 92.082,157.471 91.346,156.486 90.663 C 155.502 89.981,152.242 87.625,149.242 85.428 C 146.242 83.232,143.185 81.010,142.448 80.490 C 141.711 79.971,140.007 78.723,138.660 77.718 C 137.314 76.713,134.371 74.566,132.121 72.948 C 126.485 68.892,122.662 66.110,122.121 65.671 C 121.700 65.328,117.657 62.401,110.201 57.039 C 108.515 55.826,106.792 54.575,106.371 54.257 C 105.619 53.689,96.488 47.039,95.303 46.196 C 94.503 45.627,89.944 42.314,88.030 40.911 C 87.197 40.300,85.220 38.849,83.636 37.686 C 82.053 36.524,79.825 34.898,78.686 34.074 C 77.546 33.250,75.910 32.064,75.049 31.437 C 74.189 30.811,72.680 29.735,71.695 29.046 C 70.711 28.356,69.689 27.614,69.423 27.396 C 69.157 27.177,66.758 25.419,64.091 23.487 C 61.424 21.556,59.025 19.796,58.759 19.577 C 58.493 19.357,57.471 18.613,56.486 17.924 C 55.502 17.235,53.947 16.123,53.030 15.455 C 52.114 14.786,50.614 13.697,49.697 13.035 C 48.780 12.373,47.008 11.075,45.758 10.149 C 39.483 5.505,36.262 3.587,33.333 2.750 C 32.583 2.536,31.656 2.239,31.274 2.090 C 30.891 1.940,30.065 1.818,29.438 1.818 C 28.811 1.818,28.033 1.618,27.709 1.373 C 26.965 0.810,23.323 0.747,22.750 1.288 C 22.429 1.591,22.321 1.591,22.210 1.288 C 22.045 0.840,20.606 0.772,20.606 1.212 C 20.606 1.379,20.345 1.515,20.025 1.515 C 19.706 1.515,19.376 1.686,19.292 1.894 C 19.169 2.197,19.134 2.197,19.115 1.894 C 19.087 1.447,18.182 1.374,18.182 1.818 C 18.182 1.985,17.773 2.121,17.273 2.121 C 16.773 2.121,16.364 2.258,16.364 2.424 C 16.364 2.591,15.955 2.727,15.455 2.727 C 14.955 2.727,14.545 2.864,14.545 3.030 C 14.545 3.197,14.273 3.333,13.939 3.333 C 13.606 3.333,13.333 3.470,13.333 3.636 C 13.333 3.803,13.061 3.939,12.727 3.939 C 12.394 3.939,12.121 4.076,12.121 4.242 C 12.121 4.409,11.879 4.545,11.582 4.545 C 11.286 4.545,10.846 4.818,10.606 5.152 C 10.366 5.485,9.983 5.758,9.756 5.758 C 9.214 5.758,4.545 10.423,4.545 10.965 C 4.545 11.194,4.273 11.578,3.939 11.818 C 3.606 12.058,3.333 12.498,3.333 12.794 C 3.333 13.091,3.197 13.333,3.030 13.333 C 2.864 13.333,2.727 13.606,2.727 13.939 C 2.727 14.273,2.591 14.545,2.424 14.545 C 2.258 14.545,2.121 14.818,2.121 15.152 C 2.121 15.485,1.985 15.758,1.818 15.758 C 1.652 15.758,1.515 16.030,1.515 16.364 C 1.515 16.697,1.379 16.970,1.212 16.970 C 1.045 16.970,0.909 17.504,0.909 18.157 C 0.909 18.809,0.768 19.390,0.596 19.448 C 0.167 19.591,0.177 283.328,0.606 283.758 C 0.773 283.924,0.909 284.511,0.909 285.061 C 0.909 285.611,1.045 286.061,1.212 286.061 C 1.379 286.061,1.515 286.333,1.515 286.667 C 1.515 287.000,1.652 287.273,1.818 287.273 C 1.985 287.273,2.121 287.682,2.121 288.182 C 2.121 288.682,2.258 289.091,2.424 289.091 C 2.591 289.091,2.727 289.334,2.727 289.630 C 2.727 289.927,3.000 290.366,3.333 290.606 C 3.667 290.846,3.939 291.255,3.939 291.515 C 3.939 291.775,4.212 292.184,4.545 292.424 C 4.879 292.664,5.152 293.038,5.152 293.255 C 5.152 293.760,9.282 297.879,9.788 297.879 C 9.998 297.879,10.366 298.152,10.606 298.485 C 10.846 298.818,11.286 299.091,11.582 299.091 C 11.879 299.091,12.121 299.227,12.121 299.394 C 12.121 299.561,12.394 299.697,12.727 299.697 C 13.061 299.697,13.333 299.833,13.333 300.000 C 13.333 300.167,13.606 300.303,13.939 300.303 C 14.273 300.303,14.545 300.439,14.545 300.606 C 14.545 300.773,14.818 300.909,15.152 300.909 C 15.485 300.909,15.758 301.045,15.758 301.212 C 15.758 301.379,16.167 301.515,16.667 301.515 C 17.167 301.515,17.576 301.652,17.576 301.818 C 17.576 301.985,18.129 302.121,18.806 302.121 C 19.549 302.121,19.962 302.241,19.848 302.424 C 19.725 302.625,24.845 302.727,34.982 302.727 L 50.303 302.727 50.303 188.939 C 50.303 126.356,50.379 75.152,50.472 75.152 C 50.565 75.152,51.145 75.548,51.760 76.032 C 52.375 76.516,55.742 78.979,59.242 81.505 C 62.742 84.031,65.947 86.352,66.364 86.664 C 66.780 86.975,69.303 88.811,71.970 90.744 C 74.636 92.676,78.250 95.298,80.000 96.570 C 83.100 98.823,83.752 99.300,88.485 102.775 C 89.735 103.692,92.121 105.422,93.788 106.617 C 97.040 108.951,101.795 112.404,103.030 113.329 C 103.447 113.641,105.970 115.480,108.636 117.415 C 111.303 119.350,113.692 121.104,113.946 121.314 C 114.200 121.523,115.086 122.158,115.916 122.725 C 116.746 123.292,118.242 124.385,119.242 125.154 C 120.242 125.922,121.879 127.120,122.879 127.814 C 123.879 128.509,125.720 129.833,126.970 130.758 C 128.220 131.682,130.048 133.000,131.032 133.686 C 132.016 134.373,133.039 135.112,133.305 135.329 C 133.570 135.546,134.674 136.369,135.758 137.157 C 136.841 137.945,138.409 139.090,139.242 139.702 C 140.076 140.313,142.871 142.343,145.455 144.211 C 148.038 146.080,150.356 147.772,150.606 147.971 C 150.856 148.170,152.476 149.356,154.205 150.606 C 155.934 151.856,159.275 154.280,161.629 155.993 C 163.983 157.706,166.659 159.649,167.576 160.310 C 170.249 162.237,172.024 163.529,178.179 168.030 C 181.370 170.364,184.575 172.688,185.301 173.195 C 186.027 173.702,187.007 174.410,187.477 174.769 C 188.681 175.685,193.354 179.095,196.107 181.067 C 199.019 183.152,198.568 183.223,203.034 179.982 C 205.116 178.472,208.169 176.256,209.821 175.057 C 211.473 173.859,213.382 172.468,214.064 171.965 C 214.745 171.463,217.348 169.565,219.848 167.749 C 225.088 163.941,226.158 163.158,230.909 159.655 C 232.826 158.241,235.621 156.209,237.121 155.138 C 238.621 154.067,240.735 152.539,241.818 151.742 C 242.902 150.946,244.061 150.101,244.394 149.866 C 244.727 149.631,246.364 148.433,248.030 147.203 C 249.697 145.974,252.697 143.782,254.697 142.331 C 260.764 137.932,263.745 135.756,264.644 135.072 C 265.115 134.713,266.091 134.005,266.813 133.498 C 267.535 132.991,269.195 131.793,270.502 130.835 C 275.281 127.336,279.624 124.167,282.980 121.734 C 284.869 120.363,287.392 118.523,288.586 117.645 C 289.781 116.766,291.563 115.485,292.547 114.798 C 293.531 114.112,294.554 113.372,294.820 113.155 C 295.086 112.939,296.189 112.116,297.273 111.328 C 298.356 110.540,299.924 109.397,300.758 108.788 C 301.591 108.179,304.318 106.195,306.818 104.378 C 309.318 102.561,311.927 100.662,312.615 100.159 C 317.960 96.246,321.266 93.842,330.758 86.963 C 332.591 85.635,337.159 82.312,340.909 79.580 C 344.659 76.848,347.830 74.673,347.955 74.748 C 348.382 75.004,348.230 302.656,347.803 302.841 C 347.595 302.931,354.679 302.977,363.546 302.942 C 375.970 302.893,379.754 302.792,380.046 302.500 C 380.254 302.292,380.738 302.121,381.121 302.121 C 381.505 302.121,381.818 301.985,381.818 301.818 C 381.818 301.652,382.227 301.515,382.727 301.515 C 383.227 301.515,383.636 301.379,383.636 301.212 C 383.636 301.045,383.909 300.909,384.242 300.909 C 384.576 300.909,384.848 300.773,384.848 300.606 C 384.848 300.439,385.091 300.303,385.388 300.303 C 385.684 300.303,386.123 300.030,386.364 299.697 C 386.604 299.364,387.013 299.091,387.273 299.091 C 387.532 299.091,387.942 298.818,388.182 298.485 C 388.422 298.152,388.791 297.879,389.001 297.879 C 389.524 297.879,393.231 294.133,393.478 293.355 C 393.588 293.010,393.804 292.727,393.960 292.727 C 394.115 292.727,394.242 292.485,394.242 292.188 C 394.242 291.892,394.515 291.452,394.848 291.212 C 395.182 290.972,395.455 290.533,395.455 290.236 C 395.455 289.940,395.591 289.697,395.758 289.697 C 395.924 289.697,396.061 289.424,396.061 289.091 C 396.061 288.758,396.197 288.485,396.364 288.485 C 396.530 288.485,396.667 288.076,396.667 287.576 C 396.667 287.076,396.803 286.667,396.970 286.667 C 397.136 286.667,397.273 286.258,397.273 285.758 C 397.273 285.258,397.409 284.848,397.576 284.848 C 397.742 284.848,397.879 284.235,397.879 283.485 C 397.879 282.735,398.015 282.121,398.182 282.121 C 398.383 282.121,398.485 239.697,398.485 155.455 C 398.485 71.212,398.586 28.788,398.788 28.788 C 398.973 28.788,399.091 27.374,399.091 25.152 C 399.091 22.929,398.973 21.515,398.788 21.515 C 398.621 21.515,398.485 20.902,398.485 20.152 C 398.485 19.402,398.348 18.788,398.182 18.788 C 398.015 18.788,397.879 18.242,397.879 17.576 C 397.879 16.909,397.742 16.364,397.576 16.364 C 397.409 16.364,397.273 16.091,397.273 15.758 C 397.273 15.424,397.136 15.152,396.970 15.152 C 396.803 15.152,396.667 14.879,396.667 14.545 C 396.667 14.212,396.530 13.939,396.364 13.939 C 396.197 13.939,396.061 13.667,396.061 13.333 C 396.061 13.000,395.924 12.727,395.758 12.727 C 395.591 12.727,395.455 12.485,395.455 12.188 C 395.455 11.892,395.182 11.452,394.848 11.212 C 394.515 10.972,394.242 10.567,394.241 10.312 C 394.239 9.715,388.340 3.939,387.732 3.939 C 387.480 3.939,387.273 3.803,387.273 3.636 C 387.273 3.470,387.030 3.333,386.734 3.333 C 386.437 3.333,385.998 3.061,385.758 2.727 C 385.517 2.394,385.078 2.121,384.782 2.121 C 384.485 2.121,384.242 1.985,384.242 1.818 C 384.242 1.652,383.833 1.515,383.333 1.515 C 382.833 1.515,382.424 1.379,382.424 1.212 C 382.424 1.045,382.163 0.909,381.843 0.909 C 381.524 0.909,381.206 0.739,381.137 0.532 C 381.010 0.153,369.167 -0.105,366.151 0.205 " stroke="none" fill="#c94336" fill-rule="evenodd"></path><path id="path1" d="M29.394 1.212 C 29.394 1.379,29.873 1.515,30.459 1.515 C 31.044 1.515,31.760 1.635,32.050 1.781 C 32.339 1.927,33.121 2.210,33.788 2.409 C 35.387 2.886,38.786 4.554,39.527 5.225 C 39.850 5.518,40.293 5.758,40.512 5.758 C 40.730 5.758,40.909 5.865,40.909 5.995 C 40.909 6.126,41.313 6.472,41.807 6.763 C 42.301 7.055,42.881 7.462,43.095 7.668 C 43.309 7.874,45.394 9.402,47.727 11.064 C 50.061 12.725,52.145 14.252,52.360 14.456 C 52.574 14.660,53.153 15.066,53.647 15.358 C 54.141 15.650,54.545 15.995,54.545 16.126 C 54.545 16.257,54.681 16.364,54.846 16.364 C 55.116 16.364,56.734 17.500,58.788 19.132 C 59.205 19.464,59.920 19.960,60.379 20.236 C 60.837 20.511,61.212 20.844,61.212 20.974 C 61.212 21.105,61.347 21.212,61.512 21.212 C 61.677 21.212,62.597 21.799,63.557 22.516 C 64.517 23.234,66.189 24.469,67.273 25.261 C 68.356 26.052,69.483 26.897,69.776 27.138 C 70.070 27.379,70.371 27.576,70.446 27.576 C 70.573 27.576,75.263 31.028,76.443 31.989 C 76.736 32.228,77.111 32.424,77.276 32.424 C 77.441 32.424,77.576 32.531,77.576 32.662 C 77.576 32.793,77.951 33.124,78.409 33.399 C 78.867 33.674,79.515 34.117,79.848 34.384 C 80.182 34.651,82.159 36.100,84.242 37.603 C 86.326 39.106,88.371 40.610,88.788 40.944 C 89.205 41.279,89.920 41.778,90.379 42.054 C 90.837 42.329,91.212 42.662,91.212 42.793 C 91.212 42.923,91.396 43.030,91.622 43.030 C 91.847 43.030,92.459 43.439,92.983 43.939 C 93.506 44.439,94.046 44.848,94.183 44.848 C 94.319 44.848,94.696 45.091,95.019 45.387 C 95.342 45.683,96.083 46.256,96.667 46.660 C 97.250 47.064,97.795 47.470,97.879 47.561 C 97.962 47.653,98.712 48.197,99.545 48.772 C 101.244 49.944,105.662 53.160,106.370 53.740 C 106.624 53.948,107.511 54.584,108.340 55.153 C 109.891 56.216,112.165 57.887,113.110 58.656 C 113.403 58.895,113.708 59.091,113.788 59.091 C 113.867 59.091,114.173 59.289,114.466 59.532 C 114.760 59.775,116.432 61.008,118.182 62.273 C 119.932 63.537,121.571 64.743,121.825 64.951 C 122.079 65.160,122.965 65.793,123.795 66.357 C 124.624 66.922,125.371 67.468,125.455 67.570 C 125.538 67.673,126.083 68.087,126.667 68.491 C 127.250 68.895,127.992 69.468,128.315 69.764 C 128.638 70.061,129.081 70.303,129.300 70.303 C 129.518 70.303,129.697 70.410,129.697 70.541 C 129.697 70.671,130.101 71.017,130.595 71.309 C 131.089 71.601,131.669 72.006,131.883 72.211 C 132.097 72.415,134.182 73.940,136.515 75.599 C 138.848 77.259,140.826 78.696,140.909 78.793 C 140.992 78.889,141.538 79.296,142.121 79.697 C 142.705 80.098,143.250 80.507,143.333 80.606 C 143.417 80.705,143.962 81.115,144.545 81.515 C 145.129 81.916,145.674 82.318,145.758 82.410 C 145.841 82.501,146.138 82.712,146.418 82.879 C 147.267 83.384,157.408 90.723,158.492 91.617 C 158.745 91.826,159.629 92.462,160.455 93.030 C 161.280 93.598,162.164 94.231,162.417 94.436 C 163.385 95.218,165.666 96.883,167.121 97.871 C 167.955 98.437,168.705 98.983,168.788 99.086 C 168.931 99.262,172.304 101.697,175.407 103.865 C 176.183 104.407,177.023 105.022,177.273 105.233 C 177.523 105.443,178.205 105.949,178.788 106.358 C 179.371 106.767,180.024 107.271,180.238 107.479 C 180.453 107.687,181.032 108.096,181.526 108.388 C 182.020 108.680,182.424 109.026,182.424 109.156 C 182.424 109.287,182.603 109.394,182.822 109.394 C 183.040 109.394,183.483 109.633,183.806 109.925 C 184.130 110.218,186.098 111.680,188.182 113.175 C 192.187 116.049,194.212 117.539,195.455 118.526 C 195.871 118.858,196.587 119.354,197.045 119.630 C 197.504 119.905,197.879 120.238,197.879 120.368 C 197.879 120.855,199.606 120.585,200.233 120.000 C 200.591 119.667,201.026 119.394,201.199 119.394 C 201.373 119.394,201.515 119.287,201.515 119.156 C 201.515 119.026,201.890 118.693,202.348 118.417 C 202.807 118.142,203.523 117.645,203.939 117.314 C 205.199 116.313,207.232 114.818,211.212 111.967 C 213.295 110.475,215.068 109.176,215.152 109.082 C 215.235 108.988,215.780 108.580,216.364 108.175 C 216.947 107.771,217.689 107.198,218.012 106.902 C 218.335 106.606,218.767 106.364,218.971 106.364 C 219.176 106.364,219.389 106.255,219.444 106.123 C 219.542 105.892,224.140 102.454,229.848 98.345 C 231.348 97.265,232.712 96.271,232.879 96.137 C 233.045 96.003,233.659 95.557,234.242 95.148 C 234.826 94.738,235.508 94.238,235.758 94.036 C 236.008 93.835,237.030 93.074,238.030 92.346 C 239.030 91.617,241.417 89.865,243.333 88.453 C 245.250 87.040,247.295 85.556,247.879 85.154 C 248.462 84.752,249.008 84.339,249.091 84.237 C 249.174 84.135,249.924 83.589,250.758 83.025 C 251.591 82.460,252.428 81.856,252.617 81.681 C 252.806 81.506,254.567 80.205,256.529 78.788 C 261.176 75.434,264.724 72.836,266.119 71.767 C 266.734 71.295,267.382 70.909,267.558 70.909 C 267.734 70.909,267.879 70.802,267.879 70.671 C 267.879 70.541,268.283 70.195,268.777 69.903 C 269.271 69.611,269.850 69.203,270.065 68.995 C 270.279 68.787,270.932 68.282,271.515 67.873 C 272.098 67.464,272.780 66.965,273.030 66.764 C 273.512 66.375,275.233 65.116,280.152 61.551 C 281.818 60.344,283.523 59.083,283.939 58.750 C 284.356 58.417,285.072 57.919,285.530 57.643 C 285.989 57.368,286.364 57.035,286.364 56.904 C 286.364 56.774,286.498 56.667,286.663 56.667 C 286.828 56.667,287.203 56.469,287.497 56.228 C 288.188 55.659,294.530 50.988,298.026 48.474 C 299.524 47.397,300.956 46.354,301.208 46.156 C 303.128 44.653,304.598 43.636,304.851 43.636 C 305.016 43.636,305.152 43.529,305.152 43.399 C 305.152 43.268,305.527 42.935,305.985 42.660 C 306.443 42.384,307.159 41.885,307.576 41.551 C 308.324 40.951,311.194 38.836,315.909 35.409 C 317.242 34.440,318.470 33.539,318.636 33.406 C 318.803 33.274,319.417 32.835,320.000 32.431 C 320.583 32.027,321.129 31.615,321.212 31.515 C 321.295 31.416,321.841 31.007,322.424 30.606 C 323.008 30.205,323.553 29.793,323.636 29.689 C 323.720 29.585,324.606 28.937,325.606 28.248 C 327.459 26.973,333.715 22.404,334.552 21.716 C 334.806 21.507,335.689 20.871,336.515 20.303 C 337.341 19.735,338.224 19.099,338.478 18.889 C 338.867 18.568,342.941 15.584,345.000 14.111 C 345.333 13.873,347.106 12.571,348.939 11.219 C 350.773 9.867,353.091 8.198,354.091 7.509 C 355.091 6.821,355.977 6.173,356.061 6.069 C 356.144 5.965,356.689 5.552,357.273 5.152 C 357.856 4.751,358.402 4.330,358.485 4.217 C 358.694 3.932,361.122 2.528,362.500 1.895 C 363.125 1.607,363.636 1.268,363.636 1.141 C 363.636 1.013,288.432 0.909,196.515 0.909 C 85.303 0.909,29.394 1.010,29.394 1.212 M50.608 193.864 L 50.606 302.727 158.485 302.727 C 268.635 302.727,268.148 302.732,266.136 301.759 C 266.011 301.698,260.789 296.471,254.532 290.143 C 248.274 283.814,228.764 264.114,211.176 246.364 C 193.587 228.614,177.381 212.219,175.162 209.931 C 172.943 207.643,170.882 205.694,170.583 205.599 C 170.126 205.454,136.281 171.753,135.775 170.939 C 135.682 170.790,119.314 154.256,99.402 134.197 C 79.490 114.139,60.366 94.864,56.904 91.364 L 50.610 85.000 50.608 193.864 " stroke="none" fill="#dedddd" fill-rule="evenodd"></path><path id="path2" d="M50.606 80.484 L 50.606 84.982 56.901 91.355 C 60.364 94.860,79.489 114.139,99.401 134.197 C 119.314 154.256,135.682 170.790,135.775 170.939 C 136.281 171.753,170.126 205.454,170.583 205.599 C 170.882 205.694,172.943 207.643,175.162 209.931 C 177.381 212.219,193.587 228.614,211.176 246.364 C 228.764 264.114,248.274 283.814,254.532 290.143 C 260.789 296.471,266.011 301.698,266.136 301.759 C 266.261 301.819,266.364 302.062,266.364 302.298 C 266.364 302.655,267.460 302.727,272.879 302.727 C 277.020 302.727,279.394 302.617,279.394 302.424 C 279.394 302.224,290.960 302.121,313.485 302.121 L 347.576 302.121 347.576 189.091 C 347.576 98.868,347.499 76.061,347.197 76.061 C 346.989 76.062,346.341 76.470,345.758 76.970 C 345.174 77.469,344.577 77.878,344.429 77.878 C 344.282 77.878,343.941 78.122,343.672 78.420 C 343.402 78.718,342.364 79.496,341.364 80.150 C 340.364 80.803,339.281 81.583,338.958 81.881 C 338.635 82.180,338.222 82.424,338.040 82.424 C 337.858 82.424,337.513 82.697,337.273 83.030 C 337.032 83.364,336.648 83.636,336.418 83.636 C 336.189 83.636,335.619 84.045,335.152 84.545 C 334.684 85.045,334.151 85.455,333.967 85.455 C 333.782 85.455,333.203 85.864,332.680 86.364 C 332.156 86.864,331.574 87.273,331.386 87.273 C 331.197 87.273,330.846 87.545,330.606 87.879 C 330.366 88.212,329.995 88.485,329.782 88.485 C 329.568 88.485,329.394 88.592,329.394 88.723 C 329.394 88.853,329.019 89.182,328.561 89.454 C 328.102 89.725,327.318 90.300,326.818 90.731 C 326.318 91.162,325.750 91.515,325.556 91.515 C 325.361 91.515,325.157 91.630,325.101 91.771 C 324.972 92.097,321.029 94.848,320.690 94.848 C 320.551 94.848,320.240 95.121,320.000 95.455 C 319.760 95.788,319.409 96.061,319.220 96.061 C 319.032 96.061,318.450 96.470,317.926 96.970 C 317.403 97.470,316.838 97.879,316.669 97.879 C 316.501 97.879,316.364 97.986,316.364 98.116 C 316.364 98.247,315.989 98.576,315.530 98.848 C 315.072 99.119,314.288 99.694,313.788 100.125 C 313.288 100.556,312.770 100.909,312.638 100.909 C 312.505 100.909,312.056 101.250,311.639 101.667 C 311.222 102.083,310.761 102.424,310.614 102.424 C 310.467 102.424,310.166 102.599,309.946 102.813 C 309.726 103.027,308.386 104.011,306.970 104.999 C 305.553 105.987,304.348 106.903,304.293 107.034 C 304.237 107.165,303.999 107.273,303.763 107.273 C 303.527 107.273,303.333 107.380,303.333 107.510 C 303.333 107.641,302.929 107.987,302.435 108.279 C 301.941 108.570,301.362 108.979,301.147 109.187 C 300.933 109.395,300.280 109.898,299.697 110.305 C 299.114 110.711,298.372 111.286,298.049 111.583 C 297.726 111.879,297.313 112.121,297.131 112.121 C 296.949 112.121,296.604 112.394,296.364 112.727 C 296.123 113.061,295.778 113.333,295.596 113.333 C 295.415 113.333,295.001 113.576,294.678 113.872 C 294.355 114.168,293.614 114.744,293.030 115.152 C 292.447 115.559,291.833 116.001,291.667 116.133 C 290.097 117.375,288.462 118.485,288.200 118.485 C 288.023 118.485,287.879 118.592,287.879 118.723 C 287.879 118.853,287.504 119.182,287.045 119.454 C 286.587 119.725,285.803 120.300,285.303 120.731 C 284.803 121.162,284.290 121.515,284.164 121.515 C 284.037 121.515,283.506 121.924,282.983 122.424 C 282.459 122.924,281.877 123.333,281.689 123.333 C 281.500 123.333,281.149 123.606,280.909 123.939 C 280.669 124.273,280.324 124.545,280.142 124.545 C 279.960 124.545,279.542 124.784,279.213 125.076 C 278.082 126.079,276.206 127.472,273.182 129.556 C 271.515 130.704,269.887 131.887,269.564 132.185 C 269.241 132.483,268.828 132.727,268.646 132.727 C 268.464 132.727,268.119 133.000,267.879 133.333 C 267.639 133.667,267.337 133.939,267.209 133.939 C 266.986 133.939,266.133 134.579,265.291 135.379 C 265.071 135.587,264.815 135.758,264.722 135.758 C 264.629 135.758,264.312 135.953,264.019 136.192 C 262.440 137.478,260.564 138.788,260.300 138.788 C 260.135 138.788,259.999 138.890,259.998 139.015 C 259.997 139.140,259.485 139.582,258.862 139.997 C 258.238 140.412,257.659 140.828,257.576 140.921 C 257.492 141.014,256.265 141.897,254.848 142.882 C 253.432 143.868,252.227 144.782,252.172 144.913 C 252.116 145.044,251.947 145.152,251.796 145.152 C 251.537 145.152,250.723 145.749,249.836 146.591 C 249.617 146.799,249.291 146.970,249.113 146.970 C 248.934 146.970,248.788 147.077,248.788 147.207 C 248.788 147.338,248.413 147.667,247.955 147.939 C 247.496 148.210,246.712 148.785,246.212 149.216 C 245.712 149.647,245.196 149.999,245.065 150.000 C 244.934 150.000,244.525 150.280,244.156 150.622 C 243.348 151.371,237.159 155.901,235.985 156.602 C 235.527 156.876,235.152 157.207,235.152 157.338 C 235.152 157.469,234.947 157.576,234.697 157.576 C 234.447 157.576,234.242 157.712,234.242 157.879 C 234.242 158.045,234.038 158.182,233.788 158.182 C 233.538 158.182,233.333 158.289,233.333 158.420 C 233.333 158.550,232.929 158.896,232.435 159.188 C 231.941 159.479,231.362 159.888,231.147 160.096 C 230.933 160.304,230.280 160.809,229.697 161.218 C 229.114 161.627,228.432 162.133,228.182 162.343 C 227.932 162.553,227.092 163.169,226.316 163.711 C 223.064 165.983,219.822 168.339,219.448 168.702 C 219.228 168.916,218.931 169.091,218.788 169.091 C 218.645 169.091,218.348 169.266,218.128 169.480 C 217.907 169.693,217.250 170.198,216.667 170.601 C 216.083 171.005,215.538 171.416,215.455 171.515 C 215.371 171.615,214.826 172.024,214.242 172.424 C 213.659 172.825,213.114 173.236,213.030 173.339 C 212.947 173.441,212.200 173.987,211.370 174.552 C 210.541 175.116,209.655 175.747,209.401 175.953 C 208.555 176.639,204.112 179.862,202.576 180.903 C 201.742 181.468,200.992 182.015,200.909 182.119 C 200.495 182.635,199.188 183.333,198.636 183.333 C 198.282 183.333,195.196 185.596,191.506 188.561 C 187.928 191.436,184.644 194.061,184.209 194.394 C 183.774 194.727,180.706 197.189,177.391 199.865 C 174.076 202.541,171.205 204.825,171.012 204.942 C 170.797 205.072,166.338 200.795,159.497 193.896 C 153.357 187.704,144.515 178.794,139.848 174.096 C 135.182 169.398,125.568 159.635,118.485 152.401 C 111.402 145.168,101.958 135.584,97.500 131.104 L 89.394 122.960 89.394 113.799 C 89.394 104.284,89.267 103.336,87.995 103.333 C 87.848 103.332,87.250 102.923,86.667 102.424 C 86.083 101.925,85.466 101.516,85.294 101.516 C 85.123 101.515,84.786 101.242,84.545 100.909 C 84.305 100.576,84.004 100.303,83.876 100.303 C 83.653 100.303,82.800 99.663,81.958 98.864 C 81.738 98.655,81.479 98.485,81.383 98.485 C 81.286 98.485,80.779 98.076,80.255 97.576 C 79.732 97.076,79.150 96.667,78.961 96.667 C 78.773 96.667,78.422 96.394,78.182 96.061 C 77.942 95.727,77.631 95.455,77.491 95.455 C 77.153 95.455,73.209 92.703,73.081 92.377 C 73.025 92.236,72.821 92.119,72.626 92.116 C 72.261 92.110,70.725 90.968,69.474 89.773 C 69.081 89.398,68.629 89.091,68.468 89.091 C 68.308 89.091,67.748 88.682,67.225 88.182 C 66.702 87.682,66.089 87.273,65.864 87.273 C 65.639 87.273,65.455 87.166,65.455 87.035 C 65.455 86.904,65.042 86.554,64.537 86.255 C 64.033 85.957,63.289 85.383,62.884 84.978 C 62.480 84.573,62.005 84.242,61.829 84.242 C 61.653 84.242,61.082 83.833,60.558 83.333 C 60.035 82.833,59.423 82.424,59.197 82.424 C 58.972 82.424,58.787 82.322,58.786 82.197 C 58.785 82.072,58.310 81.647,57.732 81.253 C 57.153 80.859,56.383 80.280,56.021 79.965 C 55.658 79.651,55.253 79.394,55.119 79.394 C 54.985 79.394,54.535 79.053,54.118 78.636 C 53.702 78.220,53.244 77.879,53.101 77.879 C 52.958 77.879,52.575 77.640,52.250 77.348 C 50.493 75.773,50.606 75.558,50.606 80.484 " stroke="none" fill="#bcbcbc" fill-rule="evenodd"></path><path id="path3" d="M345.152 76.855 C 343.902 77.766,342.538 78.787,342.121 79.123 C 341.705 79.459,340.989 79.960,340.530 80.236 C 340.072 80.511,339.697 80.860,339.697 81.012 C 339.697 81.174,339.852 81.173,340.076 81.008 C 340.284 80.855,341.068 80.328,341.818 79.837 C 342.568 79.346,343.402 78.705,343.672 78.412 C 343.941 78.119,344.282 77.878,344.429 77.878 C 344.577 77.878,345.174 77.469,345.758 76.970 C 346.341 76.470,346.989 76.062,347.197 76.061 C 347.499 76.061,347.576 98.868,347.576 189.091 L 347.576 302.121 313.485 302.121 C 290.862 302.121,279.394 302.224,279.394 302.426 C 279.394 302.628,290.836 302.704,313.561 302.653 L 347.727 302.576 347.803 188.864 C 347.845 126.322,347.777 75.162,347.652 75.175 C 347.527 75.188,346.402 75.944,345.152 76.855 M51.663 76.789 C 52.328 77.388,52.982 77.879,53.117 77.879 C 53.251 77.879,53.702 78.220,54.118 78.636 C 54.535 79.053,54.996 79.394,55.144 79.394 C 55.291 79.394,55.591 79.564,55.812 79.773 C 56.032 79.981,56.758 80.553,57.424 81.045 C 58.091 81.536,58.705 82.013,58.788 82.105 C 58.871 82.197,59.246 82.444,59.621 82.654 C 60.645 83.227,60.442 82.637,59.405 82.024 C 58.911 81.733,58.331 81.324,58.117 81.116 C 57.903 80.908,57.250 80.405,56.667 79.998 C 56.083 79.592,55.470 79.148,55.303 79.012 C 54.655 78.484,51.340 76.165,50.909 75.939 C 50.659 75.807,50.999 76.190,51.663 76.789 M338.356 81.836 C 338.035 82.160,337.899 82.420,338.053 82.415 C 338.410 82.402,339.394 81.662,339.394 81.406 C 339.394 81.054,338.948 81.239,338.356 81.836 M336.662 83.044 C 336.248 83.363,336.089 83.626,336.310 83.630 C 336.732 83.637,337.730 82.781,337.532 82.582 C 337.468 82.518,337.076 82.726,336.662 83.044 M60.606 83.203 C 60.606 83.524,61.469 84.242,61.854 84.242 C 62.071 84.242,61.956 83.982,61.585 83.636 C 60.930 83.027,60.606 82.883,60.606 83.203 M62.424 84.409 C 62.424 84.693,63.571 85.683,64.621 86.304 C 65.080 86.575,65.455 86.904,65.455 87.035 C 65.455 87.166,65.639 87.273,65.864 87.273 C 66.089 87.273,66.711 87.691,67.245 88.201 C 67.780 88.712,68.369 89.079,68.555 89.017 C 68.741 88.955,67.813 88.130,66.492 87.184 C 65.172 86.238,63.716 85.177,63.258 84.828 C 62.799 84.478,62.424 84.290,62.424 84.409 M334.238 84.862 C 333.824 85.181,333.665 85.444,333.885 85.448 C 334.308 85.455,335.306 84.599,335.107 84.400 C 335.043 84.336,334.652 84.544,334.238 84.862 M50.453 193.182 C 50.453 253.015,50.488 277.447,50.530 247.475 C 50.573 217.503,50.573 168.549,50.530 138.687 C 50.488 108.826,50.453 133.348,50.453 193.182 M331.970 86.525 C 331.470 86.934,331.197 87.270,331.364 87.271 C 331.530 87.271,332.063 86.931,332.547 86.515 C 333.686 85.536,333.165 85.545,331.970 86.525 M327.120 90.036 C 325.121 91.529,322.906 93.120,322.198 93.572 C 321.489 94.024,320.910 94.502,320.910 94.633 C 320.909 94.912,324.951 92.152,325.101 91.771 C 325.157 91.630,325.361 91.515,325.556 91.515 C 325.750 91.515,326.318 91.162,326.818 90.731 C 327.318 90.300,328.102 89.725,328.561 89.454 C 329.019 89.182,329.394 88.853,329.394 88.723 C 329.394 88.592,329.540 88.485,329.719 88.485 C 330.084 88.485,331.043 87.608,330.868 87.434 C 330.806 87.372,329.119 88.542,327.120 90.036 M69.091 89.347 C 69.091 89.517,69.534 89.968,70.076 90.350 C 70.617 90.732,71.325 91.286,71.648 91.583 C 71.971 91.879,72.403 92.121,72.608 92.121 C 72.812 92.121,73.025 92.236,73.081 92.377 C 73.203 92.687,77.145 95.455,77.464 95.455 C 77.588 95.455,77.397 95.182,77.040 94.848 C 76.682 94.515,76.317 94.242,76.228 94.242 C 76.140 94.242,75.827 94.047,75.534 93.808 C 74.946 93.329,73.127 91.975,70.682 90.196 C 69.807 89.560,69.091 89.178,69.091 89.347 M77.879 95.625 C 77.879 95.852,78.691 96.667,78.918 96.667 C 79.303 96.667,79.054 96.183,78.485 95.828 C 78.152 95.620,77.879 95.528,77.879 95.625 M80.303 97.420 C 80.303 97.676,81.108 98.485,81.364 98.485 C 81.471 98.485,81.738 98.655,81.958 98.864 C 82.800 99.663,83.653 100.303,83.876 100.303 C 84.004 100.303,84.305 100.576,84.545 100.909 C 84.786 101.242,85.123 101.515,85.294 101.516 C 85.466 101.516,86.083 101.925,86.667 102.424 C 87.250 102.923,87.848 103.332,87.995 103.333 C 89.267 103.336,89.394 104.284,89.394 113.799 L 89.394 122.960 97.500 131.104 C 101.958 135.584,111.402 145.168,118.485 152.401 C 125.568 159.635,135.182 169.398,139.848 174.096 C 144.515 178.794,153.357 187.704,159.497 193.896 C 166.338 200.795,170.797 205.072,171.012 204.942 C 171.205 204.825,174.076 202.541,177.391 199.865 C 180.706 197.189,183.774 194.727,184.209 194.394 C 184.644 194.061,187.928 191.436,191.506 188.561 C 195.814 185.100,198.272 183.321,198.779 183.297 L 199.545 183.262 198.718 183.070 C 198.262 182.965,197.649 182.674,197.354 182.424 C 197.059 182.174,195.386 180.953,193.636 179.711 C 191.886 178.468,189.500 176.755,188.333 175.904 C 187.167 175.052,185.326 173.709,184.242 172.918 C 183.159 172.128,182.068 171.317,181.818 171.115 C 181.568 170.914,180.886 170.414,180.303 170.004 C 179.720 169.594,179.106 169.149,178.939 169.014 C 178.688 168.810,172.540 164.351,170.455 162.859 C 168.374 161.370,164.321 158.401,163.933 158.081 C 163.679 157.871,162.796 157.235,161.970 156.667 C 161.144 156.098,160.261 155.463,160.007 155.254 C 159.563 154.890,155.522 151.947,151.543 149.091 C 150.498 148.341,149.348 147.477,148.988 147.170 C 148.628 146.864,147.958 146.391,147.500 146.120 C 147.042 145.849,146.667 145.520,146.667 145.389 C 146.667 145.258,146.462 145.152,146.212 145.152 C 145.962 145.152,145.758 145.015,145.758 144.848 C 145.758 144.682,145.553 144.545,145.303 144.545 C 145.053 144.545,144.848 144.438,144.848 144.308 C 144.848 144.177,144.473 143.845,144.015 143.571 C 143.557 143.296,142.909 142.852,142.576 142.585 C 142.242 142.318,140.265 140.871,138.182 139.370 C 136.098 137.868,134.189 136.474,133.939 136.270 C 133.689 136.067,133.008 135.568,132.424 135.162 C 131.841 134.756,131.295 134.338,131.212 134.234 C 131.129 134.130,130.174 133.452,129.091 132.727 C 128.008 132.002,127.053 131.320,126.970 131.212 C 126.886 131.104,126.000 130.452,125.000 129.763 C 123.147 128.488,116.891 123.919,116.054 123.231 C 115.800 123.022,114.917 122.386,114.091 121.818 C 113.265 121.250,112.382 120.617,112.128 120.412 C 111.161 119.631,108.880 117.965,107.424 116.977 C 106.591 116.412,105.841 115.865,105.758 115.763 C 105.614 115.587,102.241 113.151,99.138 110.984 C 98.362 110.442,97.523 109.826,97.273 109.616 C 97.023 109.406,96.341 108.901,95.758 108.495 C 95.174 108.089,94.629 107.675,94.545 107.576 C 94.462 107.476,93.917 107.067,93.333 106.667 C 92.750 106.266,92.205 105.864,92.121 105.772 C 92.038 105.681,91.742 105.470,91.464 105.303 C 90.957 104.999,84.008 99.987,81.591 98.182 C 80.883 97.653,80.303 97.310,80.303 97.420 M314.545 99.128 C 312.473 100.679,312.220 100.909,312.591 100.909 C 312.749 100.909,313.288 100.556,313.788 100.125 C 314.288 99.694,315.072 99.119,315.530 98.848 C 315.989 98.576,316.364 98.247,316.364 98.116 C 316.364 97.769,316.359 97.771,314.545 99.128 M310.000 102.471 C 308.917 103.295,307.451 104.338,306.743 104.788 C 306.035 105.238,305.455 105.715,305.455 105.849 C 305.455 106.083,309.128 103.597,309.946 102.810 C 310.166 102.598,310.452 102.424,310.581 102.424 C 310.903 102.424,312.249 101.237,312.094 101.090 C 312.026 101.026,311.083 101.647,310.000 102.471 M299.686 110.013 L 298.636 110.936 299.769 110.241 C 300.392 109.858,300.903 109.443,300.905 109.318 C 300.911 108.967,300.810 109.025,299.686 110.013 M297.571 111.529 C 297.157 111.847,296.955 112.106,297.121 112.105 C 297.522 112.101,298.630 111.256,298.458 111.084 C 298.385 111.011,297.985 111.211,297.571 111.529 M290.994 116.282 C 289.458 117.393,288.255 118.356,288.322 118.423 C 288.421 118.522,290.353 117.195,291.667 116.126 C 291.833 115.990,292.513 115.511,293.176 115.061 C 293.840 114.611,294.249 114.247,294.085 114.252 C 293.922 114.258,292.531 115.171,290.994 116.282 M284.719 120.779 C 284.398 121.014,284.194 121.264,284.265 121.336 C 284.336 121.407,284.657 121.274,284.978 121.039 C 285.299 120.804,285.503 120.554,285.432 120.482 C 285.361 120.411,285.040 120.545,284.719 120.779 M282.117 122.741 C 281.703 123.059,281.500 123.319,281.667 123.317 C 282.068 123.313,283.175 122.468,283.004 122.297 C 282.930 122.223,282.531 122.423,282.117 122.741 M277.576 126.081 C 277.159 126.418,275.839 127.367,274.642 128.190 C 273.445 129.014,272.374 129.836,272.261 130.019 C 272.148 130.201,272.991 129.698,274.134 128.901 C 277.053 126.864,278.878 125.453,278.584 125.461 C 278.446 125.465,277.992 125.744,277.576 126.081 M260.909 138.182 C 260.492 138.508,260.301 138.777,260.483 138.781 C 260.666 138.785,261.062 138.515,261.364 138.182 C 262.055 137.418,261.885 137.418,260.909 138.182 M258.516 139.874 C 257.949 140.277,257.616 140.606,257.775 140.606 C 257.934 140.606,258.526 140.265,259.091 139.848 C 260.406 138.879,259.884 138.902,258.516 139.874 M256.069 141.682 C 254.685 142.659,255.161 142.645,256.602 141.667 C 257.215 141.250,257.583 140.916,257.419 140.924 C 257.255 140.932,256.648 141.273,256.069 141.682 M245.285 149.536 C 244.962 149.781,244.833 149.981,245.000 149.981 C 245.167 149.981,245.568 149.781,245.891 149.536 C 246.215 149.291,246.343 149.091,246.176 149.091 C 246.010 149.091,245.609 149.291,245.285 149.536 M240.908 152.777 C 239.325 153.945,237.827 155.015,237.578 155.155 C 237.330 155.295,237.193 155.470,237.275 155.545 C 237.357 155.620,238.766 154.683,240.406 153.463 C 242.046 152.243,243.546 151.188,243.739 151.118 C 243.933 151.049,244.022 150.916,243.938 150.823 C 243.854 150.730,242.490 151.609,240.908 152.777 M227.062 162.907 L 226.212 163.692 227.273 163.005 C 228.654 162.110,228.641 162.121,228.249 162.121 C 228.064 162.121,227.530 162.475,227.062 162.907 M223.409 165.483 C 222.534 166.145,221.818 166.751,221.818 166.828 C 221.818 167.019,224.804 164.862,225.017 164.517 C 225.281 164.091,225.114 164.191,223.409 165.483 " stroke="none" fill="#b4b4b4" fill-rule="evenodd"></path><path id="path4" d="M27.514 1.272 C 27.714 1.471,28.593 1.735,29.469 1.857 C 30.344 1.979,31.470 2.158,31.970 2.254 C 32.821 2.418,32.812 2.401,31.818 1.995 C 31.235 1.756,30.383 1.551,29.924 1.538 C 29.466 1.526,29.091 1.379,29.091 1.212 C 29.091 1.045,28.655 0.909,28.121 0.909 C 27.368 0.909,27.233 0.990,27.514 1.272 M363.889 1.162 C 363.833 1.301,362.833 1.919,361.667 2.535 C 360.500 3.151,358.250 4.610,356.667 5.777 C 352.824 8.611,351.646 9.475,347.776 12.299 C 345.969 13.618,342.818 15.924,340.773 17.424 C 338.728 18.924,335.649 21.174,333.931 22.424 C 332.213 23.674,329.413 25.720,327.710 26.970 C 326.006 28.220,323.285 30.197,321.663 31.364 C 320.041 32.530,318.560 33.622,318.372 33.789 C 318.184 33.956,316.803 34.973,315.303 36.048 C 313.803 37.124,311.008 39.158,309.091 40.569 C 303.282 44.843,302.696 45.272,299.273 47.756 C 297.457 49.073,295.616 50.471,295.183 50.861 L 294.394 51.571 295.455 50.872 C 296.783 49.998,306.391 42.976,307.605 41.993 C 307.870 41.778,308.893 41.043,309.877 40.359 C 310.861 39.676,313.235 37.946,315.152 36.515 C 317.068 35.084,319.386 33.374,320.303 32.716 C 323.744 30.245,325.337 29.083,333.790 22.879 C 342.360 16.589,344.017 15.380,347.273 13.042 C 349.845 11.195,355.548 6.992,356.102 6.535 C 357.450 5.423,361.356 2.956,362.855 2.271 C 363.785 1.845,364.545 1.365,364.545 1.203 C 364.545 0.844,364.029 0.811,363.889 1.162 M33.333 2.698 C 33.583 2.876,33.960 3.023,34.170 3.026 C 35.346 3.040,40.109 5.968,45.758 10.149 C 47.008 11.075,48.780 12.373,49.697 13.035 C 50.614 13.697,52.114 14.786,53.030 15.455 C 53.947 16.123,55.515 17.239,56.515 17.934 C 57.515 18.628,58.402 19.276,58.485 19.373 C 58.568 19.470,59.659 20.286,60.909 21.185 C 62.159 22.084,63.625 23.156,64.167 23.567 C 64.708 23.978,65.152 24.191,65.152 24.041 C 65.152 23.890,64.747 23.528,64.253 23.237 C 63.760 22.945,63.180 22.533,62.966 22.321 C 62.751 22.110,61.758 21.370,60.758 20.677 C 59.758 19.985,57.015 18.015,54.663 16.300 C 52.312 14.585,49.257 12.364,47.876 11.364 C 46.494 10.364,44.220 8.693,42.821 7.652 C 41.423 6.610,40.222 5.758,40.153 5.758 C 40.084 5.758,39.509 5.406,38.877 4.976 C 36.977 3.684,31.626 1.485,33.333 2.698 M65.537 24.434 C 65.640 24.601,66.574 25.333,67.612 26.062 C 68.650 26.790,69.415 27.249,69.311 27.081 C 69.208 26.914,68.274 26.182,67.236 25.454 C 66.198 24.726,65.434 24.267,65.537 24.434 M69.700 27.482 C 69.701 27.617,70.485 28.247,71.442 28.882 C 72.399 29.517,74.068 30.697,75.152 31.503 C 79.031 34.391,80.606 35.472,80.592 35.238 C 80.584 35.107,78.982 33.876,77.031 32.502 C 75.081 31.128,72.633 29.381,71.591 28.620 C 70.549 27.860,69.698 27.347,69.700 27.482 M0.150 152.727 C 0.150 221.644,0.185 249.837,0.227 215.379 C 0.270 180.920,0.270 124.534,0.227 90.076 C 0.185 55.617,0.150 83.811,0.150 152.727 M80.909 35.534 C 80.909 35.619,82.170 36.612,83.712 37.741 C 85.254 38.870,87.197 40.295,88.030 40.908 C 89.777 42.192,94.409 45.560,95.303 46.196 C 97.129 47.495,105.674 53.721,106.061 54.034 C 106.311 54.237,108.083 55.526,110.000 56.899 C 111.917 58.273,114.337 60.017,115.379 60.776 C 116.420 61.536,117.266 62.047,117.258 61.912 C 117.249 61.777,115.866 60.712,114.185 59.545 C 112.503 58.379,110.975 57.285,110.791 57.115 C 110.606 56.945,108.569 55.445,106.266 53.782 C 103.962 52.118,101.371 50.245,100.508 49.619 C 99.645 48.993,98.189 47.939,97.273 47.277 C 96.356 46.615,94.154 45.013,92.380 43.718 C 90.606 42.423,87.470 40.149,85.410 38.665 C 83.351 37.181,81.496 35.834,81.288 35.673 C 81.080 35.512,80.909 35.450,80.909 35.534 M292.443 52.748 C 289.324 55.031,285.299 57.988,283.521 59.302 C 282.542 60.027,281.520 60.743,281.251 60.893 C 280.983 61.044,280.830 61.234,280.913 61.317 C 281.036 61.440,285.508 58.318,287.273 56.877 C 287.523 56.673,288.205 56.178,288.788 55.776 C 291.891 53.639,294.680 51.437,294.167 51.529 C 294.125 51.536,293.350 52.085,292.443 52.748 M275.303 65.320 C 272.470 67.408,269.402 69.655,268.485 70.313 C 264.736 73.008,256.826 78.766,252.727 81.784 C 246.525 86.351,245.073 87.414,240.455 90.775 C 237.955 92.594,235.295 94.539,234.545 95.098 C 230.518 98.098,220.513 105.411,216.667 108.168 C 215.750 108.825,211.456 111.960,207.124 115.136 C 202.792 118.311,199.109 120.909,198.938 120.909 C 198.601 120.909,196.871 119.741,193.333 117.123 C 190.150 114.767,187.576 112.985,187.576 113.136 C 187.576 113.263,191.935 116.516,193.939 117.883 C 194.523 118.282,195.068 118.686,195.152 118.782 C 195.583 119.280,198.539 121.212,198.870 121.212 C 199.231 121.212,201.016 120.103,202.090 119.211 C 202.357 118.990,203.803 117.918,205.303 116.830 C 206.803 115.742,209.667 113.664,211.667 112.214 C 214.887 109.879,219.968 106.151,222.121 104.543 C 222.538 104.232,223.833 103.283,225.000 102.434 C 226.167 101.584,228.689 99.742,230.606 98.340 C 232.523 96.937,235.045 95.092,236.212 94.239 C 237.379 93.387,238.674 92.434,239.091 92.123 C 240.701 90.922,249.932 84.157,251.515 83.020 C 252.432 82.361,253.932 81.275,254.848 80.606 C 255.765 79.937,257.265 78.846,258.182 78.182 C 259.098 77.517,260.555 76.461,261.419 75.835 C 262.282 75.209,264.644 73.470,266.667 71.970 C 268.689 70.470,271.006 68.765,271.816 68.182 C 277.708 63.935,279.045 62.954,279.848 62.289 C 281.947 60.553,280.126 61.767,275.303 65.320 M117.658 62.313 C 117.762 62.480,118.695 63.212,119.733 63.940 C 120.771 64.668,121.536 65.127,121.433 64.960 C 121.329 64.793,120.396 64.060,119.358 63.332 C 118.320 62.604,117.555 62.145,117.658 62.313 M121.835 65.353 C 121.844 65.492,123.241 66.593,124.941 67.799 C 129.605 71.111,135.954 75.703,138.493 77.603 C 139.739 78.534,141.371 79.722,142.121 80.243 C 142.871 80.764,145.803 82.887,148.636 84.961 C 151.470 87.035,153.845 88.676,153.914 88.608 C 153.984 88.540,153.984 88.443,153.914 88.392 C 153.845 88.340,152.356 87.287,150.606 86.052 C 148.856 84.816,147.356 83.724,147.273 83.625 C 147.189 83.526,146.439 82.982,145.606 82.417 C 144.773 81.851,143.541 80.974,142.869 80.467 C 141.385 79.348,130.697 71.557,128.197 69.772 C 127.789 69.481,126.903 68.831,126.228 68.328 C 122.936 65.877,121.820 65.121,121.835 65.353 M340.909 79.580 C 337.159 82.312,332.591 85.635,330.758 86.963 C 321.266 93.842,317.960 96.246,312.615 100.159 C 311.927 100.662,309.318 102.561,306.818 104.378 C 304.318 106.195,301.591 108.179,300.758 108.788 C 296.024 112.247,295.227 112.832,294.447 113.420 C 293.976 113.774,293.000 114.480,292.278 114.987 C 291.556 115.494,289.896 116.689,288.589 117.643 C 284.745 120.447,279.793 124.053,276.102 126.738 C 274.207 128.115,271.685 129.961,270.495 130.840 C 269.306 131.719,267.515 133.004,266.515 133.696 C 265.515 134.388,264.629 135.037,264.545 135.137 C 264.462 135.238,262.996 136.318,261.288 137.537 C 259.580 138.756,258.093 139.899,257.984 140.075 C 257.725 140.494,258.060 140.282,260.880 138.241 C 262.146 137.325,263.777 136.153,264.504 135.636 C 265.231 135.120,266.117 134.446,266.473 134.140 C 266.830 133.834,267.496 133.361,267.955 133.090 C 268.413 132.819,268.788 132.490,268.788 132.359 C 268.788 132.228,268.919 132.121,269.079 132.121 C 269.239 132.121,270.514 131.269,271.912 130.227 C 273.311 129.186,275.532 127.561,276.849 126.616 C 280.092 124.290,283.385 121.876,283.946 121.413 C 284.200 121.204,285.086 120.571,285.916 120.006 C 286.746 119.441,287.492 118.898,287.576 118.799 C 287.659 118.700,289.159 117.604,290.909 116.364 C 292.659 115.124,295.386 113.146,296.970 111.969 C 298.553 110.791,300.530 109.365,301.364 108.798 C 302.197 108.231,302.947 107.684,303.030 107.581 C 303.114 107.479,303.659 107.067,304.242 106.667 C 304.826 106.266,305.371 105.853,305.455 105.749 C 305.538 105.646,306.424 104.994,307.424 104.302 C 308.424 103.610,310.219 102.325,311.414 101.446 C 312.608 100.567,315.199 98.696,317.171 97.287 C 319.144 95.879,320.826 94.641,320.909 94.537 C 320.992 94.433,321.879 93.785,322.879 93.097 C 323.879 92.408,326.197 90.743,328.030 89.395 C 329.864 88.048,332.913 85.826,334.807 84.457 C 336.701 83.089,338.430 81.799,338.649 81.591 C 338.868 81.383,339.194 81.212,339.372 81.212 C 339.551 81.212,339.697 81.105,339.697 80.974 C 339.697 80.844,340.101 80.498,340.595 80.206 C 341.089 79.914,341.669 79.508,341.883 79.303 C 342.408 78.801,347.552 75.152,347.735 75.152 C 347.815 75.152,347.846 126.356,347.804 188.939 C 347.762 251.523,347.830 302.727,347.955 302.727 C 348.080 302.727,348.182 251.463,348.182 188.806 C 348.182 126.149,348.080 74.823,347.955 74.748 C 347.830 74.673,344.659 76.848,340.909 79.580 M50.366 79.924 L 50.430 84.697 50.594 80.215 L 50.758 75.734 52.576 77.051 C 54.678 78.574,55.152 78.875,55.152 78.690 C 55.152 78.537,50.640 75.152,50.437 75.152 C 50.363 75.152,50.332 77.299,50.366 79.924 M55.455 78.994 C 55.455 79.135,56.000 79.588,56.667 80.000 C 57.333 80.412,57.879 80.821,57.879 80.909 C 57.879 80.997,58.424 81.406,59.091 81.818 C 59.758 82.230,60.303 82.671,60.303 82.799 C 60.303 82.926,60.438 83.030,60.603 83.030 C 60.767 83.030,61.142 83.226,61.436 83.465 C 62.344 84.205,64.540 85.816,68.485 88.636 C 72.430 91.457,74.626 93.068,75.534 93.808 C 75.827 94.047,76.202 94.242,76.367 94.242 C 76.532 94.242,76.667 94.349,76.667 94.480 C 76.667 94.611,77.042 94.943,77.500 95.219 C 77.958 95.494,78.674 95.995,79.091 96.331 C 79.508 96.667,81.962 98.465,84.545 100.326 C 87.129 102.188,89.746 104.103,90.361 104.583 C 90.976 105.062,91.624 105.455,91.800 105.455 C 91.977 105.455,92.121 105.562,92.121 105.692 C 92.121 105.823,92.525 106.169,93.019 106.460 C 93.513 106.752,94.093 107.161,94.307 107.369 C 94.522 107.577,95.174 108.082,95.758 108.491 C 96.341 108.899,97.023 109.406,97.273 109.616 C 97.523 109.826,98.362 110.442,99.138 110.984 C 102.241 113.151,105.614 115.587,105.758 115.763 C 105.841 115.865,106.591 116.412,107.424 116.977 C 108.880 117.965,111.161 119.631,112.128 120.412 C 112.382 120.617,113.265 121.250,114.091 121.818 C 114.917 122.386,115.800 123.022,116.054 123.231 C 116.891 123.919,123.147 128.488,125.000 129.763 C 126.000 130.452,126.886 131.104,126.970 131.212 C 127.053 131.320,128.008 132.002,129.091 132.727 C 130.174 133.452,131.129 134.130,131.212 134.234 C 131.295 134.338,131.841 134.756,132.424 135.162 C 133.008 135.568,133.689 136.067,133.939 136.270 C 134.189 136.474,136.098 137.868,138.182 139.370 C 140.265 140.871,142.242 142.318,142.576 142.585 C 142.909 142.852,143.557 143.296,144.015 143.571 C 144.473 143.845,144.848 144.177,144.848 144.308 C 144.848 144.438,145.053 144.545,145.303 144.545 C 145.553 144.545,145.758 144.682,145.758 144.848 C 145.758 145.015,145.962 145.152,146.212 145.152 C 146.462 145.152,146.667 145.258,146.667 145.389 C 146.667 145.520,147.042 145.849,147.500 146.120 C 147.958 146.391,148.628 146.864,148.988 147.170 C 149.348 147.477,150.498 148.341,151.543 149.091 C 155.522 151.947,159.563 154.890,160.007 155.254 C 160.261 155.463,161.144 156.098,161.970 156.667 C 162.796 157.235,163.679 157.871,163.933 158.081 C 164.321 158.401,168.374 161.370,170.455 162.859 C 172.540 164.351,178.688 168.810,178.939 169.014 C 179.106 169.149,179.720 169.594,180.303 170.004 C 180.886 170.414,181.568 170.914,181.818 171.115 C 182.068 171.317,183.159 172.128,184.242 172.918 C 185.326 173.709,187.167 175.052,188.333 175.904 C 189.500 176.755,191.886 178.467,193.636 179.707 C 195.386 180.948,197.083 182.203,197.406 182.496 C 198.180 183.200,199.365 183.163,200.303 182.405 C 200.720 182.069,201.866 181.234,202.850 180.550 C 203.834 179.867,204.857 179.128,205.123 178.908 C 205.389 178.689,207.788 176.929,210.455 174.997 C 213.121 173.066,215.508 171.320,215.758 171.117 C 216.008 170.915,216.689 170.414,217.273 170.004 C 217.856 169.594,218.470 169.149,218.636 169.014 C 218.945 168.766,222.604 166.098,226.015 163.636 C 230.997 160.040,233.245 158.396,233.939 157.841 C 234.356 157.508,235.072 157.010,235.530 156.734 C 235.989 156.458,236.364 156.126,236.364 155.995 C 236.364 155.865,236.498 155.758,236.663 155.758 C 236.828 155.758,237.203 155.560,237.497 155.317 C 237.986 154.914,241.441 152.376,244.394 150.251 C 245.061 149.771,247.075 148.295,248.870 146.972 C 250.665 145.649,252.779 144.125,253.567 143.585 C 254.355 143.046,255.175 142.432,255.390 142.222 C 255.604 142.012,256.184 141.601,256.678 141.309 C 257.172 141.017,257.576 140.655,257.576 140.504 C 257.576 140.351,257.408 140.360,257.197 140.525 C 256.989 140.688,254.773 142.303,252.273 144.115 C 249.773 145.927,247.175 147.821,246.500 148.326 C 245.825 148.830,244.938 149.479,244.530 149.768 C 244.122 150.057,242.902 150.946,241.818 151.742 C 240.735 152.539,238.621 154.067,237.121 155.138 C 235.621 156.209,232.826 158.241,230.909 159.655 C 226.158 163.158,225.088 163.941,219.848 167.749 C 217.348 169.565,214.745 171.463,214.064 171.965 C 213.382 172.468,211.473 173.859,209.821 175.057 C 208.169 176.256,205.116 178.472,203.034 179.982 C 198.568 183.223,199.019 183.152,196.107 181.067 C 193.354 179.095,188.681 175.685,187.477 174.769 C 187.007 174.410,186.027 173.702,185.301 173.195 C 184.575 172.688,181.370 170.364,178.179 168.030 C 172.024 163.529,170.249 162.237,167.576 160.310 C 166.659 159.649,163.983 157.706,161.629 155.993 C 159.275 154.280,155.934 151.856,154.205 150.606 C 152.476 149.356,150.856 148.170,150.606 147.971 C 150.356 147.772,148.038 146.080,145.455 144.211 C 142.871 142.343,140.076 140.313,139.242 139.702 C 138.409 139.090,136.841 137.945,135.758 137.157 C 134.674 136.369,133.570 135.546,133.305 135.329 C 133.039 135.112,132.016 134.373,131.032 133.686 C 130.048 133.000,128.220 131.682,126.970 130.758 C 125.720 129.833,123.879 128.509,122.879 127.814 C 121.879 127.120,120.242 125.922,119.242 125.154 C 118.242 124.385,116.746 123.292,115.916 122.725 C 115.086 122.158,114.200 121.523,113.946 121.314 C 113.692 121.104,111.303 119.350,108.636 117.415 C 105.970 115.480,103.447 113.641,103.030 113.329 C 101.795 112.404,97.040 108.951,93.788 106.617 C 92.121 105.422,89.735 103.692,88.485 102.775 C 83.752 99.300,83.100 98.823,80.000 96.570 C 78.250 95.298,74.636 92.676,71.970 90.744 C 69.303 88.811,66.780 86.976,66.364 86.667 C 65.947 86.357,63.970 84.917,61.970 83.467 C 59.970 82.017,57.686 80.359,56.894 79.783 C 56.102 79.207,55.455 78.852,55.455 78.994 M154.360 89.036 C 154.483 89.235,155.412 89.960,156.425 90.648 C 157.439 91.336,158.187 91.769,158.089 91.611 C 157.992 91.452,157.062 90.727,156.024 89.999 C 154.986 89.271,154.237 88.838,154.360 89.036 M158.490 92.053 C 158.493 92.174,159.141 92.710,159.930 93.246 C 160.718 93.781,162.216 94.834,163.258 95.586 C 164.299 96.338,165.149 96.855,165.146 96.734 C 165.143 96.614,164.495 96.077,163.707 95.542 C 162.918 95.007,161.420 93.954,160.379 93.202 C 159.337 92.450,158.487 91.933,158.490 92.053 M165.547 97.177 C 165.645 97.335,166.574 98.061,167.612 98.789 C 168.650 99.517,169.399 99.950,169.276 99.752 C 169.154 99.553,168.224 98.828,167.211 98.140 C 166.198 97.452,165.449 97.019,165.547 97.177 M170.332 100.644 C 170.764 101.040,172.179 102.114,173.477 103.030 C 174.774 103.947,175.989 104.841,176.176 105.017 C 176.362 105.192,177.333 105.904,178.333 106.599 C 179.333 107.293,181.379 108.759,182.879 109.857 C 184.379 110.955,186.006 112.145,186.494 112.501 C 186.983 112.858,187.290 113.000,187.177 112.817 C 187.064 112.634,185.859 111.687,184.501 110.712 C 183.142 109.737,180.926 108.120,179.576 107.120 C 176.756 105.029,170.673 100.643,170.000 100.214 C 169.750 100.055,169.899 100.248,170.332 100.644 " stroke="none" fill="#cf8c8a" fill-rule="evenodd"></path></g></svg>