<svg id="svg" version="1.1" xmlns="http://www.w3.org/2000/svg" xmlns:xlink="http://www.w3.org/1999/xlink" width="400" height="400" viewBox="0, 0, 400,400"><g id="svgg"><path id="path0" d="M95.400 234.400 C 95.247 234.647,91.737 234.800,86.199 234.800 C 77.400 234.800,77.235 234.815,76.623 235.689 C 75.671 237.047,75.671 393.353,76.623 394.711 L 77.245 395.600 203.451 395.600 C 339.415 395.600,330.800 395.732,330.800 393.652 C 330.800 393.209,330.980 392.736,331.200 392.600 C 331.464 392.437,331.600 366.063,331.600 314.776 C 331.600 263.325,331.465 237.200,331.200 237.200 C 330.980 237.200,330.800 236.745,330.800 236.190 C 330.800 235.388,330.553 235.131,329.600 234.940 C 328.940 234.808,328.400 234.543,328.400 234.350 C 328.400 233.861,320.904 233.909,320.600 234.400 C 320.295 234.893,314.931 234.935,314.629 234.447 C 314.310 233.931,306.400 233.870,306.400 234.384 C 306.400 234.613,306.027 234.800,305.571 234.800 C 303.485 234.800,303.600 230.933,303.600 300.971 C 303.600 344.057,303.465 366.000,303.200 366.000 C 302.980 366.000,302.800 366.360,302.800 366.800 C 302.800 367.325,302.533 367.600,302.024 367.600 C 301.597 367.600,301.136 367.780,301.000 368.000 C 300.602 368.643,106.870 368.544,105.483 367.900 C 104.728 367.549,104.405 367.095,104.403 366.380 C 104.401 365.819,104.229 365.189,104.020 364.980 C 103.782 364.742,103.778 364.000,104.010 363.000 C 104.618 360.376,104.503 238.924,103.891 237.200 C 103.145 235.100,102.859 234.800,101.600 234.800 C 100.966 234.800,100.336 234.620,100.200 234.400 C 100.064 234.180,98.984 234.000,97.800 234.000 C 96.616 234.000,95.536 234.180,95.400 234.400 " stroke="none" fill="#bcbcbc" fill-rule="evenodd"></path><path id="path1" d="M349.000 7.200 C 348.864 7.420,347.784 7.600,346.600 7.600 C 345.416 7.600,344.336 7.780,344.200 8.000 C 344.064 8.220,342.984 8.400,341.800 8.400 C 340.616 8.400,339.554 8.551,339.439 8.736 C 339.325 8.921,338.550 9.040,337.716 9.000 C 336.882 8.961,335.853 9.103,335.429 9.316 C 335.005 9.530,333.835 9.761,332.829 9.830 C 331.823 9.899,330.100 10.139,329.000 10.363 C 327.900 10.587,326.376 10.893,325.613 11.043 C 324.851 11.193,323.996 11.547,323.713 11.830 C 323.089 12.454,322.985 19.200,323.600 19.200 C 323.820 19.200,324.000 20.190,324.000 21.400 C 324.000 22.610,324.180 23.600,324.400 23.600 C 324.620 23.600,324.800 24.590,324.800 25.800 C 324.800 27.010,324.941 28.000,325.114 28.000 C 325.287 28.000,325.403 28.675,325.371 29.500 C 325.340 30.325,325.496 31.450,325.720 32.000 C 325.943 32.550,326.156 33.720,326.194 34.600 C 326.231 35.480,326.386 36.650,326.538 37.200 C 326.690 37.750,326.891 38.740,326.985 39.400 C 327.080 40.060,327.354 41.680,327.596 43.000 C 327.837 44.320,328.138 46.525,328.264 47.900 C 328.390 49.275,328.652 50.400,328.847 50.400 C 329.041 50.400,329.200 51.289,329.200 52.376 C 329.200 53.463,329.380 54.464,329.600 54.600 C 329.820 54.736,330.000 55.816,330.000 57.000 C 330.000 58.184,330.180 59.264,330.400 59.400 C 330.620 59.536,330.800 60.526,330.800 61.600 C 330.800 62.674,330.980 63.664,331.200 63.800 C 331.420 63.936,331.600 65.027,331.600 66.224 C 331.600 67.421,331.780 68.400,332.000 68.400 C 332.220 68.400,332.400 69.379,332.400 70.576 C 332.400 71.773,332.580 72.864,332.800 73.000 C 333.020 73.136,333.200 74.227,333.200 75.424 C 333.200 76.621,333.380 77.600,333.600 77.600 C 333.820 77.600,334.000 78.489,334.000 79.576 C 334.000 80.663,334.180 81.664,334.400 81.800 C 334.620 81.936,334.800 83.027,334.800 84.224 C 334.800 85.421,334.980 86.400,335.200 86.400 C 335.420 86.400,335.600 87.390,335.600 88.600 C 335.600 89.810,335.780 90.800,336.000 90.800 C 336.222 90.800,336.400 91.867,336.400 93.200 C 336.400 94.520,336.563 95.600,336.763 95.600 C 337.104 95.600,337.219 96.301,337.831 102.100 C 337.965 103.365,338.237 104.400,338.437 104.400 C 338.637 104.400,338.800 105.390,338.800 106.600 C 338.800 107.810,338.980 108.800,339.200 108.800 C 339.422 108.800,339.600 109.867,339.600 111.200 C 339.600 112.533,339.778 113.600,340.000 113.600 C 340.220 113.600,340.400 114.579,340.400 115.776 C 340.400 116.973,340.580 118.064,340.800 118.200 C 341.020 118.336,341.200 119.161,341.200 120.034 C 341.200 121.882,342.078 126.800,342.407 126.800 C 342.531 126.800,342.606 127.655,342.573 128.700 C 342.541 129.745,342.668 130.902,342.856 131.271 C 343.044 131.641,343.288 132.811,343.398 133.871 C 343.606 135.865,344.054 138.592,344.799 142.400 C 345.036 143.610,345.334 145.725,345.461 147.100 C 345.589 148.475,345.852 149.600,346.047 149.600 C 346.241 149.600,346.400 150.579,346.400 151.776 C 346.400 152.973,346.580 154.064,346.800 154.200 C 347.020 154.336,347.200 155.427,347.200 156.624 C 347.200 157.821,347.380 158.800,347.600 158.800 C 347.820 158.800,348.000 159.438,348.000 160.218 C 348.000 162.456,349.415 163.600,352.182 163.600 C 353.402 163.600,354.400 163.420,354.400 163.200 C 354.400 162.980,355.390 162.800,356.600 162.800 C 357.810 162.800,358.800 162.620,358.800 162.400 C 358.800 162.180,359.700 162.000,360.800 162.000 C 361.900 162.000,362.800 161.820,362.800 161.600 C 362.800 161.378,363.867 161.200,365.200 161.200 C 366.533 161.200,367.600 161.022,367.600 160.800 C 367.600 160.577,368.675 160.400,370.024 160.400 C 371.537 160.400,372.354 160.250,372.200 160.000 C 372.046 159.750,372.863 159.600,374.376 159.600 C 375.725 159.600,376.800 159.423,376.800 159.200 C 376.800 158.980,377.532 158.800,378.426 158.800 C 381.404 158.800,381.600 158.504,381.600 154.010 C 381.600 151.799,381.423 149.938,381.200 149.800 C 380.980 149.664,380.800 148.764,380.800 147.800 C 380.800 146.836,380.620 145.936,380.400 145.800 C 380.180 145.664,380.000 144.573,380.000 143.376 C 380.000 142.179,379.820 141.200,379.600 141.200 C 379.378 141.200,379.200 140.133,379.200 138.800 C 379.200 137.467,379.022 136.400,378.800 136.400 C 378.580 136.400,378.400 135.500,378.400 134.400 C 378.400 133.300,378.220 132.400,378.000 132.400 C 377.778 132.400,377.600 131.333,377.600 130.000 C 377.600 128.667,377.422 127.600,377.200 127.600 C 376.980 127.600,376.800 126.610,376.800 125.400 C 376.800 124.190,376.620 123.200,376.400 123.200 C 376.180 123.200,376.000 122.199,376.000 120.976 C 376.000 119.596,375.848 118.847,375.600 119.000 C 375.354 119.152,375.187 118.430,375.166 117.124 C 375.134 115.113,374.911 113.376,373.966 107.800 C 373.743 106.480,373.462 104.455,373.343 103.300 C 373.224 102.145,372.963 101.200,372.763 101.200 C 372.563 101.200,372.400 100.221,372.400 99.024 C 372.400 97.827,372.220 96.736,372.000 96.600 C 371.780 96.464,371.600 95.373,371.600 94.176 C 371.600 92.979,371.437 92.000,371.237 92.000 C 371.037 92.000,370.765 90.965,370.631 89.700 C 370.019 83.901,369.904 83.200,369.563 83.200 C 369.363 83.200,369.200 82.210,369.200 81.000 C 369.200 79.790,369.020 78.800,368.800 78.800 C 368.578 78.800,368.400 77.733,368.400 76.400 C 368.400 75.067,368.222 74.000,368.000 74.000 C 367.780 74.000,367.600 73.111,367.600 72.024 C 367.600 70.937,367.420 69.936,367.200 69.800 C 366.980 69.664,366.800 68.573,366.800 67.376 C 366.800 66.179,366.620 65.200,366.400 65.200 C 366.180 65.200,366.000 64.221,366.000 63.024 C 366.000 61.827,365.820 60.736,365.600 60.600 C 365.380 60.464,365.200 59.553,365.200 58.576 C 365.200 57.599,365.020 56.800,364.800 56.800 C 364.578 56.800,364.400 55.733,364.400 54.400 C 364.400 53.067,364.222 52.000,364.000 52.000 C 363.778 52.000,363.600 50.933,363.600 49.600 C 363.600 48.267,363.422 47.200,363.200 47.200 C 362.980 47.200,362.800 46.210,362.800 45.000 C 362.800 43.790,362.620 42.800,362.400 42.800 C 362.180 42.800,362.000 41.821,362.000 40.624 C 362.000 39.427,361.820 38.336,361.600 38.200 C 361.380 38.064,361.200 37.063,361.200 35.976 C 361.200 34.889,361.020 34.000,360.800 34.000 C 360.578 34.000,360.400 32.933,360.400 31.600 C 360.400 30.267,360.222 29.200,360.000 29.200 C 359.780 29.200,359.600 28.210,359.600 27.000 C 359.600 25.790,359.440 24.800,359.245 24.800 C 358.915 24.800,358.394 20.457,358.412 17.853 C 358.416 17.222,358.254 16.502,358.051 16.253 C 357.848 16.004,357.579 14.900,357.452 13.800 C 356.888 8.901,356.675 7.818,356.182 7.325 C 355.552 6.695,349.378 6.588,349.000 7.200 M255.200 39.200 C 255.200 39.420,254.880 39.600,254.488 39.600 C 254.097 39.600,253.517 39.960,253.200 40.400 C 252.883 40.840,252.343 41.200,252.000 41.200 C 251.657 41.200,251.122 41.553,250.811 41.985 C 250.499 42.417,249.740 42.881,249.122 43.017 C 248.505 43.153,248.000 43.417,248.000 43.605 C 248.000 43.793,247.661 44.054,247.248 44.185 C 246.834 44.316,246.129 44.733,245.681 45.112 C 243.494 46.961,243.161 47.200,242.772 47.200 C 242.541 47.200,242.464 47.380,242.600 47.600 C 242.736 47.820,242.516 48.000,242.112 48.000 C 241.707 48.000,241.117 48.360,240.800 48.800 C 240.483 49.240,239.943 49.600,239.600 49.600 C 239.257 49.600,238.717 49.960,238.400 50.400 C 238.083 50.840,237.543 51.200,237.200 51.200 C 236.857 51.200,236.317 51.560,236.000 52.000 C 235.683 52.440,235.143 52.800,234.800 52.800 C 234.457 52.800,233.917 53.160,233.600 53.600 C 233.283 54.040,232.769 54.400,232.458 54.400 C 230.514 54.400,229.331 58.331,230.800 59.908 C 231.240 60.380,231.600 61.004,231.600 61.295 C 231.600 61.586,231.960 62.083,232.400 62.400 C 232.840 62.717,233.200 63.257,233.200 63.600 C 233.200 63.943,233.560 64.483,234.000 64.800 C 234.440 65.117,234.800 65.631,234.800 65.941 C 234.800 66.252,235.116 66.797,235.503 67.153 C 235.889 67.509,236.460 68.295,236.770 68.900 C 237.081 69.505,237.485 70.000,237.668 70.000 C 237.850 70.000,238.000 70.270,238.000 70.600 C 238.000 70.930,238.180 71.200,238.400 71.200 C 238.620 71.200,238.800 71.455,238.800 71.767 C 238.800 72.078,238.935 72.393,239.100 72.467 C 239.646 72.709,241.881 75.796,242.170 76.706 C 242.326 77.198,242.706 77.600,243.014 77.600 C 243.323 77.600,243.486 77.831,243.378 78.114 C 243.269 78.397,243.500 78.982,243.890 79.414 C 244.281 79.846,244.855 80.695,245.168 81.300 C 245.480 81.905,245.885 82.400,246.068 82.400 C 246.250 82.400,246.400 82.625,246.401 82.900 C 246.401 83.175,246.941 84.030,247.600 84.800 C 248.259 85.570,248.799 86.359,248.799 86.553 C 248.800 86.747,249.116 87.197,249.503 87.553 C 249.889 87.909,250.460 88.695,250.770 89.300 C 251.081 89.905,251.485 90.400,251.668 90.400 C 251.850 90.400,252.000 90.630,252.000 90.912 C 252.000 91.193,252.360 91.683,252.800 92.000 C 253.240 92.317,253.600 92.857,253.600 93.200 C 253.600 93.543,253.960 94.083,254.400 94.400 C 254.840 94.717,255.200 95.257,255.200 95.600 C 255.200 95.943,255.560 96.483,256.000 96.800 C 256.440 97.117,256.800 97.573,256.800 97.813 C 256.800 98.053,257.116 98.598,257.503 99.025 C 257.889 99.451,258.426 100.295,258.694 100.900 C 258.963 101.505,259.377 102.000,259.615 102.000 C 259.853 102.000,259.954 102.151,259.840 102.335 C 259.726 102.519,260.158 103.284,260.800 104.035 C 261.442 104.786,261.975 105.625,261.984 105.900 C 261.993 106.175,262.150 106.400,262.332 106.400 C 262.515 106.400,262.919 106.895,263.230 107.500 C 263.540 108.105,264.111 108.891,264.497 109.247 C 264.884 109.603,265.200 110.148,265.200 110.459 C 265.200 110.769,265.560 111.283,266.000 111.600 C 266.440 111.917,266.800 112.457,266.800 112.800 C 266.800 113.143,267.160 113.683,267.600 114.000 C 268.040 114.317,268.400 114.815,268.400 115.106 C 268.400 115.398,268.836 116.072,269.369 116.605 C 269.902 117.138,270.454 117.940,270.596 118.387 C 270.738 118.834,271.022 119.200,271.227 119.200 C 271.432 119.200,271.600 119.470,271.600 119.800 C 271.600 120.130,271.780 120.400,272.000 120.400 C 272.220 120.400,272.400 120.630,272.400 120.912 C 272.400 121.193,272.760 121.683,273.200 122.000 C 273.640 122.317,274.000 122.740,274.000 122.941 C 274.000 123.141,274.586 124.136,275.301 125.152 C 276.017 126.169,276.857 127.495,277.169 128.100 C 277.480 128.705,277.885 129.200,278.068 129.200 C 278.250 129.200,278.400 129.436,278.400 129.725 C 278.400 130.013,278.715 130.598,279.100 131.025 C 279.485 131.451,280.055 132.295,280.368 132.900 C 280.680 133.505,281.085 134.000,281.268 134.000 C 281.450 134.000,281.600 134.225,281.600 134.500 C 281.601 134.775,282.066 135.540,282.635 136.200 C 283.204 136.860,283.963 137.895,284.321 138.500 C 284.679 139.105,285.114 139.600,285.286 139.600 C 285.459 139.600,285.600 139.868,285.600 140.197 C 285.600 140.525,285.960 141.018,286.400 141.293 C 286.840 141.568,287.200 142.069,287.200 142.408 C 287.200 142.746,287.560 143.283,288.000 143.600 C 288.440 143.917,288.800 144.457,288.800 144.800 C 288.800 145.143,289.160 145.683,289.600 146.000 C 290.040 146.317,290.400 146.857,290.400 147.200 C 290.400 147.543,290.760 148.083,291.200 148.400 C 291.640 148.717,292.000 149.286,292.000 149.665 C 292.000 150.043,292.177 150.462,292.393 150.596 C 292.714 150.794,295.086 154.176,297.000 157.164 C 297.220 157.508,297.715 158.082,298.100 158.441 C 298.485 158.800,298.800 159.348,298.800 159.659 C 298.800 159.969,299.160 160.483,299.600 160.800 C 300.040 161.117,300.400 161.657,300.400 162.000 C 300.400 162.343,300.760 162.883,301.200 163.200 C 301.640 163.517,302.000 164.057,302.000 164.400 C 302.000 164.743,302.360 165.283,302.800 165.600 C 303.240 165.917,303.600 166.431,303.600 166.741 C 303.600 167.052,303.916 167.597,304.303 167.953 C 304.689 168.309,305.260 169.095,305.570 169.700 C 305.881 170.305,306.285 170.800,306.468 170.800 C 306.650 170.800,306.800 171.070,306.800 171.400 C 306.800 171.730,306.980 172.000,307.200 172.000 C 307.420 172.000,307.600 172.230,307.600 172.512 C 307.600 172.793,307.950 173.276,308.379 173.585 C 308.807 173.893,309.083 174.266,308.992 174.412 C 308.902 174.559,309.181 175.059,309.614 175.523 C 310.046 175.987,310.400 176.562,310.400 176.801 C 310.400 177.041,310.853 177.690,311.408 178.244 C 311.962 178.798,312.331 179.387,312.229 179.553 C 312.127 179.719,312.393 180.107,312.821 180.415 C 313.250 180.724,313.600 181.207,313.600 181.488 C 313.600 181.770,313.780 182.000,314.000 182.000 C 314.220 182.000,314.400 182.193,314.400 182.429 C 314.400 183.283,315.574 184.000,316.971 184.000 C 317.757 184.000,318.400 183.820,318.400 183.600 C 318.400 183.380,318.636 183.200,318.925 183.200 C 319.213 183.200,319.836 182.840,320.308 182.400 C 320.780 181.960,321.354 181.600,321.583 181.600 C 321.812 181.600,322.000 181.450,322.000 181.268 C 322.000 181.085,322.495 180.680,323.100 180.368 C 323.705 180.055,324.677 179.305,325.260 178.700 C 325.844 178.095,326.569 177.600,326.872 177.600 C 327.175 177.600,327.683 177.240,328.000 176.800 C 328.317 176.360,328.897 176.000,329.288 176.000 C 329.680 176.000,330.000 175.847,330.000 175.661 C 330.000 175.474,330.720 174.997,331.600 174.600 C 332.480 174.203,333.200 173.748,333.200 173.588 C 333.200 173.428,333.740 173.073,334.400 172.800 C 335.060 172.527,335.600 172.187,335.600 172.046 C 335.600 171.905,336.320 171.344,337.200 170.800 C 338.080 170.256,338.800 169.674,338.800 169.506 C 338.800 169.338,339.036 169.200,339.325 169.200 C 339.613 169.200,340.236 168.840,340.708 168.400 C 341.180 167.960,341.677 167.600,341.812 167.600 C 341.947 167.600,342.314 167.343,342.629 167.029 C 343.278 166.380,343.423 162.800,342.800 162.800 C 342.580 162.800,342.400 162.530,342.400 162.200 C 342.400 161.870,342.265 161.598,342.100 161.595 C 341.935 161.593,341.456 160.873,341.036 159.995 C 340.615 159.118,340.132 158.400,339.963 158.400 C 339.793 158.400,339.547 158.062,339.416 157.649 C 339.284 157.236,338.733 156.381,338.189 155.749 C 337.646 155.117,337.201 154.415,337.200 154.188 C 337.200 153.962,336.840 153.517,336.400 153.200 C 335.960 152.883,335.600 152.369,335.600 152.059 C 335.600 151.748,335.284 151.203,334.897 150.847 C 334.511 150.491,333.940 149.705,333.630 149.100 C 333.319 148.495,332.915 148.000,332.732 148.000 C 332.550 148.000,332.400 147.680,332.400 147.288 C 332.400 146.897,332.040 146.317,331.600 146.000 C 331.160 145.683,330.800 145.221,330.800 144.974 C 330.800 144.726,330.440 144.198,330.000 143.800 C 329.560 143.402,329.200 142.900,329.200 142.685 C 329.200 142.470,328.884 142.003,328.497 141.647 C 328.111 141.291,327.540 140.505,327.230 139.900 C 326.919 139.295,326.515 138.800,326.332 138.800 C 326.150 138.800,326.000 138.429,326.000 137.976 C 326.000 137.523,325.820 137.264,325.600 137.400 C 325.380 137.536,325.200 137.368,325.200 137.027 C 325.200 136.686,324.858 136.193,324.440 135.932 C 324.022 135.671,323.753 135.264,323.842 135.029 C 323.931 134.793,323.553 134.077,323.002 133.438 C 322.451 132.799,322.000 132.136,322.000 131.966 C 322.000 131.796,321.775 131.414,321.500 131.118 C 320.561 130.104,319.200 128.033,319.200 127.616 C 319.200 127.387,319.050 127.200,318.868 127.200 C 318.685 127.200,318.281 126.705,317.970 126.100 C 317.660 125.495,317.089 124.709,316.703 124.353 C 316.316 123.997,316.000 123.501,316.000 123.249 C 316.000 122.998,315.460 122.228,314.800 121.537 C 314.140 120.846,313.600 120.038,313.600 119.741 C 313.600 119.443,313.420 119.200,313.200 119.200 C 312.980 119.200,312.800 118.957,312.800 118.659 C 312.800 118.362,312.260 117.554,311.600 116.863 C 310.940 116.172,310.400 115.375,310.400 115.092 C 310.400 114.809,310.040 114.317,309.600 114.000 C 309.160 113.683,308.800 113.236,308.800 113.007 C 308.800 112.624,305.370 107.254,304.835 106.800 C 304.705 106.690,304.344 106.105,304.032 105.500 C 303.720 104.895,303.315 104.400,303.132 104.400 C 302.950 104.400,302.800 104.175,302.799 103.900 C 302.799 103.625,302.259 102.770,301.600 102.000 C 300.941 101.230,300.401 100.441,300.401 100.247 C 300.400 100.053,300.084 99.603,299.697 99.247 C 299.311 98.891,298.740 98.105,298.430 97.500 C 298.119 96.895,297.715 96.400,297.532 96.400 C 297.350 96.400,297.200 96.080,297.200 95.688 C 297.200 95.297,296.840 94.717,296.400 94.400 C 295.960 94.083,295.600 93.633,295.600 93.400 C 295.600 93.167,295.240 92.717,294.800 92.400 C 294.360 92.083,294.000 91.543,294.000 91.200 C 294.000 90.857,293.640 90.317,293.200 90.000 C 292.760 89.683,292.400 89.103,292.400 88.712 C 292.400 88.320,292.261 88.000,292.091 88.000 C 291.921 88.000,291.426 87.325,290.991 86.500 C 290.556 85.675,289.885 84.651,289.500 84.225 C 289.115 83.798,288.800 83.253,288.800 83.013 C 288.800 82.773,288.440 82.317,288.000 82.000 C 287.560 81.683,287.200 81.143,287.200 80.800 C 287.200 80.457,286.840 79.917,286.400 79.600 C 285.960 79.283,285.600 78.833,285.600 78.600 C 285.600 78.367,285.240 77.917,284.800 77.600 C 284.360 77.283,284.000 76.743,284.000 76.400 C 284.000 76.057,283.640 75.517,283.200 75.200 C 282.760 74.883,282.400 74.343,282.400 74.000 C 282.400 73.657,282.040 73.117,281.600 72.800 C 281.160 72.483,280.800 71.943,280.800 71.600 C 280.800 71.257,280.440 70.717,280.000 70.400 C 279.560 70.083,279.200 69.585,279.200 69.294 C 279.200 69.002,278.764 68.328,278.231 67.795 C 277.698 67.262,277.146 66.460,277.004 66.013 C 276.862 65.566,276.578 65.200,276.373 65.200 C 276.168 65.200,276.000 64.930,276.000 64.600 C 276.000 64.270,275.820 64.000,275.600 64.000 C 275.380 64.000,275.200 63.818,275.200 63.596 C 275.200 63.374,274.570 62.295,273.800 61.200 C 273.030 60.105,272.400 59.066,272.400 58.892 C 272.400 58.719,272.040 58.317,271.600 58.000 C 271.160 57.683,270.800 57.143,270.800 56.800 C 270.800 56.457,270.440 55.917,270.000 55.600 C 269.560 55.283,269.200 54.769,269.200 54.459 C 269.200 54.148,268.884 53.603,268.497 53.247 C 268.111 52.891,267.540 52.105,267.230 51.500 C 266.919 50.895,266.515 50.400,266.332 50.400 C 266.150 50.400,266.000 50.175,266.000 49.900 C 265.999 49.625,265.534 48.860,264.965 48.200 C 264.396 47.540,263.637 46.505,263.279 45.900 C 262.921 45.295,262.486 44.800,262.314 44.800 C 262.141 44.800,262.000 44.530,262.000 44.200 C 262.000 43.870,261.850 43.600,261.668 43.600 C 261.485 43.600,261.080 43.112,260.768 42.516 C 259.295 39.704,255.200 37.265,255.200 39.200 M178.089 111.023 C 177.600 111.365,177.200 111.886,177.200 112.180 C 177.200 112.474,176.930 112.818,176.600 112.945 C 176.270 113.071,176.000 113.429,176.000 113.738 C 176.000 114.048,175.730 114.526,175.400 114.800 C 175.070 115.074,174.800 115.636,174.800 116.049 C 174.800 116.462,174.620 116.800,174.400 116.800 C 174.180 116.800,174.000 117.078,174.000 117.417 C 174.000 117.756,173.640 118.420,173.200 118.892 C 172.760 119.364,172.400 119.987,172.400 120.275 C 172.400 120.564,172.220 120.800,172.000 120.800 C 171.780 120.800,171.600 121.160,171.600 121.600 C 171.600 122.040,171.420 122.400,171.200 122.400 C 170.980 122.400,170.800 122.694,170.800 123.053 C 170.800 123.412,170.484 123.997,170.097 124.353 C 169.711 124.709,169.126 125.540,168.798 126.200 C 168.470 126.860,168.098 127.490,167.971 127.600 C 167.844 127.710,167.304 128.610,166.770 129.600 C 166.237 130.590,165.710 131.490,165.600 131.600 C 165.204 131.996,163.946 134.215,163.729 134.900 C 163.607 135.285,163.348 135.600,163.153 135.600 C 162.959 135.600,162.800 136.590,162.800 137.800 C 162.800 139.010,162.952 140.000,163.139 140.000 C 163.325 140.000,163.893 140.360,164.400 140.800 C 164.907 141.240,165.655 141.600,166.061 141.600 C 166.468 141.600,166.800 141.780,166.800 142.000 C 166.800 142.220,167.120 142.400,167.512 142.400 C 167.903 142.400,168.483 142.760,168.800 143.200 C 169.117 143.640,169.697 144.000,170.088 144.000 C 170.480 144.000,170.800 144.180,170.800 144.400 C 170.800 144.620,171.120 144.800,171.512 144.800 C 171.903 144.800,172.483 145.160,172.800 145.600 C 173.117 146.040,173.697 146.400,174.088 146.400 C 174.480 146.400,174.800 146.580,174.800 146.800 C 174.800 147.020,175.070 147.200,175.400 147.200 C 175.730 147.200,176.000 147.380,176.000 147.600 C 176.000 147.820,176.236 148.000,176.525 148.000 C 176.813 148.000,177.436 148.360,177.908 148.800 C 178.380 149.240,179.044 149.600,179.383 149.600 C 179.722 149.600,180.000 149.780,180.000 150.000 C 180.000 150.220,180.236 150.400,180.525 150.400 C 180.813 150.400,181.436 150.760,181.908 151.200 C 182.380 151.640,183.044 152.000,183.383 152.000 C 183.722 152.000,184.000 152.180,184.000 152.400 C 184.000 152.620,184.278 152.800,184.617 152.800 C 184.956 152.800,185.620 153.160,186.092 153.600 C 186.564 154.040,187.187 154.400,187.475 154.400 C 187.764 154.400,188.000 154.580,188.000 154.800 C 188.000 155.020,188.345 155.200,188.767 155.200 C 189.188 155.200,189.593 155.335,189.667 155.500 C 189.841 155.891,194.228 158.523,195.900 159.239 C 196.615 159.545,197.200 159.931,197.200 160.098 C 197.200 160.264,197.520 160.400,197.912 160.400 C 198.303 160.400,198.883 160.760,199.200 161.200 C 199.517 161.640,200.097 162.000,200.488 162.000 C 200.880 162.000,201.200 162.180,201.200 162.400 C 201.200 162.620,201.520 162.800,201.912 162.800 C 202.303 162.800,202.883 163.160,203.200 163.600 C 203.517 164.040,204.097 164.400,204.488 164.400 C 204.880 164.400,205.200 164.580,205.200 164.800 C 205.200 165.020,205.520 165.200,205.912 165.200 C 206.303 165.200,206.883 165.560,207.200 166.000 C 207.517 166.440,208.097 166.800,208.488 166.800 C 208.880 166.800,209.200 166.980,209.200 167.200 C 209.200 167.420,209.455 167.600,209.767 167.600 C 210.078 167.600,210.393 167.735,210.467 167.900 C 210.634 168.276,212.764 169.575,213.700 169.871 C 214.085 169.993,214.400 170.252,214.400 170.447 C 214.400 170.641,214.760 170.800,215.200 170.800 C 215.640 170.800,216.000 170.958,216.000 171.151 C 216.000 171.345,216.540 171.727,217.200 172.000 C 217.860 172.273,218.400 172.655,218.400 172.849 C 218.400 173.042,218.760 173.200,219.200 173.200 C 219.640 173.200,220.000 173.347,220.000 173.526 C 220.000 173.885,222.567 175.200,223.267 175.200 C 223.508 175.200,223.997 175.529,224.353 175.930 C 224.709 176.332,225.585 176.916,226.300 177.228 C 227.015 177.540,227.600 177.931,227.600 178.098 C 227.600 178.264,227.836 178.400,228.125 178.400 C 228.413 178.400,229.036 178.760,229.508 179.200 C 229.980 179.640,230.644 180.000,230.983 180.000 C 231.322 180.000,231.600 180.180,231.600 180.400 C 231.600 180.620,231.920 180.800,232.312 180.800 C 232.703 180.800,233.283 181.160,233.600 181.600 C 233.917 182.040,234.497 182.400,234.888 182.400 C 235.280 182.400,235.600 182.580,235.600 182.800 C 235.600 183.020,235.878 183.200,236.217 183.200 C 236.556 183.200,237.220 183.560,237.692 184.000 C 238.164 184.440,238.787 184.800,239.075 184.800 C 239.364 184.800,239.600 184.980,239.600 185.200 C 239.600 185.420,239.878 185.600,240.217 185.600 C 240.556 185.600,241.194 185.936,241.634 186.346 C 242.075 186.757,243.282 187.519,244.318 188.041 C 245.353 188.562,246.290 189.082,246.400 189.195 C 246.802 189.607,249.029 190.850,250.100 191.258 C 250.705 191.489,251.200 191.841,251.200 192.039 C 251.200 192.238,251.560 192.400,252.000 192.400 C 252.440 192.400,252.800 192.580,252.800 192.800 C 252.800 193.020,253.120 193.200,253.512 193.200 C 253.903 193.200,254.483 193.560,254.800 194.000 C 255.117 194.440,255.697 194.800,256.088 194.800 C 256.480 194.800,256.800 194.980,256.800 195.200 C 256.800 195.420,257.078 195.600,257.417 195.600 C 257.756 195.600,258.394 195.936,258.834 196.346 C 259.275 196.757,260.482 197.521,261.518 198.046 C 262.553 198.570,263.749 199.314,264.175 199.699 C 264.602 200.085,265.187 200.400,265.475 200.400 C 265.764 200.400,266.000 200.580,266.000 200.800 C 266.000 201.020,266.278 201.200,266.617 201.200 C 266.956 201.200,267.620 201.560,268.092 202.000 C 268.564 202.440,269.187 202.800,269.475 202.800 C 269.764 202.800,270.000 202.980,270.000 203.200 C 270.000 203.420,270.345 203.600,270.767 203.600 C 271.188 203.600,271.593 203.735,271.667 203.900 C 271.834 204.276,273.964 205.575,274.900 205.871 C 275.285 205.993,275.600 206.252,275.600 206.447 C 275.600 206.641,275.870 206.800,276.200 206.800 C 276.530 206.800,277.155 207.155,277.590 207.590 C 278.024 208.024,278.879 208.503,279.490 208.654 C 280.100 208.805,280.891 209.259,281.247 209.664 C 281.603 210.069,282.188 210.400,282.547 210.400 C 282.906 210.400,283.200 210.580,283.200 210.800 C 283.200 211.020,283.520 211.200,283.912 211.200 C 284.303 211.200,284.883 211.560,285.200 212.000 C 285.517 212.440,286.097 212.800,286.488 212.800 C 286.880 212.800,287.200 212.980,287.200 213.200 C 287.200 213.420,287.478 213.600,287.817 213.600 C 288.156 213.600,288.820 213.960,289.292 214.400 C 289.764 214.840,290.387 215.200,290.675 215.200 C 290.964 215.200,291.200 215.380,291.200 215.600 C 291.200 215.820,292.108 216.000,293.218 216.000 C 295.287 216.000,297.200 214.802,297.200 213.506 C 297.200 213.215,297.560 212.717,298.000 212.400 C 298.440 212.083,298.800 211.503,298.800 211.112 C 298.800 210.720,298.980 210.400,299.200 210.400 C 299.420 210.400,299.600 210.106,299.600 209.747 C 299.600 209.388,299.929 208.803,300.330 208.447 C 300.732 208.091,301.316 207.215,301.628 206.500 C 301.940 205.785,302.331 205.200,302.498 205.200 C 302.664 205.200,302.800 204.840,302.800 204.400 C 302.800 203.960,302.958 203.600,303.151 203.600 C 303.345 203.600,303.727 203.060,304.000 202.400 C 304.273 201.740,304.655 201.200,304.849 201.200 C 305.042 201.200,305.200 200.840,305.200 200.400 C 305.200 199.960,305.345 199.600,305.521 199.600 C 305.698 199.600,306.283 198.703,306.821 197.606 C 307.360 196.510,307.921 195.610,308.068 195.606 C 308.216 195.603,308.455 195.060,308.600 194.400 C 308.745 193.740,309.029 193.200,309.232 193.200 C 309.434 193.200,309.600 192.840,309.600 192.400 C 309.600 191.960,309.780 191.600,310.000 191.600 C 310.220 191.600,310.400 191.330,310.400 191.000 C 310.400 190.670,310.580 190.400,310.800 190.400 C 311.020 190.400,311.200 189.757,311.200 188.971 C 311.200 187.507,310.476 186.400,309.517 186.400 C 309.220 186.400,308.717 186.040,308.400 185.600 C 308.083 185.160,307.593 184.800,307.312 184.800 C 307.030 184.800,306.800 184.620,306.800 184.400 C 306.800 184.180,306.522 184.000,306.183 184.000 C 305.844 184.000,305.180 183.640,304.708 183.200 C 304.236 182.760,303.613 182.400,303.325 182.400 C 303.036 182.400,302.800 182.220,302.800 182.000 C 302.800 181.780,302.468 181.600,302.062 181.600 C 301.656 181.600,300.998 181.240,300.600 180.800 C 300.202 180.360,299.634 180.000,299.338 180.000 C 299.042 180.000,298.800 179.820,298.800 179.600 C 298.800 179.380,298.455 179.200,298.033 179.200 C 297.612 179.200,297.207 179.065,297.133 178.900 C 296.966 178.524,294.836 177.225,293.900 176.929 C 293.515 176.807,293.200 176.553,293.200 176.366 C 293.200 176.178,292.932 176.128,292.603 176.254 C 292.263 176.385,291.901 176.208,291.761 175.844 C 291.627 175.492,291.355 175.304,291.158 175.426 C 290.961 175.548,290.800 175.457,290.800 175.224 C 290.800 174.991,290.530 174.800,290.200 174.800 C 289.870 174.800,289.600 174.620,289.600 174.400 C 289.600 174.180,289.322 174.000,288.983 174.000 C 288.644 174.000,287.980 173.640,287.508 173.200 C 287.036 172.760,286.413 172.400,286.125 172.400 C 285.836 172.400,285.600 172.220,285.600 172.000 C 285.600 171.780,285.322 171.600,284.983 171.600 C 284.644 171.600,283.980 171.240,283.508 170.800 C 283.036 170.360,282.413 170.000,282.125 170.000 C 281.836 170.000,281.600 169.820,281.600 169.600 C 281.600 169.380,281.322 169.200,280.983 169.200 C 280.644 169.200,279.980 168.840,279.508 168.400 C 279.036 167.960,278.413 167.600,278.125 167.600 C 277.836 167.600,277.600 167.420,277.600 167.200 C 277.600 166.980,277.240 166.800,276.800 166.800 C 276.360 166.800,276.000 166.620,276.000 166.400 C 276.000 166.180,275.730 166.000,275.400 166.000 C 275.070 166.000,274.800 165.820,274.800 165.600 C 274.800 165.380,274.530 165.200,274.200 165.200 C 273.870 165.200,273.600 165.054,273.600 164.875 C 273.600 164.696,272.970 164.302,272.200 164.000 C 271.430 163.698,270.800 163.333,270.800 163.188 C 270.800 163.044,269.945 162.495,268.900 161.968 C 267.855 161.442,266.910 160.906,266.800 160.779 C 266.628 160.579,265.071 159.750,261.303 157.852 C 260.810 157.603,260.405 157.265,260.403 157.100 C 260.401 156.935,260.040 156.800,259.600 156.800 C 259.160 156.800,258.800 156.620,258.800 156.400 C 258.800 156.180,258.429 156.000,257.976 156.000 C 257.523 156.000,257.264 155.820,257.400 155.600 C 257.536 155.380,257.367 155.200,257.024 155.200 C 256.681 155.200,256.400 155.020,256.400 154.800 C 256.400 154.580,256.130 154.400,255.800 154.400 C 255.470 154.400,255.200 154.220,255.200 154.000 C 255.200 153.780,254.922 153.600,254.583 153.600 C 254.244 153.600,253.580 153.240,253.108 152.800 C 252.636 152.360,252.013 152.000,251.725 152.000 C 251.436 152.000,251.200 151.820,251.200 151.600 C 251.200 151.380,250.922 151.200,250.583 151.200 C 250.244 151.200,249.580 150.840,249.108 150.400 C 248.636 149.960,248.013 149.600,247.725 149.600 C 247.436 149.600,247.200 149.420,247.200 149.200 C 247.200 148.980,246.840 148.800,246.400 148.800 C 245.960 148.800,245.600 148.620,245.600 148.400 C 245.600 148.180,245.280 148.000,244.888 148.000 C 244.497 148.000,243.917 147.640,243.600 147.200 C 243.283 146.760,242.703 146.400,242.312 146.400 C 241.920 146.400,241.600 146.220,241.600 146.000 C 241.600 145.780,241.403 145.600,241.162 145.600 C 240.921 145.600,240.246 145.268,239.662 144.863 C 239.078 144.458,237.610 143.603,236.400 142.963 C 235.190 142.323,234.140 141.665,234.067 141.500 C 233.993 141.335,233.588 141.200,233.167 141.200 C 232.745 141.200,232.400 141.020,232.400 140.800 C 232.400 140.580,232.029 140.400,231.576 140.400 C 231.123 140.400,230.864 140.220,231.000 140.000 C 231.136 139.780,230.967 139.600,230.624 139.600 C 230.281 139.600,230.000 139.420,230.000 139.200 C 230.000 138.980,229.640 138.800,229.200 138.800 C 228.760 138.800,228.400 138.620,228.400 138.400 C 228.400 138.180,228.106 138.000,227.747 138.000 C 227.388 138.000,226.803 137.684,226.447 137.297 C 226.091 136.911,225.260 136.326,224.600 135.997 C 223.940 135.669,223.051 135.085,222.625 134.700 C 222.198 134.315,221.613 134.000,221.325 134.000 C 221.036 134.000,220.800 133.820,220.800 133.600 C 220.800 133.380,220.440 133.200,220.000 133.200 C 219.560 133.200,219.200 133.047,219.200 132.860 C 219.200 132.673,218.041 131.931,216.625 131.212 C 215.208 130.494,213.716 129.612,213.309 129.253 C 212.902 128.894,212.306 128.542,211.984 128.470 C 211.663 128.399,211.340 128.174,211.267 127.970 C 211.193 127.767,210.788 127.600,210.367 127.600 C 209.945 127.600,209.600 127.390,209.600 127.133 C 209.600 126.877,209.491 126.776,209.357 126.909 C 209.224 127.043,208.740 126.803,208.282 126.376 C 207.824 125.949,207.206 125.600,206.908 125.600 C 206.610 125.600,205.980 125.240,205.508 124.800 C 205.036 124.360,204.413 124.000,204.125 124.000 C 203.836 124.000,203.600 123.820,203.600 123.600 C 203.600 123.380,203.322 123.200,202.983 123.200 C 202.644 123.200,201.980 122.840,201.508 122.400 C 201.036 121.960,200.413 121.600,200.125 121.600 C 199.836 121.600,199.600 121.420,199.600 121.200 C 199.600 120.980,199.322 120.800,198.983 120.800 C 198.644 120.800,197.980 120.440,197.508 120.000 C 197.036 119.560,196.413 119.200,196.125 119.200 C 195.836 119.200,195.600 119.020,195.600 118.800 C 195.600 118.580,195.240 118.400,194.800 118.400 C 194.360 118.400,194.000 118.220,194.000 118.000 C 194.000 117.780,193.706 117.600,193.347 117.600 C 192.988 117.600,192.403 117.271,192.047 116.870 C 191.691 116.468,190.815 115.884,190.100 115.572 C 189.385 115.260,188.800 114.869,188.800 114.702 C 188.800 114.536,188.530 114.400,188.200 114.400 C 187.870 114.400,187.600 114.220,187.600 114.000 C 187.600 113.780,187.330 113.600,187.000 113.600 C 186.670 113.600,186.400 113.420,186.400 113.200 C 186.400 112.980,186.136 112.800,185.814 112.800 C 185.492 112.800,184.376 112.260,183.336 111.600 C 181.241 110.272,179.443 110.074,178.089 111.023 M142.924 186.100 C 142.719 186.375,142.574 186.870,142.602 187.200 C 142.630 187.530,142.501 188.113,142.314 188.496 C 142.128 188.879,141.952 189.824,141.923 190.596 C 141.894 191.368,141.720 192.000,141.535 192.000 C 141.351 192.000,141.200 192.439,141.200 192.976 C 141.200 193.513,141.020 194.064,140.800 194.200 C 140.580 194.336,140.400 195.056,140.400 195.800 C 140.400 196.544,140.220 197.264,140.000 197.400 C 139.780 197.536,139.600 198.267,139.600 199.024 C 139.600 199.781,139.420 200.400,139.200 200.400 C 138.980 200.400,138.800 201.120,138.800 202.000 C 138.800 202.880,138.620 203.600,138.400 203.600 C 138.180 203.600,138.000 204.140,138.000 204.800 C 138.000 205.460,137.820 206.000,137.600 206.000 C 137.380 206.000,137.200 206.720,137.200 207.600 C 137.200 208.480,137.020 209.200,136.800 209.200 C 136.580 209.200,136.400 209.830,136.400 210.600 C 136.400 211.370,136.220 212.000,136.000 212.000 C 135.769 212.000,135.600 213.257,135.600 214.971 C 135.600 218.105,136.438 219.200,138.838 219.200 C 139.231 219.200,139.664 219.380,139.800 219.600 C 139.936 219.820,140.667 220.000,141.424 220.000 C 142.181 220.000,142.800 220.180,142.800 220.400 C 142.800 220.620,143.419 220.800,144.176 220.800 C 144.933 220.800,145.664 220.980,145.800 221.200 C 145.936 221.420,146.566 221.600,147.200 221.600 C 147.834 221.600,148.452 221.760,148.573 221.956 C 148.694 222.151,149.424 222.421,150.196 222.556 C 150.968 222.690,152.232 222.910,153.004 223.044 C 153.776 223.179,154.506 223.449,154.627 223.644 C 154.748 223.840,155.467 224.000,156.224 224.000 C 156.981 224.000,157.600 224.166,157.600 224.368 C 157.600 224.571,158.770 224.862,160.200 225.015 C 161.630 225.168,162.800 225.452,162.800 225.647 C 162.800 225.841,163.520 226.000,164.400 226.000 C 165.280 226.000,166.000 226.180,166.000 226.400 C 166.000 226.620,166.529 226.800,167.176 226.800 C 167.823 226.800,168.464 226.980,168.600 227.200 C 168.736 227.420,169.467 227.600,170.224 227.600 C 170.981 227.600,171.600 227.780,171.600 228.000 C 171.600 228.220,172.320 228.400,173.200 228.400 C 174.080 228.400,174.800 228.580,174.800 228.800 C 174.800 229.020,175.430 229.200,176.200 229.200 C 176.970 229.200,177.600 229.380,177.600 229.600 C 177.600 229.820,178.129 230.000,178.776 230.000 C 179.423 230.000,180.064 230.180,180.200 230.400 C 180.336 230.620,181.056 230.800,181.800 230.800 C 182.544 230.800,183.264 230.980,183.400 231.200 C 183.536 231.420,184.267 231.600,185.024 231.600 C 185.781 231.600,186.400 231.780,186.400 232.000 C 186.400 232.220,187.120 232.400,188.000 232.400 C 188.880 232.400,189.600 232.580,189.600 232.800 C 189.600 233.020,190.140 233.200,190.800 233.200 C 191.460 233.200,192.000 233.380,192.000 233.600 C 192.000 233.820,192.720 234.000,193.600 234.000 C 194.480 234.000,195.200 234.180,195.200 234.400 C 195.200 234.620,195.819 234.800,196.576 234.800 C 197.333 234.800,198.064 234.980,198.200 235.200 C 198.336 235.420,198.876 235.600,199.400 235.600 C 199.924 235.600,200.464 235.780,200.600 236.000 C 200.736 236.220,201.467 236.400,202.224 236.400 C 202.981 236.400,203.600 236.580,203.600 236.800 C 203.600 237.020,204.320 237.200,205.200 237.200 C 206.080 237.200,206.800 237.380,206.800 237.600 C 206.800 237.820,207.419 238.000,208.176 238.000 C 208.933 238.000,209.664 238.180,209.800 238.400 C 209.936 238.620,210.566 238.800,211.200 238.800 C 211.834 238.800,212.464 238.980,212.600 239.200 C 212.736 239.420,213.366 239.600,214.000 239.600 C 214.634 239.600,215.264 239.780,215.400 240.000 C 215.536 240.220,216.231 240.400,216.944 240.400 C 217.657 240.400,218.419 240.579,218.638 240.798 C 218.856 241.016,220.152 241.312,221.518 241.454 C 222.883 241.597,224.000 241.868,224.000 242.057 C 224.000 242.246,224.731 242.400,225.624 242.400 C 226.604 242.400,227.149 242.558,227.000 242.800 C 226.851 243.042,227.396 243.200,228.376 243.200 C 229.269 243.200,230.000 243.380,230.000 243.600 C 230.000 243.820,230.540 244.000,231.200 244.000 C 231.860 244.000,232.400 244.180,232.400 244.400 C 232.400 244.620,233.120 244.800,234.000 244.800 C 234.880 244.800,235.600 244.980,235.600 245.200 C 235.600 245.420,236.320 245.600,237.200 245.600 C 238.080 245.600,238.800 245.780,238.800 246.000 C 238.800 246.220,239.340 246.400,240.000 246.400 C 240.660 246.400,241.200 246.580,241.200 246.800 C 241.200 247.020,241.819 247.200,242.576 247.200 C 243.333 247.200,244.064 247.380,244.200 247.600 C 244.336 247.820,245.056 248.000,245.800 248.000 C 246.544 248.000,247.264 248.180,247.400 248.400 C 247.536 248.620,248.267 248.800,249.024 248.800 C 249.781 248.800,250.400 248.980,250.400 249.200 C 250.400 249.420,250.929 249.600,251.576 249.600 C 252.223 249.600,252.864 249.780,253.000 250.000 C 253.136 250.220,253.867 250.400,254.624 250.400 C 255.381 250.400,256.000 250.580,256.000 250.800 C 256.000 251.020,256.720 251.200,257.600 251.200 C 258.480 251.200,259.200 251.380,259.200 251.600 C 259.200 251.820,259.729 252.000,260.376 252.000 C 261.023 252.000,261.664 252.180,261.800 252.400 C 261.936 252.620,262.566 252.800,263.200 252.800 C 263.834 252.800,264.464 252.980,264.600 253.200 C 264.736 253.420,265.467 253.600,266.224 253.600 C 266.981 253.600,267.600 253.780,267.600 254.000 C 267.600 254.220,268.320 254.400,269.200 254.400 C 270.080 254.400,270.800 254.580,270.800 254.800 C 270.800 255.020,271.192 255.200,271.672 255.200 C 272.151 255.200,273.096 255.368,273.772 255.573 C 274.447 255.778,275.810 256.156,276.800 256.412 C 277.790 256.668,278.913 257.040,279.295 257.239 C 281.505 258.388,284.800 257.094,284.800 255.077 C 284.800 254.510,284.980 253.936,285.200 253.800 C 285.420 253.664,285.600 253.034,285.600 252.400 C 285.600 251.766,285.780 251.136,286.000 251.000 C 286.220 250.864,286.400 250.133,286.400 249.376 C 286.400 248.619,286.580 248.000,286.800 248.000 C 287.020 248.000,287.200 247.280,287.200 246.400 C 287.200 245.520,287.380 244.800,287.600 244.800 C 287.820 244.800,288.000 244.080,288.000 243.200 C 288.000 242.320,288.180 241.600,288.400 241.600 C 288.620 241.600,288.800 241.071,288.800 240.424 C 288.800 239.777,288.980 239.136,289.200 239.000 C 289.420 238.864,289.600 238.311,289.600 237.771 C 289.600 237.231,289.756 236.477,289.946 236.095 C 291.602 232.775,292.215 225.286,290.860 224.932 C 290.387 224.808,290.000 224.548,290.000 224.353 C 290.000 224.159,289.561 224.000,289.024 224.000 C 288.487 224.000,287.936 223.820,287.800 223.600 C 287.664 223.380,286.933 223.200,286.176 223.200 C 285.419 223.200,284.800 223.020,284.800 222.800 C 284.800 222.580,284.080 222.400,283.200 222.400 C 282.320 222.400,281.600 222.220,281.600 222.000 C 281.600 221.780,281.071 221.600,280.424 221.600 C 279.777 221.600,279.136 221.420,279.000 221.200 C 278.864 220.980,278.133 220.800,277.376 220.800 C 276.619 220.800,276.000 220.620,276.000 220.400 C 276.000 220.180,275.381 220.000,274.624 220.000 C 273.867 220.000,273.136 219.820,273.000 219.600 C 272.864 219.380,272.133 219.200,271.376 219.200 C 270.619 219.200,270.000 219.020,270.000 218.800 C 270.000 218.580,269.381 218.400,268.624 218.400 C 267.867 218.400,267.136 218.220,267.000 218.000 C 266.864 217.780,266.223 217.600,265.576 217.600 C 264.929 217.600,264.400 217.420,264.400 217.200 C 264.400 216.980,263.680 216.800,262.800 216.800 C 261.920 216.800,261.200 216.620,261.200 216.400 C 261.200 216.180,260.581 216.000,259.824 216.000 C 259.067 216.000,258.336 215.820,258.200 215.600 C 258.064 215.380,257.423 215.200,256.776 215.200 C 256.129 215.200,255.600 215.020,255.600 214.800 C 255.600 214.580,254.981 214.400,254.224 214.400 C 253.467 214.400,252.736 214.220,252.600 214.000 C 252.464 213.780,251.733 213.600,250.976 213.600 C 250.219 213.600,249.600 213.440,249.600 213.244 C 249.600 213.048,248.970 212.778,248.200 212.644 C 247.430 212.510,246.168 212.290,245.396 212.156 C 244.624 212.021,243.894 211.751,243.773 211.556 C 243.652 211.360,242.933 211.200,242.176 211.200 C 241.419 211.200,240.800 211.039,240.800 210.842 C 240.800 210.645,240.125 210.392,239.300 210.279 C 236.573 209.908,235.801 209.735,234.996 209.320 C 234.558 209.094,233.795 208.945,233.300 208.988 C 232.805 209.031,232.400 208.916,232.400 208.733 C 232.400 208.550,231.680 208.400,230.800 208.400 C 229.920 208.400,229.200 208.220,229.200 208.000 C 229.200 207.780,228.480 207.600,227.600 207.600 C 226.720 207.600,226.000 207.420,226.000 207.200 C 226.000 206.980,225.460 206.800,224.800 206.800 C 224.140 206.800,223.600 206.620,223.600 206.400 C 223.600 206.180,222.981 206.000,222.224 206.000 C 221.467 206.000,220.736 205.820,220.600 205.600 C 220.464 205.380,219.733 205.200,218.976 205.200 C 218.219 205.200,217.600 205.020,217.600 204.800 C 217.600 204.580,217.071 204.400,216.424 204.400 C 215.777 204.400,215.136 204.220,215.000 204.000 C 214.864 203.780,214.133 203.600,213.376 203.600 C 212.619 203.600,212.000 203.420,212.000 203.200 C 212.000 202.980,211.280 202.800,210.400 202.800 C 209.520 202.800,208.800 202.620,208.800 202.400 C 208.800 202.180,208.170 202.000,207.400 202.000 C 206.630 202.000,206.000 201.820,206.000 201.600 C 206.000 201.380,205.370 201.200,204.600 201.200 C 203.830 201.200,203.200 201.020,203.200 200.800 C 203.200 200.580,202.570 200.400,201.800 200.400 C 201.030 200.400,200.400 200.220,200.400 200.000 C 200.400 199.780,199.680 199.600,198.800 199.600 C 197.920 199.600,197.200 199.420,197.200 199.200 C 197.200 198.980,196.480 198.800,195.600 198.800 C 194.720 198.800,194.000 198.620,194.000 198.400 C 194.000 198.180,193.471 198.000,192.824 198.000 C 192.177 198.000,191.536 197.820,191.400 197.600 C 191.264 197.380,190.544 197.200,189.800 197.200 C 189.056 197.200,188.336 197.020,188.200 196.800 C 188.064 196.580,187.423 196.400,186.776 196.400 C 186.129 196.400,185.600 196.220,185.600 196.000 C 185.600 195.780,184.968 195.600,184.195 195.600 C 183.422 195.600,182.477 195.442,182.095 195.249 C 180.939 194.665,178.596 194.000,177.695 194.000 C 177.229 194.000,176.748 193.839,176.626 193.642 C 176.431 193.326,175.631 193.153,172.103 192.664 C 171.609 192.595,171.084 192.418,170.936 192.270 C 170.788 192.121,170.257 192.000,169.757 192.000 C 169.257 192.000,168.736 191.820,168.600 191.600 C 168.464 191.380,167.643 191.200,166.776 191.200 C 165.909 191.200,165.200 191.020,165.200 190.800 C 165.200 190.580,164.480 190.400,163.600 190.400 C 162.720 190.400,162.000 190.220,162.000 190.000 C 162.000 189.780,161.471 189.600,160.824 189.600 C 160.177 189.600,159.536 189.420,159.400 189.200 C 159.264 188.980,158.634 188.800,158.000 188.800 C 157.366 188.800,156.736 188.620,156.600 188.400 C 156.464 188.180,155.733 188.000,154.976 188.000 C 154.219 188.000,153.600 187.820,153.600 187.600 C 153.600 187.380,152.970 187.200,152.200 187.200 C 151.430 187.200,150.800 187.020,150.800 186.800 C 150.800 186.580,150.170 186.400,149.400 186.400 C 148.630 186.400,148.000 186.220,148.000 186.000 C 148.000 185.408,143.373 185.499,142.924 186.100 M129.600 254.224 C 128.203 254.986,128.036 256.068,127.039 270.800 C 126.927 272.450,126.706 274.250,126.547 274.800 C 126.255 275.810,125.955 279.858,125.855 284.123 C 125.772 287.635,126.647 288.094,134.400 288.610 C 136.050 288.719,138.030 288.910,138.800 289.034 C 139.570 289.158,142.090 289.424,144.400 289.625 C 146.710 289.826,150.490 290.166,152.800 290.382 C 155.110 290.597,160.811 291.005,165.469 291.287 C 170.126 291.569,174.071 291.935,174.235 292.100 C 174.399 292.265,176.393 292.400,178.667 292.400 C 181.156 292.400,182.800 292.559,182.800 292.800 C 182.800 293.041,184.467 293.200,187.000 293.200 C 189.533 293.200,191.200 293.359,191.200 293.600 C 191.200 293.841,192.867 294.000,195.400 294.000 C 197.933 294.000,199.600 294.159,199.600 294.400 C 199.600 294.642,201.333 294.800,204.000 294.800 C 206.667 294.800,208.400 294.958,208.400 295.200 C 208.400 295.441,210.067 295.600,212.600 295.600 C 215.133 295.600,216.800 295.759,216.800 296.000 C 216.800 296.242,218.533 296.400,221.200 296.400 C 223.867 296.400,225.600 296.558,225.600 296.800 C 225.600 297.038,227.125 297.200,229.376 297.200 C 231.463 297.200,233.263 297.379,233.400 297.600 C 233.539 297.825,235.471 298.000,237.824 298.000 C 240.341 298.000,242.000 298.159,242.000 298.400 C 242.000 298.641,243.667 298.800,246.200 298.800 C 248.733 298.800,250.400 298.959,250.400 299.200 C 250.400 299.442,252.133 299.600,254.800 299.600 C 257.467 299.600,259.200 299.758,259.200 300.000 C 259.200 300.241,260.867 300.400,263.400 300.400 C 265.933 300.400,267.600 300.559,267.600 300.800 C 267.600 301.048,269.800 301.200,273.400 301.200 C 278.933 301.200,279.200 301.163,279.200 300.400 C 279.200 299.960,279.380 299.600,279.600 299.600 C 279.840 299.600,280.000 298.008,280.000 295.624 C 280.000 293.404,280.177 291.538,280.400 291.400 C 280.623 291.262,280.800 289.396,280.800 287.176 C 280.800 284.792,280.960 283.200,281.200 283.200 C 281.442 283.200,281.600 281.467,281.600 278.800 C 281.600 276.133,281.758 274.400,282.000 274.400 C 282.616 274.400,282.473 270.673,281.795 269.049 C 281.242 267.727,281.049 267.600,279.595 267.600 C 278.718 267.600,278.000 267.420,278.000 267.200 C 278.000 266.961,276.467 266.800,274.200 266.800 C 271.933 266.800,270.400 266.639,270.400 266.400 C 270.400 266.159,268.733 266.000,266.200 266.000 C 263.667 266.000,262.000 265.841,262.000 265.600 C 262.000 265.362,260.475 265.200,258.224 265.200 C 256.137 265.200,254.337 265.021,254.200 264.800 C 254.062 264.577,252.204 264.400,250.000 264.400 C 247.796 264.400,245.938 264.223,245.800 264.000 C 245.664 263.780,243.889 263.600,241.856 263.600 C 239.823 263.600,237.989 263.431,237.780 263.225 C 237.571 263.019,235.510 262.751,233.200 262.630 C 223.328 262.111,220.988 261.923,220.605 261.618 C 220.382 261.440,218.410 261.262,216.221 261.222 C 214.033 261.183,212.053 261.026,211.821 260.875 C 211.420 260.613,207.697 260.310,199.082 259.839 C 196.927 259.721,194.952 259.494,194.694 259.335 C 194.436 259.175,192.779 258.982,191.012 258.906 C 189.246 258.831,185.505 258.667,182.700 258.543 C 179.895 258.419,177.600 258.156,177.600 257.959 C 177.600 257.761,175.710 257.600,173.400 257.600 C 170.867 257.600,169.200 257.441,169.200 257.200 C 169.200 256.958,167.467 256.800,164.800 256.800 C 162.133 256.800,160.400 256.642,160.400 256.400 C 160.400 256.159,158.741 256.000,156.224 256.000 C 153.871 256.000,151.939 255.825,151.800 255.600 C 151.661 255.375,149.729 255.200,147.376 255.200 C 144.859 255.200,143.200 255.041,143.200 254.800 C 143.200 254.559,141.541 254.400,139.024 254.400 C 136.671 254.400,134.739 254.225,134.600 254.000 C 134.245 253.425,130.780 253.580,129.600 254.224 M125.300 309.865 C 125.025 309.976,124.800 310.602,124.800 311.257 C 124.800 311.949,124.632 312.344,124.400 312.200 C 124.144 312.042,124.000 313.329,124.000 315.776 C 124.000 318.059,124.161 319.600,124.400 319.600 C 124.651 319.600,124.800 322.141,124.800 326.424 C 124.800 330.871,124.661 333.161,124.400 333.000 C 124.145 332.842,124.000 334.063,124.000 336.376 C 124.000 338.525,124.163 340.000,124.400 340.000 C 124.620 340.000,124.800 340.463,124.800 341.029 C 124.800 342.261,125.642 343.200,126.748 343.200 C 127.191 343.200,127.664 343.380,127.800 343.600 C 127.962 343.862,139.745 344.000,161.847 344.000 C 184.279 344.000,195.564 343.865,195.400 343.600 C 195.236 343.335,205.070 343.200,224.600 343.200 C 244.130 343.200,253.964 343.335,253.800 343.600 C 253.638 343.863,257.263 344.000,264.376 344.000 C 271.325 344.000,275.200 343.857,275.200 343.600 C 275.200 343.380,275.663 343.200,276.229 343.200 C 278.422 343.200,278.400 343.370,278.400 326.400 C 278.400 313.364,278.304 310.647,277.829 310.171 C 277.264 309.607,126.688 309.305,125.300 309.865 M191.500 343.476 C 191.115 343.576,190.485 343.576,190.100 343.476 C 189.715 343.375,190.030 343.293,190.800 343.293 C 191.570 343.293,191.885 343.375,191.500 343.476 " stroke="none" fill="#f48424" fill-rule="evenodd"></path><path id="path2" d="" stroke="none" fill="#d8a0c0" fill-rule="evenodd"></path><path id="path3" d="" stroke="none" fill="#d8a04c" fill-rule="evenodd"></path><path id="path4" d="M190.100 343.476 C 190.485 343.576,191.115 343.576,191.500 343.476 C 191.885 343.375,191.570 343.293,190.800 343.293 C 190.030 343.293,189.715 343.375,190.100 343.476 M195.900 343.482 C 196.395 343.578,197.205 343.578,197.700 343.482 C 198.195 343.387,197.790 343.309,196.800 343.309 C 195.810 343.309,195.405 343.387,195.900 343.482 " stroke="none" fill="#f8a024" fill-rule="evenodd"></path></g></svg>