<svg id="svg" version="1.1" xmlns="http://www.w3.org/2000/svg" xmlns:xlink="http://www.w3.org/1999/xlink" width="400" height="325.33756949960286" viewBox="0, 0, 400,325.33756949960286"><g id="svgg"><path id="path0" d="M269.729 1.382 C 269.647 1.463,268.650 1.610,267.514 1.709 C 262.525 2.143,251.581 4.627,249.071 5.895 C 248.626 6.120,247.377 6.602,246.296 6.967 C 245.215 7.331,243.864 7.913,243.293 8.261 C 242.723 8.609,242.016 8.894,241.722 8.895 C 241.429 8.895,240.964 9.121,240.690 9.395 C 240.415 9.670,240.191 9.799,240.191 9.682 C 240.191 9.564,239.654 9.789,238.999 10.181 C 238.344 10.573,237.021 11.327,236.060 11.857 C 233.634 13.197,230.083 15.488,229.293 16.224 C 228.930 16.562,228.537 16.839,228.419 16.839 C 228.211 16.839,227.232 17.578,224.305 19.947 C 221.160 22.492,213.145 30.825,212.037 32.699 C 211.719 33.237,211.361 33.678,211.242 33.678 C 211.122 33.678,210.732 34.142,210.375 34.710 C 210.018 35.278,209.289 36.355,208.755 37.104 C 208.221 37.853,207.784 38.538,207.784 38.627 C 207.784 38.715,207.630 38.960,207.442 39.171 C 206.551 40.173,201.229 50.525,200.631 52.423 C 200.558 52.652,200.179 53.646,199.539 55.282 C 199.232 56.068,198.666 57.784,198.283 59.095 C 197.899 60.405,197.457 61.906,197.300 62.431 C 196.658 64.578,195.380 72.209,195.066 75.774 C 194.457 82.698,194.902 91.622,196.196 98.420 C 196.438 99.691,196.724 100.872,196.831 101.045 C 196.953 101.243,196.458 101.303,195.494 101.208 C 194.652 101.125,192.677 100.972,191.104 100.869 C 186.895 100.593,184.220 100.343,181.255 99.947 C 180.556 99.853,179.220 99.699,178.285 99.605 C 177.351 99.510,175.993 99.303,175.267 99.145 C 174.541 98.987,173.233 98.780,172.359 98.685 C 167.514 98.157,150.181 94.290,143.500 92.247 C 142.073 91.810,140.763 91.414,140.588 91.366 C 140.413 91.319,140.056 91.186,139.793 91.071 C 139.531 90.956,138.388 90.588,137.252 90.252 C 132.179 88.751,122.258 85.024,117.554 82.850 C 116.418 82.325,114.988 81.711,114.376 81.484 C 113.765 81.257,112.335 80.617,111.199 80.061 C 101.316 75.225,99.271 74.188,99.179 73.963 C 99.120 73.821,98.941 73.786,98.781 73.885 C 98.622 73.984,98.491 73.927,98.491 73.759 C 98.491 73.591,98.098 73.301,97.617 73.115 C 97.137 72.928,96.172 72.434,95.473 72.016 C 94.774 71.598,92.772 70.430,91.025 69.420 C 89.277 68.409,87.058 67.067,86.093 66.436 C 83.493 64.738,83.128 64.512,82.605 64.278 C 82.343 64.161,82.057 63.983,81.970 63.883 C 81.882 63.783,80.739 62.986,79.430 62.113 C 78.120 61.239,76.858 60.345,76.625 60.125 C 76.392 59.905,75.891 59.562,75.511 59.362 C 74.797 58.986,68.308 54.228,66.990 53.113 C 66.313 52.542,64.489 51.089,61.135 48.451 C 60.468 47.927,59.200 46.839,58.317 46.033 C 57.434 45.228,55.569 43.584,54.173 42.380 C 48.436 37.431,36.585 25.214,31.771 19.285 C 28.867 15.707,28.937 15.740,28.072 17.554 C 27.718 18.296,26.928 19.844,26.316 20.994 C 24.585 24.245,21.281 32.823,20.802 35.308 C 20.729 35.686,20.528 36.438,20.354 36.981 C 20.181 37.523,19.974 38.324,19.896 38.761 C 19.817 39.198,19.538 40.627,19.276 41.938 C 18.193 47.351,17.940 50.635,17.993 58.618 C 18.041 65.866,18.757 71.590,20.338 77.363 C 20.864 79.285,21.353 81.072,21.425 81.334 C 21.497 81.597,21.578 81.811,21.604 81.811 C 21.631 81.811,21.696 82.025,21.748 82.288 C 21.874 82.922,22.703 85.316,23.342 86.894 C 23.625 87.593,23.970 88.451,24.109 88.801 C 25.213 91.588,29.951 100.556,30.913 101.679 C 31.210 102.027,31.454 102.452,31.454 102.625 C 31.454 102.798,31.580 102.939,31.734 102.939 C 31.889 102.939,32.101 103.189,32.206 103.495 C 32.423 104.128,34.188 106.582,36.060 108.854 C 37.708 110.853,45.913 119.066,47.292 120.095 C 47.877 120.532,48.591 121.114,48.880 121.389 C 49.168 121.664,49.905 122.232,50.516 122.651 C 51.128 123.071,51.771 123.530,51.946 123.672 C 52.121 123.814,52.550 124.135,52.899 124.385 C 53.493 124.811,53.451 124.841,52.264 124.843 C 50.910 124.845,45.410 124.332,44.280 124.099 C 36.377 122.467,33.184 121.624,29.070 120.088 C 25.223 118.651,18.078 115.362,17.730 114.867 C 17.155 114.051,17.049 123.895,17.622 124.847 C 17.679 124.942,17.814 125.906,17.921 126.989 C 18.029 128.072,18.187 129.145,18.272 129.372 C 18.358 129.599,18.486 130.214,18.557 130.739 C 18.914 133.361,20.208 138.586,21.075 140.905 C 21.270 141.430,21.462 142.067,21.499 142.322 C 21.564 142.762,22.120 144.209,23.029 146.307 C 23.257 146.831,23.630 147.760,23.858 148.372 C 24.283 149.508,26.805 154.486,28.502 157.535 C 29.378 159.110,32.786 164.177,33.526 165.006 C 33.704 165.206,34.766 166.513,35.885 167.911 C 40.439 173.603,52.466 184.273,54.326 184.273 C 54.502 184.273,54.647 184.407,54.647 184.570 C 54.647 184.733,54.957 184.964,55.337 185.085 C 55.717 185.205,56.310 185.568,56.656 185.890 C 57.002 186.212,57.406 186.400,57.554 186.309 C 57.702 186.217,57.824 186.271,57.824 186.429 C 57.824 186.747,66.043 190.945,66.667 190.945 C 66.883 190.945,67.376 191.150,67.763 191.401 C 68.417 191.824,74.300 193.945,75.762 194.285 C 76.118 194.368,77.268 194.650,78.316 194.913 C 79.365 195.176,80.632 195.470,81.134 195.566 C 82.711 195.870,80.038 196.584,73.550 197.592 C 68.306 198.406,66.903 198.512,61.477 198.504 C 55.924 198.495,54.508 198.390,49.015 197.583 C 45.853 197.119,45.020 197.582,46.413 199.031 C 46.573 199.197,46.704 199.573,46.704 199.866 C 46.704 200.974,49.839 207.792,52.976 213.503 C 54.411 216.118,58.345 221.820,60.007 223.695 C 60.291 224.016,61.025 224.876,61.636 225.606 C 64.060 228.498,70.124 234.363,72.280 235.902 C 72.770 236.251,73.416 236.769,73.717 237.052 C 74.791 238.065,83.374 243.641,83.623 243.487 C 83.762 243.401,83.876 243.456,83.876 243.609 C 83.876 243.856,87.967 245.911,92.164 247.773 C 95.587 249.292,101.810 251.187,106.896 252.260 C 110.131 252.943,110.890 253.061,116.124 253.693 C 116.648 253.757,118.078 253.822,119.301 253.838 L 121.525 253.867 120.254 254.972 C 118.411 256.575,118.235 256.712,118.030 256.712 C 117.833 256.712,117.601 256.892,116.186 258.147 C 115.696 258.582,114.838 259.172,114.280 259.459 C 113.721 259.746,112.423 260.568,111.395 261.285 C 108.796 263.098,107.939 263.660,107.387 263.913 C 107.125 264.033,106.839 264.226,106.751 264.341 C 106.664 264.456,105.806 264.985,104.845 265.517 C 103.884 266.049,101.882 267.164,100.397 267.995 C 95.907 270.507,85.336 275.719,84.353 275.905 C 84.178 275.938,83.535 276.191,82.923 276.466 C 80.994 277.334,78.404 278.316,78.035 278.318 C 77.840 278.319,77.307 278.515,76.851 278.753 C 76.395 278.991,74.322 279.715,72.244 280.361 C 70.167 281.008,68.287 281.595,68.067 281.665 C 67.846 281.736,67.595 281.796,67.509 281.799 C 67.423 281.801,66.852 282.012,66.242 282.268 C 65.631 282.523,65.131 282.678,65.131 282.611 C 65.131 282.545,64.166 282.779,62.986 283.131 C 61.807 283.483,59.913 283.968,58.777 284.210 C 57.641 284.452,55.353 284.945,53.693 285.306 C 51.155 285.858,47.580 286.447,41.303 287.346 C 34.284 288.352,15.685 288.971,10.802 288.361 C 10.191 288.284,8.403 288.128,6.831 288.013 C 5.258 287.898,3.339 287.734,2.567 287.649 C 1.323 287.511,1.210 287.550,1.573 287.988 C 1.799 288.260,2.119 288.483,2.284 288.483 C 2.449 288.483,3.039 288.822,3.595 289.237 C 4.152 289.652,5.250 290.347,6.037 290.782 C 6.823 291.217,8.181 292.003,9.055 292.530 C 11.708 294.128,13.492 295.091,13.708 295.042 C 13.820 295.017,14.192 295.249,14.534 295.558 C 15.389 296.333,27.545 302.452,27.774 302.223 C 27.876 302.122,27.959 302.205,27.959 302.409 C 27.959 302.613,28.099 302.780,28.270 302.780 C 28.442 302.780,29.764 303.333,31.209 304.009 C 32.654 304.685,34.623 305.560,35.584 305.954 C 36.545 306.347,37.782 306.866,38.332 307.107 C 38.883 307.348,39.493 307.546,39.687 307.546 C 39.881 307.546,40.324 307.689,40.672 307.863 C 41.019 308.038,41.585 308.323,41.930 308.496 C 42.275 308.670,43.454 309.116,44.551 309.488 C 45.648 309.860,46.974 310.354,47.498 310.587 C 49.130 311.311,60.083 314.858,62.589 315.473 C 63.900 315.795,65.343 316.204,65.796 316.382 C 66.248 316.560,67.035 316.780,67.543 316.872 C 68.051 316.964,68.824 317.132,69.261 317.244 C 69.698 317.357,70.556 317.572,71.168 317.722 C 71.779 317.873,73.137 318.218,74.186 318.490 C 76.012 318.963,79.173 319.591,86.418 320.919 C 90.135 321.601,95.277 322.372,97.697 322.611 C 98.570 322.697,99.714 322.842,100.238 322.932 C 100.763 323.023,102.121 323.169,103.257 323.258 C 104.392 323.346,107.323 323.589,109.770 323.797 C 117.979 324.495,140.753 324.277,149.007 323.421 C 154.549 322.847,158.119 322.454,158.888 322.335 C 159.667 322.214,161.950 321.908,163.940 321.657 C 168.998 321.019,181.069 318.608,186.300 317.191 C 187.894 316.760,189.984 316.197,190.945 315.942 C 191.906 315.687,192.907 315.409,193.169 315.325 C 193.431 315.242,194.647 314.901,195.870 314.568 C 198.544 313.841,207.684 310.858,208.578 310.421 C 208.928 310.250,210.071 309.803,211.120 309.429 C 214.635 308.173,215.538 307.823,217.146 307.091 C 218.025 306.690,219.102 306.253,219.539 306.119 C 219.976 305.985,220.905 305.581,221.604 305.220 C 222.303 304.859,223.051 304.533,223.265 304.495 C 224.135 304.342,238.933 296.793,242.097 294.888 C 242.708 294.519,243.781 293.914,244.480 293.542 C 245.179 293.170,246.465 292.398,247.339 291.827 C 248.213 291.256,249.597 290.413,250.414 289.953 C 251.232 289.494,252.090 288.934,252.321 288.710 C 252.551 288.485,253.527 287.823,254.488 287.239 C 255.449 286.654,256.307 286.087,256.394 285.979 C 256.646 285.667,258.573 284.353,258.778 284.353 C 259.037 284.353,262.566 281.705,262.695 281.414 C 262.754 281.283,262.968 281.173,263.172 281.170 C 263.376 281.168,264.043 280.740,264.654 280.221 C 265.882 279.178,265.870 279.187,267.673 277.851 C 268.372 277.333,269.135 276.723,269.368 276.496 C 269.602 276.269,270.317 275.693,270.957 275.217 C 271.597 274.741,272.335 274.132,272.597 273.863 C 272.859 273.594,273.717 272.885,274.504 272.288 C 279.745 268.310,291.365 257.022,297.918 249.542 C 298.827 248.505,300.021 247.156,300.572 246.545 C 301.123 245.933,302.091 244.790,302.724 244.003 C 303.357 243.217,304.307 242.060,304.836 241.433 C 305.365 240.805,306.084 239.885,306.434 239.388 C 307.151 238.367,308.441 236.760,309.081 236.089 C 309.316 235.843,309.874 235.056,310.321 234.342 C 310.768 233.627,311.546 232.542,312.051 231.930 C 313.396 230.300,313.459 230.214,313.905 229.368 C 314.129 228.943,314.412 228.523,314.534 228.435 C 314.936 228.147,318.983 222.069,318.983 221.754 C 318.983 221.584,319.101 221.446,319.244 221.446 C 319.475 221.446,320.454 219.880,323.081 215.306 C 323.501 214.576,323.946 213.908,324.071 213.820 C 324.197 213.733,324.621 213.018,325.014 212.232 C 325.408 211.446,325.910 210.588,326.130 210.326 C 326.351 210.064,327.156 208.634,327.920 207.149 C 328.684 205.663,329.395 204.376,329.500 204.289 C 329.697 204.126,335.650 192.184,335.677 191.898 C 335.686 191.811,336.111 190.882,336.623 189.833 C 337.134 188.785,337.563 187.855,337.576 187.768 C 337.589 187.681,337.986 186.783,338.459 185.773 C 338.931 184.763,339.317 183.755,339.317 183.533 C 339.317 183.311,339.445 182.994,339.602 182.828 C 339.845 182.570,340.443 181.201,341.537 178.396 C 341.673 178.046,342.159 176.831,342.617 175.695 C 343.074 174.559,343.449 173.408,343.448 173.137 C 343.448 172.867,343.579 172.509,343.740 172.343 C 344.104 171.968,347.873 160.724,349.007 156.632 C 349.466 154.972,350.123 152.613,350.465 151.390 C 352.642 143.619,355.795 127.229,356.670 119.142 C 356.755 118.356,356.953 116.712,357.110 115.488 C 357.266 114.265,357.484 111.883,357.594 110.194 C 357.704 108.505,357.858 106.718,357.936 106.223 C 358.014 105.727,358.142 100.032,358.220 93.566 L 358.364 81.811 360.351 80.281 C 361.445 79.440,362.413 78.646,362.504 78.517 C 362.595 78.389,363.348 77.802,364.178 77.213 C 365.008 76.625,365.687 76.025,365.687 75.879 C 365.687 75.734,365.866 75.613,366.084 75.610 C 366.303 75.607,367.217 74.928,368.116 74.101 C 369.016 73.274,370.728 71.739,371.922 70.691 C 375.840 67.250,383.767 59.154,386.815 55.479 C 387.514 54.637,388.353 53.640,388.681 53.264 C 389.008 52.889,389.866 51.803,390.587 50.852 C 391.308 49.900,392.292 48.689,392.772 48.160 C 393.253 47.631,393.646 47.108,393.646 46.999 C 393.646 46.890,393.896 46.497,394.202 46.125 C 394.508 45.753,395.084 44.981,395.482 44.409 C 395.881 43.836,396.555 42.867,396.981 42.256 C 397.407 41.644,397.993 40.818,398.285 40.419 C 399.029 39.402,398.734 39.303,397.281 40.083 C 396.592 40.452,395.957 40.743,395.870 40.731 C 395.782 40.718,395.075 40.989,394.299 41.332 C 393.522 41.676,392.521 42.044,392.075 42.150 C 391.628 42.256,391.120 42.442,390.945 42.564 C 390.549 42.838,385.015 44.771,384.586 44.785 C 384.500 44.788,383.894 45.018,383.239 45.296 C 382.585 45.574,381.835 45.848,381.573 45.904 C 381.311 45.960,379.023 46.610,376.489 47.349 C 373.956 48.087,371.311 48.804,370.612 48.941 C 369.913 49.077,368.912 49.282,368.388 49.395 C 367.863 49.507,366.148 49.876,364.575 50.214 C 361.355 50.905,353.252 52.166,353.087 52.001 C 353.028 51.942,353.730 51.415,354.647 50.830 C 355.564 50.245,356.978 49.220,357.788 48.553 C 358.599 47.885,359.385 47.335,359.536 47.331 C 359.686 47.326,360.400 46.790,361.123 46.139 C 361.845 45.489,363.152 44.345,364.027 43.598 C 366.993 41.066,372.853 34.897,374.357 32.724 C 374.902 31.938,375.558 31.081,375.815 30.819 C 376.564 30.058,380.297 24.203,381.690 21.604 C 383.490 18.245,385.385 14.326,385.385 13.961 C 385.385 13.792,385.512 13.405,385.666 13.101 C 386.314 11.826,386.677 10.919,386.799 10.267 C 386.871 9.885,387.082 9.287,387.269 8.937 C 388.182 7.233,387.674 7.126,385.226 8.510 C 381.654 10.529,377.443 12.788,376.172 13.367 C 375.385 13.725,374.027 14.352,373.153 14.762 C 369.432 16.504,367.262 17.474,367.084 17.474 C 366.980 17.474,366.445 17.671,365.894 17.911 C 362.870 19.232,360.523 20.086,355.361 21.742 C 352.216 22.752,349.428 23.657,349.166 23.755 C 348.551 23.984,348.565 23.980,347.260 24.270 C 346.648 24.406,345.218 24.773,344.083 25.085 C 336.584 27.146,336.250 27.137,333.911 24.827 C 331.855 22.796,329.875 21.021,328.013 19.539 C 327.355 19.015,326.376 18.219,325.839 17.771 C 323.380 15.720,315.929 11.036,315.289 11.141 C 315.176 11.159,314.995 11.043,314.889 10.882 C 314.732 10.648,311.340 8.890,310.723 8.724 C 310.635 8.700,309.706 8.284,308.658 7.799 C 307.609 7.315,306.608 6.888,306.434 6.851 C 306.259 6.814,305.549 6.539,304.856 6.239 C 304.163 5.939,303.377 5.660,303.108 5.618 C 302.840 5.576,302.478 5.452,302.303 5.344 C 301.984 5.144,296.633 3.658,295.155 3.358 C 294.718 3.270,293.765 3.052,293.036 2.874 C 288.608 1.792,270.495 0.633,269.729 1.382 " stroke="none" fill="#1ca4f4" fill-rule="evenodd"></path><path id="path1" d="M333.916 24.940 C 334.509 25.552,335.065 26.052,335.152 26.052 C 335.240 26.052,334.826 25.552,334.234 24.940 C 333.641 24.329,333.084 23.828,332.997 23.828 C 332.910 23.828,333.323 24.329,333.916 24.940 M367.593 40.191 C 366.822 40.977,366.262 41.620,366.349 41.620 C 366.436 41.620,367.139 40.977,367.911 40.191 C 368.683 39.404,369.243 38.761,369.155 38.761 C 369.068 38.761,368.365 39.404,367.593 40.191 " stroke="none" fill="#20a4f4" fill-rule="evenodd"></path><path id="path2" d="M333.916 24.940 C 334.509 25.552,335.065 26.052,335.152 26.052 C 335.240 26.052,334.826 25.552,334.234 24.940 C 333.641 24.329,333.084 23.828,332.997 23.828 C 332.910 23.828,333.323 24.329,333.916 24.940 M367.593 40.191 C 366.822 40.977,366.262 41.620,366.349 41.620 C 366.436 41.620,367.139 40.977,367.911 40.191 C 368.683 39.404,369.243 38.761,369.155 38.761 C 369.068 38.761,368.365 39.404,367.593 40.191 " stroke="none" fill="#20a4f4" fill-rule="evenodd"></path><path id="path3" d="M333.916 24.940 C 334.509 25.552,335.065 26.052,335.152 26.052 C 335.240 26.052,334.826 25.552,334.234 24.940 C 333.641 24.329,333.084 23.828,332.997 23.828 C 332.910 23.828,333.323 24.329,333.916 24.940 M367.593 40.191 C 366.822 40.977,366.262 41.620,366.349 41.620 C 366.436 41.620,367.139 40.977,367.911 40.191 C 368.683 39.404,369.243 38.761,369.155 38.761 C 369.068 38.761,368.365 39.404,367.593 40.191 " stroke="none" fill="#20a4f4" fill-rule="evenodd"></path><path id="path4" d="M333.916 24.940 C 334.509 25.552,335.065 26.052,335.152 26.052 C 335.240 26.052,334.826 25.552,334.234 24.940 C 333.641 24.329,333.084 23.828,332.997 23.828 C 332.910 23.828,333.323 24.329,333.916 24.940 M367.593 40.191 C 366.822 40.977,366.262 41.620,366.349 41.620 C 366.436 41.620,367.139 40.977,367.911 40.191 C 368.683 39.404,369.243 38.761,369.155 38.761 C 369.068 38.761,368.365 39.404,367.593 40.191 " stroke="none" fill="#20a4f4" fill-rule="evenodd"></path></g></svg>